{"glyphs":{"0":{"ha":778,"x_min":54,"x_max":722,"o":"m 389 -14 q 201 32 275 -14 q 91 182 128 78 q 54 458 54 286 q 91 735 54 631 q 201 885 128 839 q 389 932 275 932 q 640 822 558 932 q 722 458 722 713 q 685 182 722 286 q 575 32 649 78 q 389 -14 501 -14 m 389 81 q 517 116 468 81 q 589 234 565 151 q 613 458 613 317 q 589 683 613 600 q 517 801 565 765 q 389 836 468 836 q 261 801 310 836 q 189 683 213 765 q 165 458 165 600 q 189 234 165 317 q 261 116 213 151 q 389 81 310 81 z "},"1":{"ha":778,"x_min":149,"x_max":540,"o":"m 433 797 l 197 642 l 149 722 l 440 917 l 540 917 l 540 0 l 433 0 l 433 797 z "},"2":{"ha":778,"x_min":96,"x_max":682,"o":"m 96 90 l 364 372 q 463 480 428 439 q 524 571 499 521 q 549 674 549 621 q 501 798 549 761 q 349 835 454 835 q 147 811 261 835 l 111 804 l 103 893 q 375 931 233 931 q 588 871 518 931 q 658 685 658 811 q 617 518 658 590 q 467 342 575 446 l 222 93 l 682 93 l 682 0 l 96 0 l 96 90 z "},"3":{"ha":778,"x_min":86,"x_max":685,"o":"m 388 -14 q 129 14 268 -14 l 86 24 l 96 111 q 346 78 254 78 q 514 118 453 78 q 575 258 575 158 q 386 431 575 425 l 201 431 l 201 522 l 386 522 q 465 544 426 522 q 528 604 503 565 q 553 692 553 643 q 509 802 553 768 q 365 836 465 836 q 146 815 254 836 l 110 808 l 100 893 q 381 932 229 932 q 596 875 529 932 q 663 693 663 818 q 626 568 663 625 q 526 485 590 511 q 617 439 583 464 q 667 372 650 414 q 685 263 685 329 q 613 53 685 121 q 388 -14 540 -14 z "},"4":{"ha":778,"x_min":56,"x_max":724,"o":"m 500 179 l 56 179 l 56 263 l 317 917 l 433 917 l 168 274 l 500 274 l 500 560 l 607 560 l 607 274 l 724 274 l 724 179 l 607 179 l 607 0 l 500 0 l 500 179 z "},"5":{"ha":778,"x_min":88,"x_max":699,"o":"m 392 -12 q 133 18 272 -12 l 88 28 l 100 113 q 369 82 257 82 q 533 138 476 82 q 589 296 589 193 q 540 438 589 394 q 394 482 490 482 q 294 469 349 482 q 206 440 239 456 l 176 426 l 103 440 l 128 917 l 663 917 l 663 819 l 217 819 l 192 521 q 407 578 299 578 q 699 307 699 578 q 619 70 699 153 q 392 -12 539 -12 z "},"6":{"ha":778,"x_min":69,"x_max":718,"o":"m 397 -14 q 69 463 69 -14 q 162 815 69 699 q 428 931 254 931 q 642 914 540 931 l 679 907 l 669 819 q 426 836 544 836 q 244 754 308 836 q 181 519 181 672 l 215 533 q 313 561 256 549 q 410 574 369 574 q 718 289 718 574 q 634 65 718 143 q 397 -14 550 -14 m 392 81 q 552 134 497 81 q 607 286 607 188 q 554 430 607 382 q 403 478 501 478 q 304 465 360 478 q 211 439 249 453 l 179 425 q 234 172 181 263 q 392 81 288 81 z "},"7":{"ha":778,"x_min":107,"x_max":676,"o":"m 222 18 l 568 783 l 568 819 l 107 819 l 107 917 l 676 917 l 676 776 l 324 -14 l 222 18 z "},"8":{"ha":778,"x_min":44,"x_max":732,"o":"m 389 -14 q 44 233 44 -14 q 81 380 44 328 q 203 479 117 432 q 93 566 126 518 q 60 694 60 614 q 147 872 60 813 q 386 932 232 932 q 630 870 542 932 q 718 693 718 808 q 685 563 718 608 q 565 479 651 518 q 692 389 653 440 q 732 249 732 338 q 389 -14 732 -14 m 456 521 q 568 583 532 546 q 604 681 604 621 q 389 835 604 835 q 174 682 174 835 q 206 583 174 621 q 310 521 239 546 l 456 521 m 389 83 q 618 260 618 83 q 580 367 618 331 q 456 428 542 403 l 310 428 q 195 365 232 407 q 158 251 158 324 q 389 83 158 83 z "},"9":{"ha":778,"x_min":57,"x_max":707,"o":"m 343 -14 q 128 6 242 -14 l 92 11 l 101 97 q 343 81 226 81 q 596 400 593 81 q 357 347 454 347 q 57 626 57 347 q 143 849 57 767 q 375 931 229 931 q 707 442 707 931 q 617 95 707 204 q 343 -14 526 -14 m 365 442 q 561 479 451 442 l 597 492 q 375 836 593 836 q 223 780 278 836 q 168 626 168 724 q 365 442 168 442 z "}," ":{"ha":306,"x_min":0,"x_max":0,"o":""},"\u0000":{"ha":0,"x_min":0,"x_max":0,"o":""},"\r":{"ha":463,"x_min":0,"x_max":0,"o":""},"!":{"ha":343,"x_min":115,"x_max":229,"o":"m 117 961 l 226 961 l 219 317 l 124 317 l 117 961 m 115 156 l 229 156 l 229 0 l 115 0 l 115 156 z "},"\"":{"ha":518,"x_min":93,"x_max":426,"o":"m 93 961 l 197 961 l 190 653 l 97 653 l 93 961 m 322 961 l 426 961 l 419 653 l 326 653 l 322 961 z "},"#":{"ha":778,"x_min":33,"x_max":744,"o":"m 188 242 l 33 242 l 33 331 l 188 331 l 188 589 l 33 589 l 33 678 l 188 678 l 188 925 l 282 925 l 282 678 l 496 678 l 496 925 l 590 925 l 590 678 l 744 678 l 744 589 l 590 589 l 590 331 l 744 331 l 744 242 l 590 242 l 590 0 l 496 0 l 496 242 l 282 242 l 282 0 l 188 0 l 188 242 m 496 331 l 496 589 l 282 589 l 282 331 l 496 331 z "},"$":{"ha":778,"x_min":96,"x_max":686,"o":"m 353 -172 q 282 -162 282 -168 l 301 -8 q 125 14 239 -3 l 103 17 l 114 101 q 313 81 219 88 l 358 428 q 203 481 258 451 q 122 558 147 510 q 96 685 96 606 q 167 875 96 819 q 390 931 239 931 l 422 929 l 446 1108 l 517 1108 l 493 925 q 638 908 583 917 l 667 904 l 658 818 l 619 822 q 482 836 518 833 l 440 513 q 587 463 535 490 q 663 391 639 436 q 686 269 686 346 q 393 -12 686 -12 l 372 -12 l 353 -172 m 411 840 q 247 808 294 840 q 199 690 199 776 q 215 611 199 640 q 267 563 231 582 q 371 528 303 544 l 411 840 m 385 78 q 535 124 486 78 q 583 263 583 169 q 569 339 583 311 q 522 383 554 367 q 428 414 489 399 l 385 78 z "},"%":{"ha":778,"x_min":39,"x_max":739,"o":"m 215 -6 l 500 946 l 567 924 l 282 -25 l 215 -6 m 192 543 q 78 592 118 543 q 39 740 39 642 q 192 931 39 931 q 344 740 344 931 q 305 592 344 642 q 192 543 265 543 m 193 614 q 244 645 228 614 q 261 742 261 676 q 245 831 261 803 q 193 860 229 860 q 140 831 157 860 q 124 742 124 803 q 193 614 124 614 m 586 -14 q 474 36 514 -14 q 435 183 435 86 q 588 374 435 374 q 739 185 739 374 q 699 36 739 86 q 586 -14 660 -14 m 588 57 q 640 88 624 57 q 656 182 656 118 q 640 274 656 246 q 588 303 625 303 q 534 275 550 303 q 518 185 518 247 q 535 88 518 118 q 588 57 551 57 z "},"&":{"ha":956,"x_min":58,"x_max":929,"o":"m 389 -14 q 137 61 215 -14 q 58 281 58 136 q 110 463 58 400 q 274 563 161 526 q 213 653 232 608 q 194 754 194 697 q 258 918 194 863 q 438 974 321 974 q 616 919 556 974 q 676 760 676 865 q 628 611 676 669 q 463 500 579 553 l 674 292 q 713 517 704 379 l 814 515 q 750 226 794 338 l 929 57 l 867 -12 l 699 144 q 570 21 643 56 q 389 -14 497 -14 m 401 563 q 534 644 496 603 q 572 751 572 685 q 436 883 572 883 q 299 754 299 883 q 361 601 299 668 l 401 563 m 388 81 q 535 112 476 81 q 626 206 594 143 l 333 497 q 203 423 243 469 q 164 289 164 376 q 219 132 164 183 q 388 81 275 81 z "},"'":{"ha":289,"x_min":93,"x_max":197,"o":"m 93 961 l 197 961 l 190 653 l 97 653 l 93 961 z "},"(":{"ha":367,"x_min":71,"x_max":315,"o":"m 215 -174 q 71 421 71 153 q 215 1042 71 690 l 315 1042 q 224 719 264 904 q 183 410 183 535 q 219 142 183 294 q 315 -174 254 -10 l 215 -174 z "},")":{"ha":367,"x_min":51,"x_max":296,"o":"m 51 -174 q 150 149 118 8 q 182 408 182 289 q 143 724 182 550 q 51 1042 104 899 l 151 1042 q 296 421 296 689 q 151 -174 296 153 l 51 -174 z "},"*":{"ha":583,"x_min":75,"x_max":518,"o":"m 267 690 l 118 581 l 75 636 l 225 746 l 78 853 l 121 911 l 268 803 l 325 978 l 393 956 l 338 779 l 518 779 l 518 710 l 335 710 l 392 536 l 324 515 l 267 690 z "},"+":{"ha":778,"x_min":76,"x_max":701,"o":"m 339 301 l 76 301 l 76 396 l 339 396 l 339 667 l 436 667 l 436 396 l 701 396 l 701 301 l 436 301 l 436 28 l 339 28 l 339 301 z "},",":{"ha":310,"x_min":47,"x_max":226,"o":"m 111 149 l 226 149 l 133 -171 l 47 -171 l 111 149 z "},"-":{"ha":608,"x_min":94,"x_max":515,"o":"m 94 431 l 515 431 l 515 333 l 94 333 l 94 431 z "},".":{"ha":300,"x_min":93,"x_max":207,"o":"m 93 158 l 207 158 l 207 0 l 93 0 l 93 158 z "},"/":{"ha":572,"x_min":44,"x_max":529,"o":"m 44 14 l 436 983 l 529 949 l 138 -19 l 44 14 z "},":":{"ha":301,"x_min":93,"x_max":207,"o":"m 93 606 l 207 606 l 207 447 l 93 447 l 93 606 m 93 158 l 207 158 l 207 0 l 93 0 l 93 158 z "},";":{"ha":344,"x_min":67,"x_max":246,"o":"m 121 606 l 235 606 l 235 447 l 121 447 l 121 606 m 131 149 l 246 149 l 153 -171 l 67 -171 l 131 149 z "},"<":{"ha":778,"x_min":85,"x_max":663,"o":"m 85 303 l 85 394 l 663 676 l 663 568 l 192 350 l 663 128 l 663 18 l 85 303 z "},"=":{"ha":778,"x_min":89,"x_max":689,"o":"m 89 525 l 689 525 l 689 429 l 89 429 l 89 525 m 89 268 l 689 268 l 689 172 l 89 172 l 89 268 z "},">":{"ha":778,"x_min":114,"x_max":692,"o":"m 114 128 l 585 350 l 114 568 l 114 676 l 692 394 l 692 303 l 114 18 l 114 128 z "},"?":{"ha":621,"x_min":57,"x_max":569,"o":"m 229 279 q 211 364 211 315 q 241 449 211 408 q 346 554 271 489 q 421 626 397 599 q 454 681 444 653 q 464 753 464 710 q 419 849 464 818 q 279 881 375 881 q 64 849 219 881 l 57 933 q 289 975 196 975 q 501 922 433 975 q 569 753 569 869 q 560 653 569 690 q 524 583 550 615 q 447 508 499 551 q 344 408 371 444 q 317 328 317 372 l 317 279 l 229 279 m 214 157 l 328 157 l 328 1 l 214 1 l 214 157 z "},"@":{"ha":1357,"x_min":71,"x_max":1296,"o":"m 700 -282 q 424 -251 535 -282 q 233 -147 314 -219 q 71 363 71 -6 q 228 848 71 692 q 700 1004 386 1004 q 1152 863 1008 1004 q 1296 424 1296 721 l 1296 406 q 1269 152 1296 242 q 1192 27 1243 63 q 1058 -8 1142 -8 q 889 75 925 -8 q 647 -7 753 -7 q 467 65 531 -7 q 403 324 403 136 q 431 542 403 460 q 519 663 458 625 q 685 701 581 701 q 819 675 746 701 l 844 665 l 844 688 l 949 688 l 949 422 q 964 133 949 182 q 989 94 975 106 q 1017 81 1003 83 q 1065 79 1032 79 q 1149 125 1122 79 q 1183 238 1176 171 q 1190 406 1190 304 l 1190 425 q 1140 705 1190 599 q 983 862 1090 811 q 699 913 876 913 q 303 780 431 913 q 176 356 176 647 q 230 38 176 157 q 397 -135 283 -81 q 700 -190 511 -190 l 899 -176 l 903 -269 q 700 -282 772 -282 m 654 85 q 857 149 715 85 q 844 389 844 224 l 844 582 q 701 610 758 610 q 585 582 626 610 q 526 496 543 554 q 508 339 508 438 q 654 85 508 85 z "},"A":{"ha":828,"x_min":33,"x_max":794,"o":"m 619 247 l 208 247 l 139 0 l 33 0 l 297 961 l 531 961 l 794 0 l 689 0 l 619 247 m 232 343 l 596 343 l 450 869 l 378 869 l 232 343 z "},"B":{"ha":856,"x_min":118,"x_max":782,"o":"m 118 961 l 467 961 q 683 901 613 961 q 753 713 753 840 q 722 577 753 628 q 629 496 692 526 q 744 413 707 468 q 782 263 782 357 q 706 63 782 126 q 485 0 631 0 l 118 0 l 118 961 m 472 535 q 601 577 560 535 q 643 704 643 619 q 600 828 643 790 q 463 867 557 867 l 225 867 l 225 535 l 472 535 m 481 94 q 624 135 575 94 q 674 265 674 175 q 619 402 674 363 q 474 442 565 442 l 225 442 l 225 94 l 481 94 z "},"C":{"ha":756,"x_min":82,"x_max":699,"o":"m 446 -14 q 219 41 299 -14 q 111 201 140 96 q 82 481 82 307 q 111 759 82 653 q 217 920 140 865 q 439 975 294 975 q 699 944 551 975 l 694 854 q 453 879 554 879 q 289 840 344 879 q 213 715 233 801 q 193 465 193 629 q 212 244 193 324 q 289 123 231 164 q 465 82 347 82 q 694 107 561 82 l 699 15 q 446 -14 556 -14 z "},"D":{"ha":896,"x_min":118,"x_max":817,"o":"m 461 961 q 685 897 607 961 q 790 735 764 833 q 817 504 817 636 q 730 120 817 240 q 461 0 643 0 l 118 0 l 118 961 l 461 961 m 461 94 q 707 494 707 94 q 647 778 707 689 q 461 867 588 867 l 225 867 l 225 94 l 461 94 z "},"E":{"ha":768,"x_min":118,"x_max":703,"o":"m 225 867 l 225 535 l 619 535 l 619 442 l 225 442 l 225 94 l 703 94 l 703 0 l 118 0 l 118 961 l 703 961 l 703 867 l 225 867 z "},"F":{"ha":731,"x_min":118,"x_max":693,"o":"m 225 867 l 225 492 l 621 492 l 621 397 l 225 397 l 225 0 l 118 0 l 118 961 l 693 961 l 693 867 l 225 867 z "},"G":{"ha":856,"x_min":79,"x_max":764,"o":"m 451 -14 q 231 39 313 -14 q 115 199 150 92 q 79 481 79 307 q 115 761 79 653 q 231 922 150 869 q 449 975 311 975 q 717 947 574 975 l 764 939 l 760 850 q 461 879 588 879 q 297 840 356 879 q 214 715 238 800 q 190 481 190 629 q 214 247 190 332 q 296 121 238 161 q 460 81 354 81 q 658 100 553 81 l 658 396 l 499 396 l 499 492 l 764 492 l 764 19 q 451 -14 589 -14 z "},"H":{"ha":938,"x_min":118,"x_max":819,"o":"m 819 961 l 819 0 l 714 0 l 714 435 l 225 435 l 225 0 l 118 0 l 118 961 l 225 961 l 225 531 l 714 531 l 714 961 l 819 961 z "},"I":{"ha":342,"x_min":118,"x_max":225,"o":"m 118 961 l 225 961 l 225 0 l 118 0 l 118 961 z "},"J":{"ha":401,"x_min":25,"x_max":289,"o":"m 25 -4 q 128 6 97 -4 q 170 46 158 15 q 182 147 182 76 l 182 961 l 288 961 l 289 132 q 259 -24 289 26 q 176 -87 229 -74 q 25 -100 124 -100 l 25 -4 z "},"K":{"ha":790,"x_min":118,"x_max":767,"o":"m 385 425 l 225 419 l 225 0 l 118 0 l 118 961 l 225 961 l 225 514 l 383 519 l 629 961 l 751 961 l 476 478 l 767 0 l 640 0 l 385 425 z "},"L":{"ha":665,"x_min":118,"x_max":647,"o":"m 647 96 l 647 0 l 118 0 l 118 961 l 225 961 l 225 96 l 647 96 z "},"M":{"ha":1167,"x_min":118,"x_max":1049,"o":"m 1049 961 l 1049 0 l 942 0 l 942 847 l 922 847 l 643 35 l 524 35 l 244 847 l 225 847 l 225 0 l 118 0 l 118 961 l 311 961 l 583 147 l 856 961 l 1049 961 z "},"N":{"ha":939,"x_min":118,"x_max":821,"o":"m 821 961 l 821 0 l 625 0 l 251 867 l 225 867 l 225 0 l 118 0 l 118 961 l 318 961 l 688 94 l 715 94 l 715 961 l 821 961 z "},"O":{"ha":917,"x_min":79,"x_max":839,"o":"m 460 -14 q 233 38 317 -14 q 115 195 150 89 q 79 476 79 301 q 115 759 79 650 q 235 922 151 868 q 458 975 318 975 q 682 922 599 975 q 802 759 765 868 q 839 474 839 650 q 803 192 839 297 q 685 36 768 86 q 460 -14 603 -14 m 460 81 q 623 119 565 81 q 704 242 681 158 q 728 474 728 326 q 703 708 728 621 q 621 838 679 796 q 458 881 563 881 q 296 839 354 881 q 213 710 238 797 q 189 476 189 622 q 213 245 189 331 q 295 120 236 160 q 460 81 354 81 z "},"P":{"ha":824,"x_min":118,"x_max":776,"o":"m 118 961 l 469 961 q 701 885 626 961 q 776 651 776 810 q 469 324 776 324 l 225 324 l 225 0 l 118 0 l 118 961 m 468 418 q 667 651 667 418 q 619 815 667 764 q 468 867 572 867 l 225 867 l 225 418 l 468 418 z "},"Q":{"ha":917,"x_min":79,"x_max":839,"o":"m 575 -1 q 458 -14 529 -14 q 233 38 315 -14 q 115 195 150 89 q 79 476 79 301 q 115 759 79 650 q 235 922 151 868 q 458 975 318 975 q 682 922 599 975 q 802 759 765 868 q 839 476 839 650 q 802 192 839 297 q 679 36 765 86 l 797 -154 l 697 -201 l 575 -1 m 460 81 q 623 119 565 81 q 704 242 681 158 q 728 474 728 326 q 703 708 728 621 q 621 838 679 796 q 458 881 563 881 q 296 839 354 881 q 213 710 238 797 q 189 476 189 622 q 213 245 189 331 q 295 120 236 160 q 460 81 354 81 z "},"R":{"ha":856,"x_min":118,"x_max":789,"o":"m 118 961 l 474 961 q 704 890 628 961 q 781 669 781 818 q 604 390 781 446 l 789 0 l 671 0 l 497 368 l 225 368 l 225 0 l 118 0 l 118 961 m 475 463 q 671 665 671 463 q 474 867 671 867 l 225 867 l 225 463 l 475 463 z "},"S":{"ha":753,"x_min":67,"x_max":686,"o":"m 379 -12 q 125 11 282 -12 l 75 18 l 86 107 q 374 82 276 82 q 579 275 579 82 q 560 358 579 328 q 497 408 542 389 q 365 444 451 428 q 188 499 251 468 q 96 581 125 529 q 67 718 67 632 q 376 976 67 976 q 667 949 483 976 l 657 858 q 383 882 457 882 q 175 725 175 882 q 195 634 175 665 q 264 583 215 603 q 418 540 313 564 q 577 488 521 517 q 660 410 633 458 q 686 283 686 363 q 379 -12 686 -12 z "},"T":{"ha":731,"x_min":18,"x_max":713,"o":"m 314 865 l 18 865 l 18 961 l 713 961 l 713 865 l 419 865 l 419 0 l 314 0 l 314 865 z "},"U":{"ha":894,"x_min":111,"x_max":783,"o":"m 446 -14 q 194 59 276 -14 q 111 292 111 132 l 111 961 l 218 961 l 218 289 q 443 81 218 81 q 619 131 561 81 q 678 289 678 181 l 678 961 l 783 961 l 783 292 q 699 60 783 133 q 446 -14 615 -14 z "},"V":{"ha":808,"x_min":33,"x_max":775,"o":"m 33 961 l 144 961 l 365 94 l 443 94 l 664 961 l 775 961 l 524 0 l 285 0 l 33 961 z "},"W":{"ha":1231,"x_min":42,"x_max":1188,"o":"m 42 961 l 153 961 l 317 94 l 357 94 l 553 953 l 678 953 l 874 94 l 914 94 l 1078 961 l 1188 961 l 993 0 l 797 0 l 615 821 l 433 0 l 238 0 l 42 961 z "},"X":{"ha":775,"x_min":26,"x_max":750,"o":"m 324 471 l 26 961 l 147 961 l 390 550 l 635 961 l 750 961 l 454 474 l 750 0 l 629 0 l 388 399 l 142 0 l 26 0 l 324 471 z "},"Y":{"ha":747,"x_min":14,"x_max":733,"o":"m 321 404 l 14 961 l 135 961 l 374 511 l 613 961 l 733 961 l 428 404 l 428 0 l 321 0 l 321 404 z "},"Z":{"ha":744,"x_min":60,"x_max":685,"o":"m 60 122 l 561 836 l 561 867 l 60 867 l 60 961 l 685 961 l 685 836 l 182 122 l 182 94 l 685 94 l 685 -1 l 60 -1 l 60 122 z "},"[":{"ha":457,"x_min":110,"x_max":401,"o":"m 110 1040 l 401 1040 l 401 947 l 215 947 l 215 -78 l 401 -78 l 401 -171 l 110 -171 l 110 1040 z "},"\\":{"ha":606,"x_min":42,"x_max":563,"o":"m 42 942 l 135 982 l 563 19 l 469 -19 l 42 942 z "},"]":{"ha":457,"x_min":56,"x_max":347,"o":"m 56 -171 l 56 -78 l 242 -78 l 242 947 l 56 947 l 56 1040 l 347 1040 l 347 -171 l 56 -171 z "},"^":{"ha":778,"x_min":81,"x_max":696,"o":"m 338 917 l 431 917 l 696 443 l 585 443 l 386 814 l 192 443 l 81 443 l 338 917 z "},"_":{"ha":878,"x_min":142,"x_max":736,"o":"m 142 -128 l 736 -128 l 736 -219 l 142 -219 l 142 -128 z "},"`":{"ha":328,"x_min":-1,"x_max":335,"o":"m -1 939 l 35 1028 l 335 892 l 306 821 l -1 939 z "},"a":{"ha":696,"x_min":56,"x_max":671,"o":"m 251 -14 q 106 40 156 -14 q 56 196 56 94 q 106 344 56 296 q 268 404 157 393 l 486 425 l 486 485 q 372 617 486 617 q 99 599 260 617 l 94 678 q 365 708 243 708 q 537 655 483 708 q 590 485 590 601 l 590 129 q 671 68 594 78 l 667 -14 q 501 42 557 -14 q 251 -14 378 -14 m 268 74 q 454 106 361 74 l 486 117 l 486 346 l 281 326 q 190 290 218 321 q 163 201 163 260 q 268 74 163 74 z "},"b":{"ha":731,"x_min":100,"x_max":660,"o":"m 325 -12 q 139 -3 233 -12 l 100 1 l 100 997 l 203 997 l 203 660 q 414 708 311 708 q 558 673 506 708 q 635 560 611 638 q 660 351 660 482 q 629 131 660 208 q 527 20 599 53 q 325 -12 456 -12 m 336 79 q 471 106 424 79 q 536 192 518 133 q 554 354 554 250 q 539 509 554 453 q 488 590 524 565 q 390 615 453 615 q 203 575 314 615 l 203 86 q 336 79 303 79 z "},"c":{"ha":606,"x_min":71,"x_max":550,"o":"m 350 -14 q 185 23 246 -14 q 97 138 124 60 q 71 347 71 217 q 126 611 71 513 q 342 710 182 710 q 428 706 383 710 q 549 688 472 701 l 544 603 q 376 615 435 615 q 255 591 297 615 q 195 509 213 567 q 178 344 178 451 q 194 187 178 243 q 255 105 211 131 q 382 79 299 79 l 546 92 l 550 6 q 350 -14 417 -14 z "},"d":{"ha":735,"x_min":69,"x_max":633,"o":"m 315 -14 q 126 72 183 -14 q 69 335 69 157 q 138 621 69 533 q 365 708 207 708 q 531 690 444 708 l 531 997 l 633 997 l 633 0 l 531 0 l 531 47 q 315 -14 424 -14 m 335 79 q 422 91 375 79 q 503 118 469 103 l 531 131 l 531 601 q 374 618 440 618 q 220 554 264 618 q 176 343 176 490 q 212 144 176 208 q 335 79 247 79 z "},"e":{"ha":701,"x_min":69,"x_max":639,"o":"m 360 -14 q 135 69 201 -14 q 69 329 69 151 q 140 615 69 522 q 363 708 211 708 q 570 628 501 708 q 639 383 639 549 l 633 304 l 175 304 q 194 169 175 218 q 258 99 213 121 q 383 78 303 78 q 476 80 424 78 q 572 86 529 82 l 613 90 l 615 8 q 360 -14 461 -14 m 535 388 q 494 567 535 514 q 363 621 454 621 q 221 565 267 621 q 174 388 175 508 l 535 388 z "},"f":{"ha":460,"x_min":42,"x_max":457,"o":"m 129 604 l 42 604 l 42 694 l 129 694 l 129 757 q 147 910 129 856 q 206 988 165 965 q 317 1011 246 1011 l 457 1001 l 456 915 q 348 919 368 918 q 322 919 328 919 q 252 878 271 919 q 233 756 233 836 l 233 694 l 435 694 l 435 604 l 233 604 l 233 0 l 129 0 l 129 604 z "},"g":{"ha":714,"x_min":69,"x_max":688,"o":"m 354 -326 q 134 -280 199 -326 q 69 -125 69 -233 q 80 -52 69 -81 q 113 -1 90 -24 q 179 56 135 21 q 150 93 160 68 q 140 146 140 118 q 149 185 140 164 q 188 261 157 207 q 78 469 78 310 q 143 649 78 590 q 340 708 208 708 q 482 690 404 708 l 688 696 l 688 607 l 556 610 q 590 552 579 586 q 601 465 601 518 q 538 289 601 342 q 336 236 474 236 q 265 242 293 236 q 247 193 254 214 q 240 157 240 172 q 269 110 240 121 q 357 99 297 99 l 411 99 q 559 85 503 99 q 646 28 615 71 q 676 -94 676 -14 q 601 -271 676 -215 q 354 -326 526 -326 m 340 319 q 461 354 425 319 q 497 472 497 389 q 461 589 497 554 q 342 624 425 624 q 219 588 256 624 q 182 471 182 553 q 219 354 182 389 q 340 319 256 319 m 364 -239 q 525 -208 479 -239 q 571 -100 571 -176 q 556 -33 571 -56 q 504 -1 540 -10 q 400 7 468 7 l 250 14 q 188 -44 204 -19 q 172 -111 172 -69 q 215 -211 172 -183 q 364 -239 257 -239 z "},"h":{"ha":746,"x_min":100,"x_max":653,"o":"m 100 997 l 204 997 l 204 656 q 317 696 265 683 q 424 708 369 708 q 563 676 514 708 q 633 569 613 643 q 653 367 653 496 l 653 0 l 549 0 l 549 364 q 537 519 549 467 q 492 593 525 571 q 396 615 460 615 q 231 583 317 615 l 204 574 l 204 0 l 100 0 l 100 997 z "},"i":{"ha":303,"x_min":100,"x_max":203,"o":"m 100 0 m 100 694 l 203 694 l 203 0 l 100 0 l 100 694 m 100 972 l 203 972 l 203 851 l 100 851 l 100 972 z "},"j":{"ha":304,"x_min":-68,"x_max":204,"o":"m 0 0 m -68 -229 q 42 -155 7 -186 q 89 -86 76 -124 q 101 18 101 -49 l 101 694 l 204 694 l 204 17 q 185 -124 204 -71 q 117 -219 165 -178 q -26 -310 69 -261 l -68 -229 m 101 972 l 204 972 l 204 851 l 101 851 l 101 972 z "},"k":{"ha":665,"x_min":100,"x_max":639,"o":"m 100 997 l 204 997 l 204 408 l 313 414 l 511 694 l 629 694 l 403 375 l 639 0 l 521 0 l 314 322 l 204 318 l 204 0 l 100 0 l 100 997 z "},"l":{"ha":321,"x_min":108,"x_max":213,"o":"m 108 997 l 213 997 l 213 0 l 108 0 l 108 997 z "},"m":{"ha":1161,"x_min":100,"x_max":1068,"o":"m 100 694 l 203 694 l 203 646 q 411 708 307 708 q 514 691 468 708 q 586 638 560 674 q 707 688 638 668 q 849 708 776 708 q 981 674 933 708 q 1048 567 1028 640 q 1068 367 1068 493 l 1068 0 l 964 0 l 964 364 q 953 515 964 463 q 912 592 942 568 q 824 615 882 615 q 728 603 776 615 q 649 576 679 592 l 622 564 q 640 361 640 519 l 640 0 l 536 0 l 536 358 q 525 515 536 461 q 485 592 514 568 q 397 615 456 615 q 304 603 351 615 q 228 576 257 592 l 204 564 l 204 0 l 100 0 l 100 694 z "},"n":{"ha":746,"x_min":100,"x_max":653,"o":"m 100 694 l 203 694 l 203 646 q 317 694 265 681 q 426 708 369 708 q 564 675 515 708 q 633 569 613 642 q 653 367 653 496 l 653 0 l 550 0 l 550 364 q 538 515 550 463 q 496 592 526 568 q 407 615 465 615 q 310 603 360 615 q 231 576 261 592 l 204 564 l 204 0 l 100 0 l 100 694 z "},"o":{"ha":733,"x_min":69,"x_max":664,"o":"m 367 -14 q 190 23 256 -14 q 97 138 125 60 q 69 343 69 215 q 99 555 69 475 q 193 672 128 635 q 367 708 258 708 q 541 671 476 708 q 635 554 606 633 q 664 343 664 475 q 636 138 664 215 q 544 23 608 60 q 367 -14 479 -14 m 368 76 q 485 102 444 76 q 541 184 525 128 q 557 343 557 240 q 540 510 557 451 q 483 593 524 568 q 368 618 443 618 q 252 593 293 618 q 194 510 211 568 q 176 343 176 451 q 192 185 176 242 q 249 102 208 128 q 368 76 290 76 z "},"p":{"ha":732,"x_min":100,"x_max":663,"o":"m 100 694 l 203 694 l 203 644 q 308 692 257 676 q 415 708 358 708 q 603 623 544 708 q 663 351 663 538 q 632 140 663 219 q 535 23 601 60 q 356 -14 468 -14 q 204 1 278 -14 l 204 -308 l 100 -308 l 100 694 m 357 76 q 511 140 465 76 q 557 347 557 204 q 517 552 557 489 q 397 615 478 615 q 310 602 357 615 q 231 574 264 589 l 204 560 l 204 92 q 357 76 307 76 z "},"q":{"ha":731,"x_min":69,"x_max":629,"o":"m 526 32 q 326 -14 429 -14 q 130 69 190 -14 q 69 342 69 151 q 101 556 69 476 q 203 672 132 636 q 397 708 274 708 l 629 694 l 629 -308 l 526 -308 l 526 32 m 347 79 q 501 110 424 79 l 526 119 l 526 610 q 396 618 442 618 q 262 589 310 618 q 194 500 214 560 q 175 340 175 440 q 214 139 175 199 q 347 79 253 79 z "},"r":{"ha":481,"x_min":100,"x_max":457,"o":"m 100 694 l 203 694 l 203 600 q 457 710 322 682 l 457 604 q 340 570 403 593 q 239 528 276 547 l 204 510 l 204 0 l 100 0 l 100 694 z "},"s":{"ha":646,"x_min":63,"x_max":586,"o":"m 318 -14 q 114 6 235 -14 l 72 13 l 78 103 q 317 79 240 79 q 441 106 400 79 q 482 193 482 133 q 462 258 482 236 q 410 290 442 281 q 322 308 379 300 l 288 314 q 157 347 204 328 q 86 402 110 367 q 63 500 63 438 q 131 660 63 613 q 324 707 199 707 q 525 689 422 707 l 564 682 l 561 593 q 326 615 411 615 q 206 590 246 615 q 167 513 167 565 q 186 455 167 475 q 237 426 206 435 q 325 407 268 417 l 360 400 q 493 365 446 385 q 563 307 540 344 q 586 203 586 269 q 520 38 586 90 q 318 -14 454 -14 z "},"t":{"ha":488,"x_min":38,"x_max":469,"o":"m 321 -15 q 210 8 250 -15 q 153 85 171 31 q 136 239 136 140 l 136 604 l 38 604 l 38 694 l 136 694 l 136 907 l 239 907 l 239 694 l 460 694 l 460 604 l 239 604 l 239 272 q 244 156 239 194 q 272 98 250 118 q 339 78 293 78 l 463 86 l 469 0 q 321 -15 371 -15 z "},"u":{"ha":738,"x_min":93,"x_max":638,"o":"m 317 -14 q 180 19 228 -14 q 113 125 132 51 q 93 332 93 199 l 93 694 l 197 694 l 197 333 q 208 176 197 229 q 249 101 219 124 q 339 79 278 79 q 533 131 433 79 l 533 694 l 638 694 l 638 0 l 533 0 l 533 49 q 428 1 476 15 q 317 -14 379 -14 z "},"v":{"ha":668,"x_min":35,"x_max":635,"o":"m 35 694 l 146 694 l 308 90 l 360 90 l 528 694 l 635 694 l 439 0 l 231 0 l 35 694 z "},"w":{"ha":1058,"x_min":43,"x_max":1015,"o":"m 43 694 l 147 694 l 288 90 l 310 90 l 475 681 l 583 681 l 749 90 l 772 90 l 911 694 l 1015 694 l 850 0 l 676 0 l 529 543 l 382 0 l 208 0 l 43 694 z "},"x":{"ha":628,"x_min":31,"x_max":597,"o":"m 249 347 l 31 694 l 144 694 l 314 422 l 483 694 l 597 694 l 376 350 l 596 0 l 482 0 l 314 271 l 144 0 l 31 0 l 249 347 z "},"y":{"ha":671,"x_min":35,"x_max":638,"o":"m 335 0 l 232 0 l 35 694 l 139 694 l 313 90 l 358 90 l 533 694 l 638 694 l 349 -308 l 244 -308 l 335 0 z "},"z":{"ha":632,"x_min":58,"x_max":574,"o":"m 58 93 l 447 601 l 58 601 l 58 694 l 574 694 l 574 601 l 185 93 l 574 93 l 574 0 l 58 0 l 58 93 z "},"{":{"ha":489,"x_min":33,"x_max":433,"o":"m 431 -178 q 231 -116 290 -172 q 172 65 172 -60 l 182 235 q 147 331 182 294 q 33 390 113 368 l 33 475 q 147 530 111 493 q 182 626 182 567 l 172 804 q 231 988 172 932 q 432 1049 290 1043 l 433 958 q 309 916 344 953 q 274 799 274 879 l 283 628 q 271 531 283 567 q 227 473 258 496 q 138 433 196 450 q 252 366 221 408 q 283 236 283 324 l 274 75 q 309 -44 274 -6 q 433 -87 344 -82 l 431 -178 z "},"|":{"ha":319,"x_min":108,"x_max":211,"o":"m 108 997 l 211 997 l 211 -308 l 108 -308 l 108 997 z "},"}":{"ha":489,"x_min":56,"x_max":456,"o":"m 56 -87 q 180 -44 144 -82 q 215 75 215 -6 l 206 236 q 237 366 206 324 q 351 433 268 408 q 262 473 293 450 q 218 531 231 496 q 206 628 206 567 l 215 799 q 180 916 215 879 q 56 958 144 953 l 57 1049 q 258 988 199 1043 q 317 804 317 932 l 307 626 q 342 530 307 567 q 456 475 378 493 l 456 390 q 342 331 376 368 q 307 235 307 294 l 317 65 q 258 -116 317 -60 q 58 -178 199 -172 l 56 -87 z "},"~":{"ha":778,"x_min":93,"x_max":688,"o":"m 526 271 q 385 314 488 271 q 254 357 281 357 q 194 342 231 357 q 132 308 158 326 l 108 292 l 93 378 q 254 451 179 451 q 399 410 294 451 q 528 367 499 367 q 650 414 578 367 l 674 431 l 688 346 q 526 271 600 271 z "}," ":{"ha":306,"x_min":0,"x_max":0,"o":""},"¡":{"ha":317,"x_min":100,"x_max":214,"o":"m 214 694 l 214 539 l 100 539 l 100 694 l 214 694 m 204 378 l 211 -267 l 101 -267 l 108 378 l 204 378 z "},"¢":{"ha":778,"x_min":140,"x_max":618,"o":"m 386 50 q 198 124 256 57 q 140 342 140 190 q 200 567 140 494 q 386 646 260 639 l 386 810 l 476 810 l 476 642 l 617 625 l 613 542 q 433 551 510 551 q 290 505 331 551 q 249 344 249 458 q 266 224 249 267 q 325 162 283 181 q 442 143 367 143 l 614 153 l 618 68 q 476 53 529 54 l 476 -112 l 386 -112 l 386 50 z "},"£":{"ha":778,"x_min":111,"x_max":669,"o":"m 111 92 l 229 92 l 229 489 l 136 489 l 136 579 l 229 579 l 229 656 q 249 823 229 764 q 313 906 269 882 q 435 931 357 931 q 589 914 508 931 l 619 907 l 618 822 q 443 838 503 838 q 375 821 399 838 q 341 764 351 804 q 331 649 331 724 l 331 579 l 568 579 l 568 489 l 331 489 l 331 92 l 544 92 l 651 114 l 669 25 l 556 0 l 111 0 l 111 92 z "},"¤":{"ha":778,"x_min":81,"x_max":697,"o":"m 81 115 l 178 213 q 138 349 138 276 q 178 488 138 422 l 81 585 l 154 658 l 251 560 q 388 601 313 601 q 526 560 463 601 l 624 658 l 697 585 l 599 488 q 640 349 640 424 q 599 213 640 274 l 697 115 l 624 42 l 526 140 q 388 99 463 99 q 251 140 313 99 l 154 42 l 81 115 m 389 190 q 501 238 454 190 q 549 350 549 285 q 501 463 549 415 q 389 510 454 510 q 276 463 324 510 q 229 350 229 415 q 276 238 229 285 q 389 190 324 190 z "},"¥":{"ha":778,"x_min":32,"x_max":746,"o":"m 338 226 l 81 226 l 81 317 l 338 317 l 338 438 l 79 438 l 79 528 l 274 528 l 32 917 l 151 917 l 390 542 l 626 917 l 746 917 l 508 528 l 697 528 l 697 438 l 444 438 l 444 317 l 699 317 l 699 226 l 444 226 l 444 0 l 338 0 l 338 226 z "},"¦":{"ha":325,"x_min":111,"x_max":214,"o":"m 111 997 l 214 997 l 214 478 l 111 478 l 111 997 m 111 217 l 214 217 l 214 -308 l 111 -308 l 111 217 z "},"§":{"ha":693,"x_min":72,"x_max":615,"o":"m 340 -208 q 139 -192 251 -208 l 97 -185 l 107 -97 q 335 -118 260 -118 q 506 19 506 -118 q 465 104 506 81 q 303 149 424 126 q 169 188 218 164 q 96 251 119 211 q 72 354 72 290 q 99 456 72 403 q 153 529 126 508 q 92 683 92 574 q 358 904 92 904 q 550 886 433 904 l 586 881 l 581 793 q 351 814 428 814 q 233 783 272 814 q 193 686 193 751 q 211 617 193 642 q 271 576 229 592 q 396 546 313 561 q 524 509 478 531 q 593 449 571 488 q 615 349 615 411 q 554 164 615 254 q 606 25 606 121 q 340 -208 606 -208 m 475 203 q 497 258 485 215 q 510 344 510 300 q 475 419 510 394 q 350 461 440 444 q 222 492 265 475 q 176 363 176 415 q 211 282 176 308 q 340 239 246 256 q 475 203 439 219 z "},"¨":{"ha":328,"x_min":-17,"x_max":363,"o":"m -17 988 l 83 988 l 83 863 l -17 863 l -17 988 m 261 988 l 363 988 l 363 863 l 261 863 l 261 988 z "},"©":{"ha":896,"x_min":82,"x_max":814,"o":"m 450 224 q 262 274 346 224 q 130 411 178 324 q 82 604 82 499 q 130 796 82 710 q 261 932 178 882 q 449 982 344 982 q 636 931 553 982 q 767 794 719 881 q 814 601 814 707 q 767 410 814 496 q 637 274 719 324 q 450 224 554 224 m 447 285 q 602 327 532 285 q 713 442 672 369 q 753 603 753 515 q 713 764 753 690 q 603 880 672 838 q 449 922 533 922 q 231 829 318 922 q 143 603 143 736 q 183 442 143 515 q 292 327 222 369 q 447 285 363 285 m 453 383 q 327 435 364 383 q 290 603 290 486 q 328 770 290 719 q 454 821 365 821 q 547 811 508 821 l 561 807 l 556 733 q 456 742 504 742 q 392 712 408 742 q 375 606 375 682 q 393 495 375 528 q 458 463 411 463 l 556 472 l 561 400 q 453 383 510 383 z "},"ª":{"ha":536,"x_min":75,"x_max":461,"o":"m 203 496 q 108 530 140 496 q 75 624 75 564 q 208 743 75 735 l 331 751 l 331 782 q 314 824 331 811 q 263 838 297 838 l 103 828 l 100 894 q 271 915 196 915 q 383 884 347 915 q 419 778 419 853 l 419 588 q 461 564 433 572 l 458 496 q 384 503 407 496 q 343 532 361 511 q 203 496 264 496 m 217 571 q 331 594 260 571 l 331 688 l 224 681 q 180 665 193 678 q 167 625 167 653 q 217 571 167 571 z "},"«":{"ha":749,"x_min":63,"x_max":656,"o":"m 63 303 l 63 386 l 325 585 l 325 478 l 153 347 l 325 201 l 325 93 l 63 303 m 393 303 l 393 386 l 656 585 l 656 478 l 483 347 l 656 201 l 656 93 l 393 303 z "},"¬":{"ha":778,"x_min":90,"x_max":685,"o":"m 588 381 l 90 381 l 90 475 l 685 475 l 685 163 l 588 163 l 588 381 z "},"®":{"ha":896,"x_min":82,"x_max":814,"o":"m 450 224 q 262 274 346 224 q 130 411 178 324 q 82 604 82 499 q 130 796 82 710 q 261 932 178 882 q 449 982 344 982 q 636 932 553 982 q 767 795 719 882 q 814 603 814 708 q 767 410 814 497 q 637 274 719 324 q 450 224 554 224 m 449 285 q 603 327 533 285 q 713 442 672 369 q 753 603 753 515 q 713 764 753 690 q 603 880 672 838 q 449 922 533 922 q 294 880 364 922 q 183 765 224 838 q 143 604 143 692 q 183 443 143 517 q 294 327 224 369 q 449 285 364 285 m 296 813 l 449 813 q 607 690 607 813 q 591 599 607 629 q 536 551 575 569 l 613 392 l 528 392 l 458 540 l 376 540 l 376 392 l 296 392 l 296 813 m 457 606 q 511 622 494 606 q 528 676 528 639 q 442 747 528 747 l 375 747 l 375 606 l 457 606 z "},"¯":{"ha":328,"x_min":-19,"x_max":363,"o":"m -19 949 l 363 949 l 363 867 l -19 867 l -19 949 z "},"°":{"ha":778,"x_min":192,"x_max":586,"o":"m 389 583 q 247 638 301 583 q 192 779 192 692 q 247 921 192 867 q 389 975 301 975 q 531 921 476 975 q 586 779 586 867 q 531 638 586 692 q 389 583 476 583 m 389 650 q 482 685 446 650 q 518 779 518 721 q 482 872 518 836 q 389 908 446 908 q 297 872 332 908 q 263 779 263 836 q 297 685 263 721 q 389 650 332 650 z "},"±":{"ha":778,"x_min":76,"x_max":701,"o":"m 339 407 l 76 407 l 76 501 l 339 501 l 339 676 l 436 676 l 436 501 l 701 501 l 701 407 l 436 407 l 436 231 l 339 231 l 339 407 m 76 147 l 701 147 l 701 53 l 76 53 l 76 147 z "},"²":{"ha":389,"x_min":42,"x_max":332,"o":"m 42 740 l 164 861 q 235 976 235 931 q 167 1028 235 1028 l 49 1015 l 46 1094 q 194 1111 126 1111 q 326 985 326 1111 q 308 906 326 940 q 242 829 289 872 l 154 744 l 332 744 l 332 664 l 42 664 l 42 740 z "},"³":{"ha":389,"x_min":42,"x_max":346,"o":"m 42 664 l 47 742 q 192 731 132 731 q 256 790 256 731 q 190 849 256 849 l 100 849 l 100 922 l 190 922 q 227 940 211 922 q 243 983 243 958 q 181 1031 243 1031 l 53 1021 l 47 1097 q 189 1111 125 1111 q 335 994 335 1111 q 281 893 335 925 q 331 857 315 881 q 346 785 346 833 q 199 650 346 650 l 42 664 z "},"´":{"ha":372,"x_min":36,"x_max":372,"o":"m 36 892 l 336 1028 l 372 939 l 65 821 l 36 892 z "},"µ":{"ha":778,"x_min":117,"x_max":661,"o":"m 117 694 l 221 694 l 221 333 q 232 175 221 228 q 274 101 243 122 q 367 79 304 79 q 456 92 408 79 q 532 118 503 104 l 557 131 l 557 694 l 661 694 l 661 0 l 557 0 l 557 49 q 363 -14 453 -14 q 221 10 272 -14 l 221 -308 l 117 -308 l 117 694 z "},"¶":{"ha":824,"x_min":49,"x_max":765,"o":"m 317 450 l 307 450 q 174 482 233 450 q 82 572 115 514 q 49 704 49 631 q 82 837 49 778 q 175 928 115 896 q 308 961 235 961 l 765 961 l 765 871 l 665 871 l 665 0 l 571 0 l 571 871 l 410 871 l 410 0 l 317 0 l 317 450 z "},"·":{"ha":301,"x_min":93,"x_max":207,"o":"m 93 476 l 207 476 l 207 318 l 93 318 l 93 476 z "},"¸":{"ha":365,"x_min":58,"x_max":307,"o":"m 178 -301 q 75 -294 119 -301 l 58 -292 l 63 -225 q 154 -229 117 -229 q 215 -176 215 -229 q 154 -129 215 -129 l 96 -129 l 96 1 l 153 1 l 153 -68 q 272 -91 238 -68 q 307 -176 307 -114 q 178 -301 307 -301 z "},"¹":{"ha":389,"x_min":44,"x_max":268,"o":"m 179 1000 l 85 935 l 44 1000 l 185 1097 l 268 1097 l 268 664 l 179 664 l 179 1000 z "},"º":{"ha":528,"x_min":74,"x_max":453,"o":"m 265 496 q 74 708 74 496 q 121 865 74 815 q 265 915 168 915 q 407 865 361 915 q 453 708 453 815 q 265 496 453 496 m 265 581 q 337 610 317 581 q 357 708 357 639 q 337 803 357 776 q 265 831 317 831 q 191 803 213 831 q 169 708 169 775 q 192 610 169 640 q 265 581 214 581 z "},"»":{"ha":749,"x_min":93,"x_max":686,"o":"m 93 201 l 265 347 l 93 478 l 93 585 l 356 386 l 356 303 l 93 93 l 93 201 m 424 201 l 596 347 l 424 478 l 424 585 l 686 386 l 686 303 l 424 93 l 424 201 z "},"¼":{"ha":778,"x_min":-311,"x_max":743,"o":"m 289 881 l 268 847 l 268 664 l 179 664 l 179 704 l -257 4 l -311 39 l 179 829 l 179 1000 l 85 935 l 44 1000 l 185 1097 l 268 1097 l 268 894 l 289 881 m 743 8 l 743 -72 l 706 -72 l 706 -139 l 618 -139 l 618 -72 l 422 -72 l 422 3 l 518 294 l 615 294 l 514 8 l 618 8 l 625 132 l 706 132 l 706 8 l 743 8 z "},"½":{"ha":778,"x_min":-311,"x_max":721,"o":"m 289 881 l 268 847 l 268 664 l 179 664 l 179 704 l -257 4 l -311 39 l 179 829 l 179 1000 l 85 935 l 44 1000 l 185 1097 l 268 1097 l 268 894 l 289 881 m 721 -58 l 721 -139 l 431 -139 l 431 -62 l 553 58 q 624 174 624 128 q 556 225 624 225 l 438 213 l 435 292 q 583 308 517 308 q 715 182 715 308 q 697 103 715 138 q 631 26 678 69 l 543 -58 l 721 -58 z "},"¾":{"ha":778,"x_min":-311,"x_max":735,"o":"m 0 0 m -311 39 l 233 917 l 289 881 l -257 4 l -311 39 m 229 -72 l 33 -72 l 33 3 l 129 294 l 226 294 l 125 8 l 229 8 l 236 132 l 317 132 l 317 8 l 354 8 l 354 -72 l 317 -72 l 317 -139 l 229 -139 l 229 -72 m 431 664 l 436 742 q 581 731 521 731 q 644 790 644 731 q 579 849 644 849 l 489 849 l 489 922 l 579 922 q 616 940 600 922 q 632 983 632 958 q 569 1031 632 1031 l 442 1021 l 436 1097 q 578 1111 514 1111 q 724 994 724 1111 q 669 893 724 925 q 719 857 704 881 q 735 785 735 833 q 588 650 735 650 l 431 664 z "},"¿":{"ha":613,"x_min":53,"x_max":565,"o":"m 408 539 l 294 539 l 294 694 l 408 694 l 408 539 m 393 417 q 411 332 411 381 q 381 247 411 288 q 276 142 351 207 q 201 70 225 97 q 168 15 178 43 q 158 -57 158 -14 q 203 -153 158 -122 q 343 -185 247 -185 q 558 -153 403 -185 l 565 -237 q 333 -279 426 -279 q 121 -226 189 -279 q 53 -57 53 -174 q 63 43 53 6 q 98 113 72 81 q 175 188 124 144 q 278 288 251 251 q 306 368 306 324 l 306 417 l 393 417 z "},"À":{"ha":828,"x_min":33,"x_max":794,"o":"m 33 0 m 226 1201 l 263 1293 l 563 1154 l 531 1081 l 226 1201 m 619 247 l 208 247 l 139 0 l 33 0 l 297 961 l 531 961 l 794 0 l 689 0 l 619 247 m 232 343 l 596 343 l 450 869 l 378 869 l 232 343 z "},"Á":{"ha":828,"x_min":33,"x_max":794,"o":"m 33 0 m 619 247 l 208 247 l 139 0 l 33 0 l 297 961 l 531 961 l 794 0 l 689 0 l 619 247 m 232 343 l 596 343 l 450 869 l 378 869 l 232 343 m 258 1154 l 558 1293 l 594 1201 l 290 1081 l 258 1154 z "},"Â":{"ha":828,"x_min":33,"x_max":794,"o":"m 33 0 m 619 247 l 208 247 l 139 0 l 33 0 l 297 961 l 531 961 l 794 0 l 689 0 l 619 247 m 232 343 l 596 343 l 450 869 l 378 869 l 232 343 m 367 1286 l 457 1286 l 643 1099 l 526 1099 l 413 1210 l 297 1099 l 181 1099 l 367 1286 z "},"Ã":{"ha":828,"x_min":33,"x_max":794,"o":"m 33 0 m 619 247 l 208 247 l 139 0 l 33 0 l 297 961 l 531 961 l 794 0 l 689 0 l 619 247 m 232 343 l 596 343 l 450 869 l 378 869 l 232 343 m 519 1115 q 404 1153 489 1115 q 300 1190 318 1190 q 215 1140 269 1190 l 197 1124 l 174 1201 q 238 1258 203 1235 q 304 1282 274 1282 q 421 1244 335 1282 q 519 1207 506 1207 q 600 1256 547 1207 l 617 1271 l 642 1193 q 519 1115 576 1115 z "},"Ä":{"ha":828,"x_min":33,"x_max":794,"o":"m 33 0 m 619 247 l 208 247 l 139 0 l 33 0 l 297 961 l 531 961 l 794 0 l 689 0 l 619 247 m 232 343 l 596 343 l 450 869 l 378 869 l 232 343 m 221 1247 l 322 1247 l 322 1122 l 221 1122 l 221 1247 m 504 1247 l 604 1247 l 604 1122 l 504 1122 l 504 1247 z "},"Å":{"ha":828,"x_min":33,"x_max":794,"o":"m 619 247 l 208 247 l 139 0 l 33 0 l 289 929 q 247 1033 247 968 q 293 1140 247 1101 q 413 1179 339 1179 q 531 1140 486 1179 q 576 1033 576 1101 q 539 932 576 972 l 794 0 l 689 0 l 619 247 m 413 1107 q 326 1033 326 1107 q 342 986 326 1006 q 385 961 357 967 l 440 961 q 483 986 468 967 q 499 1033 499 1006 q 476 1088 499 1068 q 413 1107 453 1107 m 232 343 l 596 343 l 450 869 l 378 869 l 232 343 z "},"Æ":{"ha":1217,"x_min":28,"x_max":1151,"o":"m 339 967 l 1151 967 l 1151 865 l 672 865 l 672 546 l 1068 546 l 1068 444 l 672 444 l 672 101 l 1151 101 l 1151 0 l 567 0 l 567 243 l 218 243 l 138 0 l 28 0 l 339 967 m 567 346 l 568 865 l 417 865 l 247 346 l 567 346 z "},"Ç":{"ha":756,"x_min":82,"x_max":699,"o":"m 699 15 q 447 -14 556 -14 l 447 -68 q 567 -91 532 -68 q 601 -176 601 -114 q 472 -301 601 -301 q 369 -294 414 -301 l 353 -292 l 357 -225 q 449 -229 411 -229 q 510 -176 510 -229 q 449 -129 510 -129 l 390 -129 l 390 -11 q 199 57 267 -1 q 107 217 132 115 q 82 481 82 319 q 111 759 82 653 q 217 920 140 865 q 439 975 294 975 q 699 944 551 975 l 694 854 q 453 879 554 879 q 289 840 344 879 q 213 715 233 801 q 193 465 193 629 q 212 244 193 324 q 289 123 231 164 q 465 82 347 82 q 694 107 561 82 l 699 15 z "},"È":{"ha":768,"x_min":118,"x_max":703,"o":"m 118 0 m 225 867 l 225 535 l 619 535 l 619 442 l 225 442 l 225 94 l 703 94 l 703 0 l 118 0 l 118 961 l 703 961 l 703 867 l 225 867 m 235 1201 l 271 1293 l 571 1154 l 539 1081 l 235 1201 z "},"É":{"ha":768,"x_min":118,"x_max":703,"o":"m 118 0 m 225 867 l 225 535 l 619 535 l 619 442 l 225 442 l 225 94 l 703 94 l 703 0 l 118 0 l 118 961 l 703 961 l 703 867 l 225 867 m 244 1154 l 544 1293 l 581 1201 l 276 1081 l 244 1154 z "},"Ê":{"ha":768,"x_min":118,"x_max":703,"o":"m 118 0 m 225 867 l 225 535 l 619 535 l 619 442 l 225 442 l 225 94 l 703 94 l 703 0 l 118 0 l 118 961 l 703 961 l 703 867 l 225 867 m 363 1286 l 453 1286 l 639 1099 l 522 1099 l 408 1210 l 293 1099 l 176 1099 l 363 1286 z "},"Ë":{"ha":768,"x_min":118,"x_max":703,"o":"m 118 0 m 225 867 l 225 535 l 619 535 l 619 442 l 225 442 l 225 94 l 703 94 l 703 0 l 118 0 l 118 961 l 703 961 l 703 867 l 225 867 m 218 1247 l 319 1247 l 319 1122 l 218 1122 l 218 1247 m 501 1247 l 601 1247 l 601 1122 l 501 1122 l 501 1247 z "},"Ì":{"ha":342,"x_min":-28,"x_max":308,"o":"m 0 0 m 118 961 l 225 961 l 225 0 l 118 0 l 118 961 m -28 1201 l 8 1293 l 308 1154 l 276 1081 l -28 1201 z "},"Í":{"ha":342,"x_min":17,"x_max":353,"o":"m 17 0 m 118 961 l 225 961 l 225 0 l 118 0 l 118 961 m 17 1154 l 317 1293 l 353 1201 l 49 1081 l 17 1154 z "},"Î":{"ha":342,"x_min":-65,"x_max":397,"o":"m 0 0 m 118 961 l 225 961 l 225 0 l 118 0 l 118 961 m 121 1286 l 211 1286 l 397 1099 l 281 1099 l 167 1210 l 51 1099 l -65 1099 l 121 1286 z "},"Ï":{"ha":342,"x_min":-21,"x_max":363,"o":"m 0 0 m 118 961 l 225 961 l 225 0 l 118 0 l 118 961 m -21 1247 l 81 1247 l 81 1122 l -21 1122 l -21 1247 m 263 1247 l 363 1247 l 363 1122 l 263 1122 l 263 1247 z "},"Ð":{"ha":899,"x_min":28,"x_max":821,"o":"m 122 432 l 28 432 l 28 533 l 122 533 l 122 967 l 465 967 q 738 849 654 967 q 821 499 821 732 q 732 122 821 243 q 465 0 643 0 l 122 0 l 122 432 m 465 101 q 710 499 710 101 q 649 777 710 689 q 465 865 589 865 l 228 865 l 228 533 l 447 533 l 447 432 l 228 432 l 228 101 l 465 101 z "},"Ñ":{"ha":939,"x_min":118,"x_max":821,"o":"m 118 0 m 821 961 l 821 0 l 625 0 l 251 867 l 225 867 l 225 0 l 118 0 l 118 961 l 318 961 l 688 94 l 715 94 l 715 961 l 821 961 m 578 1115 q 463 1153 547 1115 q 358 1190 376 1190 q 274 1140 328 1190 l 256 1124 l 232 1201 q 297 1258 261 1235 q 363 1282 332 1282 q 479 1244 393 1282 q 578 1207 564 1207 q 658 1256 606 1207 l 675 1271 l 700 1193 q 578 1115 635 1115 z "},"Ò":{"ha":917,"x_min":79,"x_max":839,"o":"m 79 0 m 460 -14 q 233 38 317 -14 q 115 195 150 89 q 79 476 79 301 q 115 759 79 650 q 235 922 151 868 q 458 975 318 975 q 682 922 599 975 q 802 759 765 868 q 839 474 839 650 q 803 192 839 297 q 685 36 768 86 q 460 -14 603 -14 m 460 81 q 623 119 565 81 q 704 242 681 158 q 728 474 728 326 q 703 708 728 621 q 621 838 679 796 q 458 881 563 881 q 296 839 354 881 q 213 710 238 797 q 189 476 189 622 q 213 245 189 331 q 295 120 236 160 q 460 81 354 81 m 279 1201 l 315 1293 l 615 1154 l 583 1081 l 279 1201 z "},"Ó":{"ha":917,"x_min":79,"x_max":839,"o":"m 79 0 m 460 -14 q 233 38 317 -14 q 115 195 150 89 q 79 476 79 301 q 115 759 79 650 q 235 922 151 868 q 458 975 318 975 q 682 922 599 975 q 802 759 765 868 q 839 474 839 650 q 803 192 839 297 q 685 36 768 86 q 460 -14 603 -14 m 460 81 q 623 119 565 81 q 704 242 681 158 q 728 474 728 326 q 703 708 728 621 q 621 838 679 796 q 458 881 563 881 q 296 839 354 881 q 213 710 238 797 q 189 476 189 622 q 213 245 189 331 q 295 120 236 160 q 460 81 354 81 m 275 1154 l 575 1293 l 611 1201 l 307 1081 l 275 1154 z "},"Ô":{"ha":917,"x_min":79,"x_max":839,"o":"m 79 0 m 460 -14 q 233 38 317 -14 q 115 195 150 89 q 79 476 79 301 q 115 759 79 650 q 235 922 151 868 q 458 975 318 975 q 682 922 599 975 q 802 759 765 868 q 839 474 839 650 q 803 192 839 297 q 685 36 768 86 q 460 -14 603 -14 m 460 81 q 623 119 565 81 q 704 242 681 158 q 728 474 728 326 q 703 708 728 621 q 621 838 679 796 q 458 881 563 881 q 296 839 354 881 q 213 710 238 797 q 189 476 189 622 q 213 245 189 331 q 295 120 236 160 q 460 81 354 81 m 414 1286 l 504 1286 l 690 1099 l 574 1099 l 460 1210 l 344 1099 l 228 1099 l 414 1286 z "},"Õ":{"ha":917,"x_min":79,"x_max":839,"o":"m 79 0 m 460 -14 q 233 38 317 -14 q 115 195 150 89 q 79 476 79 301 q 115 759 79 650 q 235 922 151 868 q 458 975 318 975 q 682 922 599 975 q 802 759 765 868 q 839 474 839 650 q 803 192 839 297 q 685 36 768 86 q 460 -14 603 -14 m 460 81 q 623 119 565 81 q 704 242 681 158 q 728 474 728 326 q 703 708 728 621 q 621 838 679 796 q 458 881 563 881 q 296 839 354 881 q 213 710 238 797 q 189 476 189 622 q 213 245 189 331 q 295 120 236 160 q 460 81 354 81 m 567 1115 q 451 1153 536 1115 q 347 1190 365 1190 q 263 1140 317 1190 l 244 1124 l 221 1201 q 285 1258 250 1235 q 351 1282 321 1282 q 468 1244 382 1282 q 567 1207 553 1207 q 647 1256 594 1207 l 664 1271 l 689 1193 q 567 1115 624 1115 z "},"Ö":{"ha":917,"x_min":79,"x_max":839,"o":"m 79 0 m 460 -14 q 233 38 317 -14 q 115 195 150 89 q 79 476 79 301 q 115 759 79 650 q 235 922 151 868 q 458 975 318 975 q 682 922 599 975 q 802 759 765 868 q 839 474 839 650 q 803 192 839 297 q 685 36 768 86 q 460 -14 603 -14 m 460 81 q 623 119 565 81 q 704 242 681 158 q 728 474 728 326 q 703 708 728 621 q 621 838 679 796 q 458 881 563 881 q 296 839 354 881 q 213 710 238 797 q 189 476 189 622 q 213 245 189 331 q 295 120 236 160 q 460 81 354 81 m 267 1247 l 368 1247 l 368 1122 l 267 1122 l 267 1247 m 550 1247 l 650 1247 l 650 1122 l 550 1122 l 550 1247 z "},"×":{"ha":778,"x_min":54,"x_max":624,"o":"m 406 353 l 624 135 l 557 68 l 339 286 l 121 68 l 54 135 l 272 353 l 54 571 l 121 638 l 339 419 l 557 638 l 624 571 l 406 353 z "},"Ø":{"ha":917,"x_min":79,"x_max":839,"o":"m 133 -125 l 215 50 q 111 207 143 104 q 79 476 79 310 q 115 759 79 650 q 235 922 151 868 q 458 975 318 975 q 633 946 563 975 l 711 1110 l 792 1076 l 710 900 q 839 476 839 792 q 803 192 839 299 q 685 36 768 86 q 458 -14 603 -14 q 292 10 365 -14 l 213 -161 l 133 -125 m 592 854 q 458 881 540 881 q 295 839 353 881 q 213 707 238 797 q 189 460 189 617 q 261 150 189 231 l 592 854 m 458 81 q 623 119 565 81 q 704 244 681 158 q 728 485 728 331 q 661 797 728 708 l 335 100 q 458 81 385 81 z "},"Ù":{"ha":894,"x_min":111,"x_max":783,"o":"m 111 0 m 446 -14 q 194 59 276 -14 q 111 292 111 132 l 111 961 l 218 961 l 218 289 q 443 81 218 81 q 619 131 561 81 q 678 289 678 181 l 678 961 l 783 961 l 783 292 q 699 60 783 133 q 446 -14 615 -14 m 272 1201 l 308 1293 l 608 1154 l 576 1081 l 272 1201 z "},"Ú":{"ha":894,"x_min":111,"x_max":783,"o":"m 111 0 m 446 -14 q 194 59 276 -14 q 111 292 111 132 l 111 961 l 218 961 l 218 289 q 443 81 218 81 q 619 131 561 81 q 678 289 678 181 l 678 961 l 783 961 l 783 292 q 699 60 783 133 q 446 -14 615 -14 m 276 1154 l 576 1293 l 613 1201 l 308 1081 l 276 1154 z "},"Û":{"ha":894,"x_min":111,"x_max":783,"o":"m 111 0 m 446 -14 q 194 59 276 -14 q 111 292 111 132 l 111 961 l 218 961 l 218 289 q 443 81 218 81 q 619 131 561 81 q 678 289 678 181 l 678 961 l 783 961 l 783 292 q 699 60 783 133 q 446 -14 615 -14 m 401 1286 l 492 1286 l 678 1099 l 561 1099 l 447 1210 l 332 1099 l 215 1099 l 401 1286 z "},"Ü":{"ha":894,"x_min":111,"x_max":783,"o":"m 111 0 m 446 -14 q 194 59 276 -14 q 111 292 111 132 l 111 961 l 218 961 l 218 289 q 443 81 218 81 q 619 131 561 81 q 678 289 678 181 l 678 961 l 783 961 l 783 292 q 699 60 783 133 q 446 -14 615 -14 m 256 1247 l 357 1247 l 357 1122 l 256 1122 l 256 1247 m 539 1247 l 639 1247 l 639 1122 l 539 1122 l 539 1247 z "},"Ý":{"ha":747,"x_min":14,"x_max":733,"o":"m 14 0 m 321 404 l 14 961 l 135 961 l 374 511 l 613 961 l 733 961 l 428 404 l 428 0 l 321 0 l 321 404 m 232 1154 l 532 1293 l 568 1201 l 264 1081 l 232 1154 z "},"Þ":{"ha":832,"x_min":118,"x_max":778,"o":"m 118 967 l 225 967 l 225 811 l 469 811 q 702 735 626 811 q 778 500 778 658 q 700 253 778 339 q 469 168 622 168 l 225 168 l 225 0 l 118 0 l 118 967 m 468 271 q 668 501 668 271 q 620 659 668 610 q 468 708 572 708 l 225 708 l 225 271 l 468 271 z "},"ß":{"ha":797,"x_min":100,"x_max":749,"o":"m 469 -14 q 317 1 404 -14 l 288 7 l 292 94 q 461 79 417 79 q 599 115 557 79 q 640 221 640 150 q 628 293 640 267 q 586 340 617 319 q 492 392 556 361 q 369 468 401 435 q 338 554 338 501 q 362 633 338 604 q 443 686 386 661 q 515 735 497 710 q 533 815 533 761 q 497 894 533 869 q 371 918 461 918 q 272 903 307 918 q 220 850 236 888 q 204 744 204 813 l 204 0 l 100 0 l 100 757 q 163 953 100 896 q 371 1011 225 1011 q 578 964 515 1011 q 642 811 642 917 q 616 699 642 739 q 533 635 590 660 q 465 599 483 613 q 446 564 446 586 q 449 543 446 550 q 467 527 453 536 q 506 504 481 518 q 534 489 515 499 q 582 461 553 479 q 713 369 676 414 q 749 246 749 325 q 722 94 749 150 q 633 12 694 38 q 469 -14 572 -14 z "},"à":{"ha":696,"x_min":56,"x_max":671,"o":"m 56 0 m 251 -14 q 106 40 156 -14 q 56 196 56 94 q 106 344 56 296 q 268 404 157 393 l 486 425 l 486 485 q 372 617 486 617 q 99 599 260 617 l 94 678 q 365 708 243 708 q 537 655 483 708 q 590 485 590 601 l 590 129 q 671 68 594 78 l 667 -14 q 501 42 557 -14 q 251 -14 378 -14 m 268 74 q 454 106 361 74 l 486 117 l 486 346 l 281 326 q 190 290 218 321 q 163 201 163 260 q 268 74 163 74 m 168 939 l 204 1028 l 504 892 l 475 821 l 168 939 z "},"á":{"ha":696,"x_min":56,"x_max":671,"o":"m 56 0 m 251 -14 q 106 40 156 -14 q 56 196 56 94 q 106 344 56 296 q 268 404 157 393 l 486 425 l 486 485 q 372 617 486 617 q 99 599 260 617 l 94 678 q 365 708 243 708 q 537 655 483 708 q 590 485 590 601 l 590 129 q 671 68 594 78 l 667 -14 q 501 42 557 -14 q 251 -14 378 -14 m 268 74 q 454 106 361 74 l 486 117 l 486 346 l 281 326 q 190 290 218 321 q 163 201 163 260 q 268 74 163 74 m 164 892 l 464 1028 l 500 939 l 193 821 l 164 892 z "},"â":{"ha":696,"x_min":56,"x_max":671,"o":"m 56 0 m 251 -14 q 106 40 156 -14 q 56 196 56 94 q 106 344 56 296 q 268 404 157 393 l 486 425 l 486 485 q 372 617 486 617 q 99 599 260 617 l 94 678 q 365 708 243 708 q 537 655 483 708 q 590 485 590 601 l 590 129 q 671 68 594 78 l 667 -14 q 501 42 557 -14 q 251 -14 378 -14 m 268 74 q 454 106 361 74 l 486 117 l 486 346 l 281 326 q 190 290 218 321 q 163 201 163 260 q 268 74 163 74 m 303 1017 l 374 1017 l 546 822 l 442 822 l 340 943 l 236 822 l 132 822 l 303 1017 z "},"ã":{"ha":696,"x_min":56,"x_max":671,"o":"m 56 0 m 251 -14 q 106 40 156 -14 q 56 196 56 94 q 106 344 56 296 q 268 404 157 393 l 486 425 l 486 485 q 372 617 486 617 q 99 599 260 617 l 94 678 q 365 708 243 708 q 537 655 483 708 q 590 485 590 601 l 590 129 q 671 68 594 78 l 667 -14 q 501 42 557 -14 q 251 -14 378 -14 m 268 74 q 454 106 361 74 l 486 117 l 486 346 l 281 326 q 190 290 218 321 q 163 201 163 260 q 268 74 163 74 m 426 850 q 326 883 397 850 q 236 915 251 915 q 150 874 204 915 l 132 860 l 107 926 q 233 999 175 999 q 335 967 260 999 q 424 935 410 935 q 504 975 451 935 l 522 988 l 546 921 q 426 850 481 850 z "},"ä":{"ha":696,"x_min":56,"x_max":671,"o":"m 56 0 m 251 -14 q 106 40 156 -14 q 56 196 56 94 q 106 344 56 296 q 268 404 157 393 l 486 425 l 486 485 q 372 617 486 617 q 99 599 260 617 l 94 678 q 365 708 243 708 q 537 655 483 708 q 590 485 590 601 l 590 129 q 671 68 594 78 l 667 -14 q 501 42 557 -14 q 251 -14 378 -14 m 268 74 q 454 106 361 74 l 486 117 l 486 346 l 281 326 q 190 290 218 321 q 163 201 163 260 q 268 74 163 74 m 146 988 l 246 988 l 246 863 l 146 863 l 146 988 m 424 988 l 525 988 l 525 863 l 424 863 l 424 988 z "},"å":{"ha":696,"x_min":56,"x_max":671,"o":"m 56 0 m 251 -14 q 106 40 156 -14 q 56 196 56 94 q 106 344 56 296 q 268 404 157 393 l 486 425 l 486 485 q 372 617 486 617 q 99 599 260 617 l 94 678 q 365 708 243 708 q 537 655 483 708 q 590 485 590 601 l 590 129 q 671 68 594 78 l 667 -14 q 501 42 557 -14 q 251 -14 378 -14 m 268 74 q 454 106 361 74 l 486 117 l 486 346 l 281 326 q 190 290 218 321 q 163 201 163 260 q 268 74 163 74 m 354 751 q 254 794 294 751 q 214 897 214 836 q 254 999 214 957 q 354 1040 294 1040 q 454 999 414 1040 q 494 897 494 957 q 454 794 494 836 q 354 751 414 751 m 354 818 q 408 841 386 818 q 431 897 431 864 q 408 952 431 929 q 354 975 386 975 q 300 952 322 975 q 278 897 278 929 q 300 841 278 864 q 354 818 322 818 z "},"æ":{"ha":1117,"x_min":56,"x_max":1054,"o":"m 244 -14 q 103 41 151 -14 q 56 203 56 96 q 80 316 56 275 q 158 378 104 357 q 307 408 213 399 l 486 425 l 486 482 q 365 608 486 608 q 144 597 282 608 l 101 594 l 97 688 q 371 708 263 708 q 558 607 513 708 q 771 708 625 708 q 985 629 917 708 q 1054 383 1054 550 l 1049 303 l 590 303 q 632 135 590 190 q 760 81 674 81 q 986 90 854 81 l 1026 93 l 1029 8 q 747 -14 878 -14 q 556 61 622 -14 l 511 42 q 244 -14 392 -14 m 950 388 q 910 563 950 511 q 776 615 869 615 q 636 560 682 615 q 590 388 590 506 l 950 388 m 261 76 q 387 94 318 76 q 483 128 456 113 l 483 340 l 281 324 q 191 289 219 318 q 163 201 163 260 q 261 76 163 76 z "},"ç":{"ha":606,"x_min":71,"x_max":550,"o":"m 346 -68 q 465 -91 431 -68 q 500 -176 500 -114 q 371 -301 500 -301 q 268 -294 313 -301 l 251 -292 l 256 -225 q 347 -229 310 -229 q 408 -176 408 -229 q 347 -129 408 -129 l 289 -129 l 289 -10 q 120 88 169 4 q 71 347 71 172 q 126 611 71 513 q 342 710 182 710 q 428 706 383 710 q 549 688 472 701 l 544 603 q 376 615 435 615 q 255 591 297 615 q 195 509 213 567 q 178 344 178 451 q 194 187 178 243 q 255 105 211 131 q 382 79 299 79 l 546 92 l 550 6 q 350 -14 417 -14 l 346 -14 l 346 -68 z "},"è":{"ha":701,"x_min":69,"x_max":639,"o":"m 69 0 m 360 -14 q 135 69 201 -14 q 69 329 69 151 q 140 615 69 522 q 363 708 211 708 q 570 628 501 708 q 639 383 639 549 l 633 304 l 175 304 q 194 169 175 218 q 258 99 213 121 q 383 78 303 78 q 476 80 424 78 q 572 86 529 82 l 613 90 l 615 8 q 360 -14 461 -14 m 535 388 q 494 567 535 514 q 363 621 454 621 q 221 565 267 621 q 174 388 175 508 l 535 388 m 168 939 l 204 1028 l 504 892 l 475 821 l 168 939 z "},"é":{"ha":701,"x_min":69,"x_max":639,"o":"m 69 0 m 360 -14 q 135 69 201 -14 q 69 329 69 151 q 140 615 69 522 q 363 708 211 708 q 570 628 501 708 q 639 383 639 549 l 633 304 l 175 304 q 194 169 175 218 q 258 99 213 121 q 383 78 303 78 q 476 80 424 78 q 572 86 529 82 l 613 90 l 615 8 q 360 -14 461 -14 m 535 388 q 494 567 535 514 q 363 621 454 621 q 221 565 267 621 q 174 388 175 508 l 535 388 m 201 892 l 501 1028 l 538 939 l 231 821 l 201 892 z "},"ê":{"ha":701,"x_min":69,"x_max":639,"o":"m 69 0 m 360 -14 q 135 69 201 -14 q 69 329 69 151 q 140 615 69 522 q 363 708 211 708 q 570 628 501 708 q 639 383 639 549 l 633 304 l 175 304 q 194 169 175 218 q 258 99 213 121 q 383 78 303 78 q 476 80 424 78 q 572 86 529 82 l 613 90 l 615 8 q 360 -14 461 -14 m 535 388 q 494 567 535 514 q 363 621 454 621 q 221 565 267 621 q 174 388 175 508 l 535 388 m 326 1017 l 397 1017 l 569 822 l 465 822 l 364 943 l 260 822 l 156 822 l 326 1017 z "},"ë":{"ha":701,"x_min":69,"x_max":639,"o":"m 69 0 m 360 -14 q 135 69 201 -14 q 69 329 69 151 q 140 615 69 522 q 363 708 211 708 q 570 628 501 708 q 639 383 639 549 l 633 304 l 175 304 q 194 169 175 218 q 258 99 213 121 q 383 78 303 78 q 476 80 424 78 q 572 86 529 82 l 613 90 l 615 8 q 360 -14 461 -14 m 535 388 q 494 567 535 514 q 363 621 454 621 q 221 565 267 621 q 174 388 175 508 l 535 388 m 167 988 l 267 988 l 267 863 l 167 863 l 167 988 m 444 988 l 546 988 l 546 863 l 444 863 l 444 988 z "},"ì":{"ha":303,"x_min":-83,"x_max":253,"o":"m 0 0 m 100 694 l 203 694 l 203 0 l 100 0 l 100 694 m -83 939 l -47 1028 l 253 892 l 224 821 l -83 939 z "},"í":{"ha":303,"x_min":53,"x_max":389,"o":"m 53 0 m 100 694 l 203 694 l 203 0 l 100 0 l 100 694 m 53 892 l 353 1028 l 389 939 l 82 821 l 53 892 z "},"î":{"ha":303,"x_min":-58,"x_max":356,"o":"m 0 0 m 100 694 l 203 694 l 203 0 l 100 0 l 100 694 m 113 1017 l 183 1017 l 356 822 l 251 822 l 150 943 l 46 822 l -58 822 l 113 1017 z "},"ï":{"ha":303,"x_min":-43,"x_max":336,"o":"m 0 0 m 100 694 l 203 694 l 203 0 l 100 0 l 100 694 m -43 988 l 57 988 l 57 863 l -43 863 l -43 988 m 235 988 l 336 988 l 336 863 l 235 863 l 235 988 z "},"ð":{"ha":761,"x_min":58,"x_max":689,"o":"m 368 -12 q 139 67 219 -12 q 58 292 58 147 q 135 517 58 436 q 350 597 211 597 q 544 560 440 597 l 579 547 q 389 835 568 729 l 219 722 l 174 788 l 306 876 q 133 933 225 910 l 154 1011 q 394 936 292 985 l 535 1031 l 582 965 l 475 893 q 689 489 689 758 q 656 199 689 308 q 553 38 624 89 q 368 -12 483 -12 m 376 82 q 493 117 449 82 q 559 234 538 153 q 581 454 581 315 q 361 504 456 504 q 218 447 268 504 q 168 292 168 390 q 220 137 168 192 q 376 82 272 82 z "},"ñ":{"ha":746,"x_min":100,"x_max":653,"o":"m 100 0 m 100 694 l 203 694 l 203 646 q 317 694 265 681 q 426 708 369 708 q 564 675 515 708 q 633 569 613 642 q 653 367 653 496 l 653 0 l 550 0 l 550 364 q 538 515 550 463 q 496 592 526 568 q 407 615 465 615 q 310 603 360 615 q 231 576 261 592 l 204 564 l 204 0 l 100 0 l 100 694 m 485 850 q 385 883 456 850 q 294 915 310 915 q 208 874 263 915 l 190 860 l 165 926 q 292 999 233 999 q 393 967 318 999 q 482 935 468 935 q 563 975 510 935 l 581 988 l 604 921 q 485 850 539 850 z "},"ò":{"ha":733,"x_min":69,"x_max":664,"o":"m 69 0 m 367 -14 q 190 23 256 -14 q 97 138 125 60 q 69 343 69 215 q 99 555 69 475 q 193 672 128 635 q 367 708 258 708 q 541 671 476 708 q 635 554 606 633 q 664 343 664 475 q 636 138 664 215 q 544 23 608 60 q 367 -14 479 -14 m 368 76 q 485 102 444 76 q 541 184 525 128 q 557 343 557 240 q 540 510 557 451 q 483 593 524 568 q 368 618 443 618 q 252 593 293 618 q 194 510 211 568 q 176 343 176 451 q 192 185 176 242 q 249 102 208 128 q 368 76 290 76 m 196 939 l 232 1028 l 532 892 l 503 821 l 196 939 z "},"ó":{"ha":733,"x_min":69,"x_max":664,"o":"m 69 0 m 367 -14 q 190 23 256 -14 q 97 138 125 60 q 69 343 69 215 q 99 555 69 475 q 193 672 128 635 q 367 708 258 708 q 541 671 476 708 q 635 554 606 633 q 664 343 664 475 q 636 138 664 215 q 544 23 608 60 q 367 -14 479 -14 m 368 76 q 485 102 444 76 q 541 184 525 128 q 557 343 557 240 q 540 510 557 451 q 483 593 524 568 q 368 618 443 618 q 252 593 293 618 q 194 510 211 568 q 176 343 176 451 q 192 185 176 242 q 249 102 208 128 q 368 76 290 76 m 214 892 l 514 1028 l 550 939 l 243 821 l 214 892 z "},"ô":{"ha":733,"x_min":69,"x_max":664,"o":"m 69 0 m 367 -14 q 190 23 256 -14 q 97 138 125 60 q 69 343 69 215 q 99 555 69 475 q 193 672 128 635 q 367 708 258 708 q 541 671 476 708 q 635 554 606 633 q 664 343 664 475 q 636 138 664 215 q 544 23 608 60 q 367 -14 479 -14 m 368 76 q 485 102 444 76 q 541 184 525 128 q 557 343 557 240 q 540 510 557 451 q 483 593 524 568 q 368 618 443 618 q 252 593 293 618 q 194 510 211 568 q 176 343 176 451 q 192 185 176 242 q 249 102 208 128 q 368 76 290 76 m 328 1017 l 399 1017 l 571 822 l 467 822 l 365 943 l 261 822 l 157 822 l 328 1017 z "},"õ":{"ha":733,"x_min":69,"x_max":664,"o":"m 69 0 m 367 -14 q 190 23 256 -14 q 97 138 125 60 q 69 343 69 215 q 99 555 69 475 q 193 672 128 635 q 367 708 258 708 q 541 671 476 708 q 635 554 606 633 q 664 343 664 475 q 636 138 664 215 q 544 23 608 60 q 367 -14 479 -14 m 368 76 q 485 102 444 76 q 541 184 525 128 q 557 343 557 240 q 540 510 557 451 q 483 593 524 568 q 368 618 443 618 q 252 593 293 618 q 194 510 211 568 q 176 343 176 451 q 192 185 176 242 q 249 102 208 128 q 368 76 290 76 m 465 850 q 365 883 436 850 q 275 915 290 915 q 189 874 243 915 l 171 860 l 146 926 q 272 999 214 999 q 374 967 299 999 q 463 935 449 935 q 543 975 490 935 l 561 988 l 585 921 q 465 850 519 850 z "},"ö":{"ha":733,"x_min":69,"x_max":664,"o":"m 69 0 m 367 -14 q 190 23 256 -14 q 97 138 125 60 q 69 343 69 215 q 99 555 69 475 q 193 672 128 635 q 367 708 258 708 q 541 671 476 708 q 635 554 606 633 q 664 343 664 475 q 636 138 664 215 q 544 23 608 60 q 367 -14 479 -14 m 368 76 q 485 102 444 76 q 541 184 525 128 q 557 343 557 240 q 540 510 557 451 q 483 593 524 568 q 368 618 443 618 q 252 593 293 618 q 194 510 211 568 q 176 343 176 451 q 192 185 176 242 q 249 102 208 128 q 368 76 290 76 m 174 988 l 274 988 l 274 863 l 174 863 l 174 988 m 451 988 l 553 988 l 553 863 l 451 863 l 451 988 z "},"÷":{"ha":778,"x_min":167,"x_max":610,"o":"m 336 840 l 440 840 l 440 700 l 336 700 l 336 840 m 167 492 l 610 492 l 610 390 l 167 390 l 167 492 m 336 182 l 440 182 l 440 42 l 336 42 l 336 182 z "},"ø":{"ha":733,"x_min":69,"x_max":664,"o":"m 132 -131 l 193 21 q 98 138 126 58 q 69 356 69 217 q 138 625 69 542 q 367 708 207 708 q 469 697 418 708 l 529 842 l 599 815 l 539 671 q 664 356 664 603 q 636 141 664 221 q 544 24 608 61 q 367 -14 479 -14 q 261 -3 313 -14 l 201 -156 l 132 -131 m 436 610 l 367 618 q 219 563 261 618 q 176 379 176 507 q 187 205 176 268 q 235 111 197 142 l 436 610 m 367 76 q 486 102 446 76 q 542 188 526 128 q 557 363 557 247 q 499 579 557 526 l 296 83 q 367 76 324 76 z "},"ù":{"ha":738,"x_min":93,"x_max":638,"o":"m 93 0 m 317 -14 q 180 19 228 -14 q 113 125 132 51 q 93 332 93 199 l 93 694 l 197 694 l 197 333 q 208 176 197 229 q 249 101 219 124 q 339 79 278 79 q 533 131 433 79 l 533 694 l 638 694 l 638 0 l 533 0 l 533 49 q 428 1 476 15 q 317 -14 379 -14 m 158 939 l 194 1028 l 494 892 l 465 821 l 158 939 z "},"ú":{"ha":738,"x_min":93,"x_max":638,"o":"m 93 0 m 317 -14 q 180 19 228 -14 q 113 125 132 51 q 93 332 93 199 l 93 694 l 197 694 l 197 333 q 208 176 197 229 q 249 101 219 124 q 339 79 278 79 q 533 131 433 79 l 533 694 l 638 694 l 638 0 l 533 0 l 533 49 q 428 1 476 15 q 317 -14 379 -14 m 215 892 l 515 1028 l 551 939 l 244 821 l 215 892 z "},"û":{"ha":738,"x_min":93,"x_max":638,"o":"m 93 0 m 317 -14 q 180 19 228 -14 q 113 125 132 51 q 93 332 93 199 l 93 694 l 197 694 l 197 333 q 208 176 197 229 q 249 101 219 124 q 339 79 278 79 q 533 131 433 79 l 533 694 l 638 694 l 638 0 l 533 0 l 533 49 q 428 1 476 15 q 317 -14 379 -14 m 317 1017 l 388 1017 l 560 822 l 456 822 l 354 943 l 250 822 l 146 822 l 317 1017 z "},"ü":{"ha":738,"x_min":93,"x_max":638,"o":"m 93 0 m 317 -14 q 180 19 228 -14 q 113 125 132 51 q 93 332 93 199 l 93 694 l 197 694 l 197 333 q 208 176 197 229 q 249 101 219 124 q 339 79 278 79 q 533 131 433 79 l 533 694 l 638 694 l 638 0 l 533 0 l 533 49 q 428 1 476 15 q 317 -14 379 -14 m 183 988 l 283 988 l 283 863 l 183 863 l 183 988 m 461 988 l 563 988 l 563 863 l 461 863 l 461 988 z "},"ý":{"ha":671,"x_min":35,"x_max":638,"o":"m 35 0 m 335 0 l 232 0 l 35 694 l 139 694 l 313 90 l 358 90 l 533 694 l 638 694 l 349 -308 l 244 -308 l 335 0 m 214 892 l 514 1028 l 550 939 l 243 821 l 214 892 z "},"þ":{"ha":732,"x_min":100,"x_max":661,"o":"m 100 997 l 204 997 l 204 660 q 407 708 310 708 q 557 674 501 708 q 637 562 613 639 q 661 350 661 485 q 631 135 661 214 q 533 22 601 57 q 344 -14 465 -14 l 204 -4 l 204 -308 l 100 -308 l 100 997 m 339 76 q 472 103 425 76 q 536 189 518 131 q 554 350 554 247 q 540 506 554 449 q 491 590 525 564 q 397 615 457 615 q 231 585 314 615 l 204 575 l 204 85 q 339 76 294 76 z "},"ÿ":{"ha":671,"x_min":35,"x_max":638,"o":"m 35 0 m 335 0 l 232 0 l 35 694 l 139 694 l 313 90 l 358 90 l 533 694 l 638 694 l 349 -308 l 244 -308 l 335 0 m 144 988 l 244 988 l 244 863 l 144 863 l 144 988 m 422 988 l 524 988 l 524 863 l 422 863 l 422 988 z "},"Ā":{"ha":828,"x_min":33,"x_max":794,"o":"m 33 0 m 619 247 l 208 247 l 139 0 l 33 0 l 297 961 l 531 961 l 794 0 l 689 0 l 619 247 m 232 343 l 596 343 l 450 869 l 378 869 l 232 343 m 196 1208 l 628 1208 l 628 1128 l 196 1128 l 196 1208 z "},"ā":{"ha":696,"x_min":56,"x_max":671,"o":"m 56 0 m 251 -14 q 106 40 156 -14 q 56 196 56 94 q 106 344 56 296 q 268 404 157 393 l 486 425 l 486 485 q 372 617 486 617 q 99 599 260 617 l 94 678 q 365 708 243 708 q 537 655 483 708 q 590 485 590 601 l 590 129 q 671 68 594 78 l 667 -14 q 501 42 557 -14 q 251 -14 378 -14 m 268 74 q 454 106 361 74 l 486 117 l 486 346 l 281 326 q 190 290 218 321 q 163 201 163 260 q 268 74 163 74 m 156 949 l 538 949 l 538 867 l 156 867 l 156 949 z "},"Ă":{"ha":828,"x_min":33,"x_max":794,"o":"m 33 0 m 619 247 l 208 247 l 139 0 l 33 0 l 297 961 l 531 961 l 794 0 l 689 0 l 619 247 m 232 343 l 596 343 l 450 869 l 378 869 l 232 343 m 411 1093 q 256 1143 315 1093 q 193 1275 197 1193 l 289 1275 q 326 1200 290 1229 q 413 1171 361 1171 q 497 1200 463 1171 q 533 1275 532 1229 l 631 1275 q 567 1143 626 1193 q 411 1093 507 1093 z "},"ă":{"ha":699,"x_min":56,"x_max":669,"o":"m 351 821 q 192 875 251 821 q 128 1018 132 929 l 235 1018 q 268 942 238 969 q 351 914 299 914 q 435 942 404 914 q 467 1018 465 971 l 574 1018 q 510 875 569 929 q 351 821 450 821 m 244 -14 q 105 42 154 -14 q 56 197 56 97 q 107 345 56 296 q 268 404 158 394 l 486 425 l 486 482 q 365 608 486 608 q 100 590 258 608 l 96 681 l 140 688 q 371 708 274 708 q 537 653 483 708 q 590 482 590 599 l 590 140 q 669 76 592 88 l 667 -14 q 501 39 554 -14 l 467 25 q 363 -1 426 11 q 244 -14 299 -14 m 261 76 q 486 118 365 76 l 486 340 l 281 324 q 163 201 163 314 q 188 109 163 142 q 261 76 214 76 z "},"Ą":{"ha":828,"x_min":33,"x_max":822,"o":"m 822 -274 q 708 -286 760 -286 q 621 -253 657 -286 q 585 -175 585 -221 q 611 -89 585 -133 q 671 -14 638 -44 l 689 1 l 619 247 l 208 247 l 139 0 l 33 0 l 297 961 l 531 961 l 794 0 l 783 0 q 686 -142 686 -97 q 702 -185 686 -168 q 743 -201 718 -201 l 813 -193 l 822 -274 m 232 343 l 596 343 l 450 869 l 378 869 l 232 343 z "},"ą":{"ha":696,"x_min":56,"x_max":671,"o":"m 661 -193 l 671 -274 q 557 -286 608 -286 q 469 -253 506 -286 q 433 -175 433 -221 q 460 -89 433 -133 q 519 -14 486 -44 l 547 10 q 501 42 521 22 q 251 -14 378 -14 q 106 40 156 -14 q 56 196 56 94 q 106 344 56 296 q 268 404 157 393 l 486 425 l 486 485 q 372 617 486 617 q 99 599 260 617 l 94 678 q 365 708 243 708 q 537 655 483 708 q 590 485 590 601 l 590 129 q 671 68 594 78 l 667 -14 q 621 -11 649 -14 q 535 -142 535 -100 q 551 -185 535 -168 q 592 -201 567 -201 l 661 -193 m 486 346 l 281 326 q 190 290 218 321 q 163 201 163 260 q 268 74 163 74 q 454 106 361 74 l 486 117 l 486 346 z "},"Ć":{"ha":756,"x_min":82,"x_max":699,"o":"m 82 0 m 446 -14 q 219 41 299 -14 q 111 201 140 96 q 82 481 82 307 q 111 759 82 653 q 217 920 140 865 q 439 975 294 975 q 699 944 551 975 l 694 854 q 453 879 554 879 q 289 840 344 879 q 213 715 233 801 q 193 465 193 629 q 212 244 193 324 q 289 123 231 164 q 465 82 347 82 q 694 107 561 82 l 699 15 q 446 -14 556 -14 m 251 1154 l 551 1293 l 588 1201 l 283 1081 l 251 1154 z "},"ć":{"ha":606,"x_min":71,"x_max":550,"o":"m 71 0 m 350 -14 q 185 23 246 -14 q 97 138 124 60 q 71 347 71 217 q 126 611 71 513 q 342 710 182 710 q 428 706 383 710 q 549 688 472 701 l 544 603 q 376 615 435 615 q 255 591 297 615 q 195 509 213 567 q 178 344 178 451 q 194 187 178 243 q 255 105 211 131 q 382 79 299 79 l 546 92 l 550 6 q 350 -14 417 -14 m 175 892 l 475 1028 l 511 939 l 204 821 l 175 892 z "},"Ĉ":{"ha":756,"x_min":82,"x_max":699,"o":"m 82 0 m 446 -14 q 219 41 299 -14 q 111 201 140 96 q 82 481 82 307 q 111 759 82 653 q 217 920 140 865 q 439 975 294 975 q 699 944 551 975 l 694 854 q 453 879 554 879 q 289 840 344 879 q 213 715 233 801 q 193 465 193 629 q 212 244 193 324 q 289 123 231 164 q 465 82 347 82 q 694 107 561 82 l 699 15 q 446 -14 556 -14 m 386 1286 l 476 1286 l 663 1099 l 546 1099 l 432 1210 l 317 1099 l 200 1099 l 386 1286 z "},"ĉ":{"ha":606,"x_min":71,"x_max":550,"o":"m 71 0 m 350 -14 q 185 23 246 -14 q 97 138 124 60 q 71 347 71 217 q 126 611 71 513 q 342 710 182 710 q 428 706 383 710 q 549 688 472 701 l 544 603 q 376 615 435 615 q 255 591 297 615 q 195 509 213 567 q 178 344 178 451 q 194 187 178 243 q 255 105 211 131 q 382 79 299 79 l 546 92 l 550 6 q 350 -14 417 -14 m 286 1017 l 357 1017 l 529 822 l 425 822 l 324 943 l 219 822 l 115 822 l 286 1017 z "},"Ċ":{"ha":756,"x_min":82,"x_max":699,"o":"m 82 0 m 446 -14 q 219 41 299 -14 q 111 201 140 96 q 82 481 82 307 q 111 759 82 653 q 217 920 140 865 q 439 975 294 975 q 699 944 551 975 l 694 854 q 453 879 554 879 q 289 840 344 879 q 213 715 233 801 q 193 465 193 629 q 212 244 193 324 q 289 123 231 164 q 465 82 347 82 q 694 107 561 82 l 699 15 q 446 -14 556 -14 m 354 1233 l 457 1233 l 457 1113 l 354 1113 l 354 1233 z "},"ċ":{"ha":606,"x_min":71,"x_max":550,"o":"m 71 0 m 350 -14 q 185 23 246 -14 q 97 138 124 60 q 71 347 71 217 q 126 611 71 513 q 342 710 182 710 q 428 706 383 710 q 549 688 472 701 l 544 603 q 376 615 435 615 q 255 591 297 615 q 195 509 213 567 q 178 344 178 451 q 194 187 178 243 q 255 105 211 131 q 382 79 299 79 l 546 92 l 550 6 q 350 -14 417 -14 m 297 967 l 400 967 l 400 846 l 297 846 l 297 967 z "},"Č":{"ha":756,"x_min":82,"x_max":699,"o":"m 82 0 m 446 -14 q 219 41 299 -14 q 111 201 140 96 q 82 481 82 307 q 111 759 82 653 q 217 920 140 865 q 439 975 294 975 q 699 944 551 975 l 694 854 q 453 879 554 879 q 289 840 344 879 q 213 715 233 801 q 193 465 193 629 q 212 244 193 324 q 289 123 231 164 q 465 82 347 82 q 694 107 561 82 l 699 15 q 446 -14 556 -14 m 190 1286 l 307 1286 l 422 1175 l 536 1286 l 653 1286 l 467 1099 l 376 1099 l 190 1286 z "},"č":{"ha":606,"x_min":71,"x_max":550,"o":"m 71 0 m 350 -14 q 185 23 246 -14 q 97 138 124 60 q 71 347 71 217 q 126 611 71 513 q 342 710 182 710 q 428 706 383 710 q 549 688 472 701 l 544 603 q 376 615 435 615 q 255 591 297 615 q 195 509 213 567 q 178 344 178 451 q 194 187 178 243 q 255 105 211 131 q 382 79 299 79 l 546 92 l 550 6 q 350 -14 417 -14 m 231 1017 l 335 896 l 436 1017 l 540 1017 l 368 822 l 297 822 l 126 1017 l 231 1017 z "},"Ď":{"ha":896,"x_min":118,"x_max":817,"o":"m 118 0 m 461 961 q 685 897 607 961 q 790 735 764 833 q 817 504 817 636 q 730 120 817 240 q 461 0 643 0 l 118 0 l 118 961 l 461 961 m 461 94 q 707 494 707 94 q 647 778 707 689 q 461 867 588 867 l 225 867 l 225 94 l 461 94 m 178 1286 l 294 1286 l 410 1175 l 524 1286 l 640 1286 l 454 1099 l 364 1099 l 178 1286 z "},"ď":{"ha":735,"x_min":69,"x_max":878,"o":"m 69 0 m 315 -14 q 126 72 183 -14 q 69 335 69 157 q 138 621 69 533 q 365 708 207 708 q 531 690 444 708 l 531 997 l 633 997 l 633 0 l 531 0 l 531 47 q 315 -14 424 -14 m 335 79 q 422 91 375 79 q 503 118 469 103 l 531 131 l 531 601 q 374 618 440 618 q 220 554 264 618 q 176 343 176 490 q 212 144 176 208 q 335 79 247 79 m 775 949 l 878 949 l 808 661 l 718 661 l 775 949 z "},"Đ":{"ha":899,"x_min":28,"x_max":821,"o":"m 122 432 l 28 432 l 28 533 l 122 533 l 122 967 l 465 967 q 738 849 654 967 q 821 499 821 732 q 732 122 821 243 q 465 0 643 0 l 122 0 l 122 432 m 465 101 q 710 499 710 101 q 649 777 710 689 q 465 865 589 865 l 228 865 l 228 533 l 447 533 l 447 432 l 228 432 l 228 101 l 465 101 z "},"đ":{"ha":735,"x_min":69,"x_max":665,"o":"m 319 -14 q 127 71 185 -14 q 69 328 69 156 q 137 619 69 531 q 360 708 204 708 q 531 690 444 708 l 531 864 l 261 864 l 261 956 l 531 956 l 531 997 l 633 997 l 633 956 l 665 956 l 665 864 l 633 864 l 633 0 l 531 0 l 531 47 q 319 -14 424 -14 m 338 79 q 422 92 374 79 q 503 118 471 104 l 531 131 l 531 601 q 365 618 440 618 q 219 552 263 618 q 176 342 176 486 q 213 143 176 207 q 338 79 249 79 z "},"Ē":{"ha":768,"x_min":118,"x_max":703,"o":"m 118 0 m 225 867 l 225 535 l 619 535 l 619 442 l 225 442 l 225 94 l 703 94 l 703 0 l 118 0 l 118 961 l 703 961 l 703 867 l 225 867 m 192 1208 l 624 1208 l 624 1128 l 192 1128 l 192 1208 z "},"ē":{"ha":701,"x_min":69,"x_max":639,"o":"m 69 0 m 360 -14 q 135 69 201 -14 q 69 329 69 151 q 140 615 69 522 q 363 708 211 708 q 570 628 501 708 q 639 383 639 549 l 633 304 l 175 304 q 194 169 175 218 q 258 99 213 121 q 383 78 303 78 q 476 80 424 78 q 572 86 529 82 l 613 90 l 615 8 q 360 -14 461 -14 m 535 388 q 494 567 535 514 q 363 621 454 621 q 221 565 267 621 q 174 388 175 508 l 535 388 m 171 949 l 553 949 l 553 867 l 171 867 l 171 949 z "},"Ĕ":{"ha":768,"x_min":118,"x_max":703,"o":"m 118 0 m 225 867 l 225 535 l 619 535 l 619 442 l 225 442 l 225 94 l 703 94 l 703 0 l 118 0 l 118 961 l 703 961 l 703 867 l 225 867 m 422 1093 q 267 1143 326 1093 q 204 1275 208 1193 l 300 1275 q 337 1200 301 1229 q 424 1171 372 1171 q 508 1200 474 1171 q 544 1275 543 1229 l 642 1275 q 578 1143 638 1193 q 422 1093 518 1093 z "},"ĕ":{"ha":701,"x_min":69,"x_max":639,"o":"m 69 0 m 357 814 q 210 869 267 814 q 150 1008 154 924 l 235 1008 q 270 923 238 954 q 357 892 303 892 q 443 924 411 892 q 476 1008 475 956 l 563 1008 q 502 869 558 924 q 357 814 446 814 m 360 -14 q 135 69 201 -14 q 69 329 69 151 q 140 615 69 522 q 363 708 211 708 q 570 628 501 708 q 639 383 639 549 l 633 304 l 175 304 q 194 169 175 218 q 258 99 213 121 q 383 78 303 78 q 476 80 424 78 q 572 86 529 82 l 613 90 l 615 8 q 360 -14 461 -14 m 535 388 q 494 567 535 514 q 363 621 454 621 q 221 565 267 621 q 174 388 175 508 l 535 388 z "},"Ė":{"ha":768,"x_min":118,"x_max":703,"o":"m 118 0 m 225 867 l 225 535 l 619 535 l 619 442 l 225 442 l 225 94 l 703 94 l 703 0 l 118 0 l 118 961 l 703 961 l 703 867 l 225 867 m 361 1233 l 464 1233 l 464 1113 l 361 1113 l 361 1233 z "},"ė":{"ha":701,"x_min":69,"x_max":639,"o":"m 69 0 m 360 -14 q 135 69 201 -14 q 69 329 69 151 q 140 615 69 522 q 363 708 211 708 q 570 628 501 708 q 639 383 639 549 l 633 304 l 175 304 q 194 169 175 218 q 258 99 213 121 q 383 78 303 78 q 476 80 424 78 q 572 86 529 82 l 613 90 l 615 8 q 360 -14 461 -14 m 535 388 q 494 567 535 514 q 363 621 454 621 q 221 565 267 621 q 174 388 175 508 l 535 388 m 301 967 l 404 967 l 404 846 l 301 846 l 301 967 z "},"Ę":{"ha":768,"x_min":118,"x_max":703,"o":"m 225 867 l 225 535 l 619 535 l 619 442 l 225 442 l 225 94 l 703 94 l 703 0 l 663 0 q 565 -142 565 -97 q 581 -185 565 -168 q 622 -201 597 -201 l 692 -193 l 701 -274 q 588 -286 639 -286 q 500 -253 536 -286 q 464 -175 464 -221 q 490 -89 464 -133 q 550 -14 517 -44 l 567 0 l 118 0 l 118 961 l 703 961 l 703 867 l 225 867 z "},"ę":{"ha":701,"x_min":69,"x_max":639,"o":"m 633 304 l 175 304 q 194 169 175 218 q 258 99 213 121 q 383 78 303 78 q 476 80 424 78 q 572 86 529 82 l 613 90 l 615 8 l 569 1 l 575 1 q 476 -142 476 -97 q 492 -185 476 -168 q 533 -201 508 -201 l 603 -193 l 613 -274 q 499 -286 550 -286 q 411 -253 447 -286 q 375 -175 375 -221 q 401 -89 375 -133 q 461 -14 428 -44 l 467 -8 q 360 -14 410 -14 q 135 69 201 -14 q 69 329 69 151 q 140 615 69 522 q 363 708 211 708 q 570 628 501 708 q 639 383 639 549 l 633 304 m 535 388 q 494 567 535 514 q 363 621 454 621 q 221 565 267 621 q 174 388 175 508 l 535 388 z "},"Ě":{"ha":768,"x_min":118,"x_max":703,"o":"m 118 0 m 225 867 l 225 535 l 619 535 l 619 442 l 225 442 l 225 94 l 703 94 l 703 0 l 118 0 l 118 961 l 703 961 l 703 867 l 225 867 m 172 1286 l 289 1286 l 404 1175 l 518 1286 l 635 1286 l 449 1099 l 358 1099 l 172 1286 z "},"ě":{"ha":701,"x_min":69,"x_max":639,"o":"m 69 0 m 360 -14 q 135 69 201 -14 q 69 329 69 151 q 140 615 69 522 q 363 708 211 708 q 570 628 501 708 q 639 383 639 549 l 633 304 l 175 304 q 194 169 175 218 q 258 99 213 121 q 383 78 303 78 q 476 80 424 78 q 572 86 529 82 l 613 90 l 615 8 q 360 -14 461 -14 m 535 388 q 494 567 535 514 q 363 621 454 621 q 221 565 267 621 q 174 388 175 508 l 535 388 m 249 1017 l 353 896 l 454 1017 l 558 1017 l 386 822 l 315 822 l 144 1017 l 249 1017 z "},"Ĝ":{"ha":856,"x_min":79,"x_max":764,"o":"m 79 0 m 451 -14 q 231 39 313 -14 q 115 199 150 92 q 79 481 79 307 q 115 761 79 653 q 231 922 150 869 q 449 975 311 975 q 717 947 574 975 l 764 939 l 760 850 q 461 879 588 879 q 297 840 356 879 q 214 715 238 800 q 190 481 190 629 q 214 247 190 332 q 296 121 238 161 q 460 81 354 81 q 658 100 553 81 l 658 396 l 499 396 l 499 492 l 764 492 l 764 19 q 451 -14 589 -14 m 403 1286 l 493 1286 l 679 1099 l 563 1099 l 449 1210 l 333 1099 l 217 1099 l 403 1286 z "},"ĝ":{"ha":714,"x_min":69,"x_max":688,"o":"m 69 0 m 354 -326 q 134 -280 199 -326 q 69 -125 69 -233 q 80 -52 69 -81 q 113 -1 90 -24 q 179 56 135 21 q 150 93 160 68 q 140 146 140 118 q 149 185 140 164 q 188 261 157 207 q 78 469 78 310 q 143 649 78 590 q 340 708 208 708 q 482 690 404 708 l 688 696 l 688 607 l 556 610 q 590 552 579 586 q 601 465 601 518 q 538 289 601 342 q 336 236 474 236 q 265 242 293 236 q 247 193 254 214 q 240 157 240 172 q 269 110 240 121 q 357 99 297 99 l 411 99 q 559 85 503 99 q 646 28 615 71 q 676 -94 676 -14 q 601 -271 676 -215 q 354 -326 526 -326 m 340 319 q 461 354 425 319 q 497 472 497 389 q 461 589 497 554 q 342 624 425 624 q 219 588 256 624 q 182 471 182 553 q 219 354 182 389 q 340 319 256 319 m 364 -239 q 525 -208 479 -239 q 571 -100 571 -176 q 556 -33 571 -56 q 504 -1 540 -10 q 400 7 468 7 l 250 14 q 188 -44 204 -19 q 172 -111 172 -69 q 215 -211 172 -183 q 364 -239 257 -239 m 328 1017 l 399 1017 l 571 822 l 467 822 l 365 943 l 261 822 l 157 822 l 328 1017 z "},"Ğ":{"ha":856,"x_min":79,"x_max":764,"o":"m 79 0 m 451 -14 q 231 39 313 -14 q 115 199 150 92 q 79 481 79 307 q 115 761 79 653 q 231 922 150 869 q 449 975 311 975 q 717 947 574 975 l 764 939 l 760 850 q 461 879 588 879 q 297 840 356 879 q 214 715 238 800 q 190 481 190 629 q 214 247 190 332 q 296 121 238 161 q 460 81 354 81 q 658 100 553 81 l 658 396 l 499 396 l 499 492 l 764 492 l 764 19 q 451 -14 589 -14 m 456 1093 q 301 1143 360 1093 q 238 1275 242 1193 l 333 1275 q 370 1200 335 1229 q 457 1171 406 1171 q 542 1200 507 1171 q 578 1275 576 1229 l 675 1275 q 611 1143 671 1193 q 456 1093 551 1093 z "},"ğ":{"ha":714,"x_min":69,"x_max":688,"o":"m 69 0 m 354 -326 q 134 -280 199 -326 q 69 -125 69 -233 q 80 -52 69 -81 q 113 -1 90 -24 q 179 56 135 21 q 150 93 160 68 q 140 146 140 118 q 149 185 140 164 q 188 261 157 207 q 78 469 78 310 q 143 649 78 590 q 340 708 208 708 q 482 690 404 708 l 688 696 l 688 607 l 556 610 q 590 552 579 586 q 601 465 601 518 q 538 289 601 342 q 336 236 474 236 q 265 242 293 236 q 247 193 254 214 q 240 157 240 172 q 269 110 240 121 q 357 99 297 99 l 411 99 q 559 85 503 99 q 646 28 615 71 q 676 -94 676 -14 q 601 -271 676 -215 q 354 -326 526 -326 m 340 319 q 461 354 425 319 q 497 472 497 389 q 461 589 497 554 q 342 624 425 624 q 219 588 256 624 q 182 471 182 553 q 219 354 182 389 q 340 319 256 319 m 364 -239 q 525 -208 479 -239 q 571 -100 571 -176 q 556 -33 571 -56 q 504 -1 540 -10 q 400 7 468 7 l 250 14 q 188 -44 204 -19 q 172 -111 172 -69 q 215 -211 172 -183 q 364 -239 257 -239 m 364 814 q 217 869 274 814 q 157 1008 161 924 l 242 1008 q 277 923 244 954 q 364 892 310 892 q 450 924 418 892 q 483 1008 482 956 l 569 1008 q 509 869 565 924 q 364 814 453 814 z "},"Ġ":{"ha":856,"x_min":79,"x_max":764,"o":"m 79 0 m 451 -14 q 231 39 313 -14 q 115 199 150 92 q 79 481 79 307 q 115 761 79 653 q 231 922 150 869 q 449 975 311 975 q 717 947 574 975 l 764 939 l 760 850 q 461 879 588 879 q 297 840 356 879 q 214 715 238 800 q 190 481 190 629 q 214 247 190 332 q 296 121 238 161 q 460 81 354 81 q 658 100 553 81 l 658 396 l 499 396 l 499 492 l 764 492 l 764 19 q 451 -14 589 -14 m 383 1233 l 486 1233 l 486 1113 l 383 1113 l 383 1233 z "},"ġ":{"ha":714,"x_min":69,"x_max":688,"o":"m 69 0 m 354 -326 q 134 -280 199 -326 q 69 -125 69 -233 q 80 -52 69 -81 q 113 -1 90 -24 q 179 56 135 21 q 150 93 160 68 q 140 146 140 118 q 149 185 140 164 q 188 261 157 207 q 78 469 78 310 q 143 649 78 590 q 340 708 208 708 q 482 690 404 708 l 688 696 l 688 607 l 556 610 q 590 552 579 586 q 601 465 601 518 q 538 289 601 342 q 336 236 474 236 q 265 242 293 236 q 247 193 254 214 q 240 157 240 172 q 269 110 240 121 q 357 99 297 99 l 411 99 q 559 85 503 99 q 646 28 615 71 q 676 -94 676 -14 q 601 -271 676 -215 q 354 -326 526 -326 m 340 319 q 461 354 425 319 q 497 472 497 389 q 461 589 497 554 q 342 624 425 624 q 219 588 256 624 q 182 471 182 553 q 219 354 182 389 q 340 319 256 319 m 364 -239 q 525 -208 479 -239 q 571 -100 571 -176 q 556 -33 571 -56 q 504 -1 540 -10 q 400 7 468 7 l 250 14 q 188 -44 204 -19 q 172 -111 172 -69 q 215 -211 172 -183 q 364 -239 257 -239 m 311 967 l 414 967 l 414 846 l 311 846 l 311 967 z "},"Ģ":{"ha":856,"x_min":79,"x_max":764,"o":"m 79 0 m 451 -14 q 231 39 313 -14 q 115 199 150 92 q 79 481 79 307 q 115 761 79 653 q 231 922 150 869 q 449 975 311 975 q 717 947 574 975 l 764 939 l 760 850 q 461 879 588 879 q 297 840 356 879 q 214 715 238 800 q 190 481 190 629 q 214 247 190 332 q 296 121 238 161 q 460 81 354 81 q 658 100 553 81 l 658 396 l 499 396 l 499 492 l 764 492 l 764 19 q 451 -14 589 -14 m 418 -108 l 521 -108 l 451 -396 l 361 -396 l 418 -108 z "},"ģ":{"ha":714,"x_min":69,"x_max":688,"o":"m 369 818 l 267 818 l 336 1106 l 426 1106 l 369 818 m 354 -326 q 134 -280 199 -326 q 69 -125 69 -233 q 80 -52 69 -81 q 113 -1 90 -24 q 179 56 135 21 q 150 93 160 68 q 140 146 140 118 q 149 185 140 164 q 188 261 157 207 q 78 469 78 310 q 143 649 78 590 q 340 708 208 708 q 482 690 404 708 l 688 696 l 688 607 l 556 610 q 590 552 579 586 q 601 465 601 518 q 538 289 601 342 q 336 236 474 236 q 265 242 293 236 q 247 193 254 214 q 240 157 240 172 q 269 110 240 121 q 357 99 297 99 l 411 99 q 559 85 503 99 q 646 28 615 71 q 676 -94 676 -14 q 601 -271 676 -215 q 354 -326 526 -326 m 340 319 q 461 354 425 319 q 497 472 497 389 q 461 589 497 554 q 342 624 425 624 q 219 588 256 624 q 182 471 182 553 q 219 354 182 389 q 340 319 256 319 m 364 -239 q 525 -208 479 -239 q 571 -100 571 -176 q 556 -33 571 -56 q 504 -1 540 -10 q 400 7 468 7 l 250 14 q 188 -44 204 -19 q 172 -111 172 -69 q 215 -211 172 -183 q 364 -239 257 -239 z "},"Ĥ":{"ha":938,"x_min":118,"x_max":819,"o":"m 118 0 m 819 961 l 819 0 l 714 0 l 714 435 l 225 435 l 225 0 l 118 0 l 118 961 l 225 961 l 225 531 l 714 531 l 714 961 l 819 961 m 425 1286 l 515 1286 l 701 1099 l 585 1099 l 471 1210 l 356 1099 l 239 1099 l 425 1286 z "},"ĥ":{"ha":746,"x_min":100,"x_max":653,"o":"m 100 0 m 100 997 l 204 997 l 204 656 q 317 696 265 683 q 424 708 369 708 q 563 676 514 708 q 633 569 613 643 q 653 367 653 496 l 653 0 l 549 0 l 549 364 q 537 519 549 467 q 492 593 525 571 q 396 615 460 615 q 231 583 317 615 l 204 574 l 204 0 l 100 0 l 100 997 m 335 1269 l 406 1269 l 578 1075 l 474 1075 l 372 1196 l 268 1075 l 164 1075 l 335 1269 z "},"Ħ":{"ha":953,"x_min":21,"x_max":940,"o":"m 124 706 l 21 706 l 21 796 l 124 796 l 124 961 l 231 961 l 231 796 l 719 796 l 719 961 l 825 961 l 825 796 l 940 796 l 940 706 l 825 706 l 825 0 l 719 0 l 719 435 l 231 435 l 231 0 l 124 0 l 124 706 m 719 531 l 719 706 l 231 706 l 231 531 l 719 531 z "},"ħ":{"ha":746,"x_min":14,"x_max":653,"o":"m 100 806 l 14 806 l 14 897 l 100 897 l 100 997 l 204 997 l 204 897 l 418 897 l 418 806 l 204 806 l 204 656 q 418 708 317 708 q 561 676 511 708 q 632 572 611 644 q 653 367 653 499 l 653 0 l 549 0 l 549 364 q 537 518 549 465 q 493 593 525 571 q 400 615 461 615 q 231 583 314 615 l 204 574 l 204 0 l 100 0 l 100 806 z "},"Ĩ":{"ha":342,"x_min":-69,"x_max":399,"o":"m 0 0 m 118 961 l 225 961 l 225 0 l 118 0 l 118 961 m 276 1115 q 161 1153 246 1115 q 57 1190 75 1190 q -28 1140 26 1190 l -46 1124 l -69 1201 q -5 1258 -40 1235 q 61 1282 31 1282 q 178 1244 92 1282 q 276 1207 263 1207 q 357 1256 304 1207 l 374 1271 l 399 1193 q 276 1115 333 1115 z "},"ĩ":{"ha":303,"x_min":-65,"x_max":374,"o":"m 0 0 m 100 694 l 203 694 l 203 0 l 100 0 l 100 694 m 254 850 q 154 883 225 850 q 64 915 79 915 q -22 874 32 915 l -40 860 l -65 926 q 61 999 3 999 q 163 967 88 999 q 251 935 238 935 q 332 975 279 935 l 350 988 l 374 921 q 254 850 308 850 z "},"Ī":{"ha":342,"x_min":-42,"x_max":390,"o":"m 0 0 m 118 961 l 225 961 l 225 0 l 118 0 l 118 961 m -42 1208 l 390 1208 l 390 1128 l -42 1128 l -42 1208 z "},"ī":{"ha":303,"x_min":-39,"x_max":343,"o":"m 0 0 m 100 694 l 203 694 l 203 0 l 100 0 l 100 694 m -39 949 l 343 949 l 343 867 l -39 867 l -39 949 z "},"Ĭ":{"ha":342,"x_min":-36,"x_max":401,"o":"m 0 0 m 118 961 l 225 961 l 225 0 l 118 0 l 118 961 m 182 1093 q 27 1143 86 1093 q -36 1275 -32 1193 l 60 1275 q 97 1200 61 1229 q 183 1171 132 1171 q 268 1200 233 1171 q 304 1275 303 1229 l 401 1275 q 338 1143 397 1193 q 182 1093 278 1093 z "},"ĭ":{"ha":303,"x_min":-54,"x_max":358,"o":"m 0 0 m 100 694 l 203 694 l 203 0 l 100 0 l 100 694 m 153 814 q 6 869 63 814 q -54 1008 -50 924 l 31 1008 q 66 923 33 954 q 153 892 99 892 q 239 924 207 892 q 272 1008 271 956 l 358 1008 q 298 869 354 924 q 153 814 242 814 z "},"Į":{"ha":342,"x_min":19,"x_max":257,"o":"m 257 -274 q 143 -286 194 -286 q 56 -253 92 -286 q 19 -175 19 -221 q 46 -89 19 -133 q 106 -14 72 -44 l 122 0 l 118 0 l 118 961 l 225 961 l 225 0 l 218 0 q 121 -142 121 -97 q 137 -185 121 -168 q 178 -201 153 -201 l 247 -193 l 257 -274 z "},"į":{"ha":303,"x_min":-1,"x_max":236,"o":"m 203 851 l 100 851 l 100 972 l 203 972 l 203 851 m 236 -274 q 122 -286 174 -286 q 35 -253 71 -286 q -1 -175 -1 -221 q 25 -89 -1 -133 q 85 -14 51 -44 l 101 0 l 100 0 l 100 694 l 203 694 l 203 0 l 197 0 q 100 -142 100 -97 q 116 -185 100 -168 q 157 -201 132 -201 l 226 -193 l 236 -274 z "},"İ":{"ha":342,"x_min":118,"x_max":225,"o":"m 118 0 m 118 961 l 225 961 l 225 0 l 118 0 l 118 961 m 119 1233 l 222 1233 l 222 1113 l 119 1113 l 119 1233 z "},"ı":{"ha":303,"x_min":100,"x_max":203,"o":"m 100 694 l 203 694 l 203 0 l 100 0 l 100 694 z "},"Ĵ":{"ha":401,"x_min":3,"x_max":465,"o":"m 3 0 m 25 -4 q 128 6 97 -4 q 170 46 158 15 q 182 147 182 76 l 182 961 l 288 961 l 289 132 q 259 -24 289 26 q 176 -87 229 -74 q 25 -100 124 -100 l 25 -4 m 189 1282 l 279 1282 l 465 1094 l 349 1094 l 235 1206 l 119 1094 l 3 1094 l 189 1282 z "},"ĵ":{"ha":304,"x_min":-68,"x_max":357,"o":"m 0 0 m -68 -229 q 42 -155 7 -186 q 89 -86 76 -124 q 101 18 101 -49 l 101 694 l 204 694 l 204 17 q 185 -124 204 -71 q 117 -219 165 -178 q -26 -310 69 -261 l -68 -229 m 114 1017 l 185 1017 l 357 822 l 253 822 l 151 943 l 47 822 l -57 822 l 114 1017 z "},"Ķ":{"ha":790,"x_min":118,"x_max":767,"o":"m 118 0 m 385 425 l 225 419 l 225 0 l 118 0 l 118 961 l 225 961 l 225 514 l 383 519 l 629 961 l 751 961 l 476 478 l 767 0 l 640 0 l 385 425 m 367 -108 l 469 -108 l 400 -396 l 310 -396 l 367 -108 z "},"ķ":{"ha":665,"x_min":100,"x_max":639,"o":"m 100 0 m 100 997 l 204 997 l 204 408 l 313 414 l 511 694 l 629 694 l 403 375 l 639 0 l 521 0 l 314 322 l 204 318 l 204 0 l 100 0 l 100 997 m 196 -108 l 299 -108 l 229 -396 l 139 -396 l 196 -108 z "},"Ĺ":{"ha":665,"x_min":118,"x_max":647,"o":"m 118 0 m 647 96 l 647 0 l 118 0 l 118 961 l 225 961 l 225 96 l 647 96 m 186 1154 l 486 1293 l 522 1201 l 218 1081 l 186 1154 z "},"ĺ":{"ha":321,"x_min":72,"x_max":408,"o":"m 72 0 m 108 997 l 213 997 l 213 0 l 108 0 l 108 997 m 72 1175 l 372 1311 l 408 1222 l 101 1104 l 72 1175 z "},"Ļ":{"ha":665,"x_min":118,"x_max":647,"o":"m 118 0 m 647 96 l 647 0 l 118 0 l 118 961 l 225 961 l 225 96 l 647 96 m 335 -108 l 438 -108 l 368 -396 l 278 -396 l 335 -108 z "},"ļ":{"ha":321,"x_min":46,"x_max":213,"o":"m 46 0 m 108 997 l 213 997 l 213 0 l 108 0 l 108 997 m 103 -108 l 206 -108 l 136 -396 l 46 -396 l 103 -108 z "},"Ľ":{"ha":686,"x_min":118,"x_max":647,"o":"m 610 642 l 508 642 l 508 967 l 610 967 l 610 642 m 647 96 l 647 0 l 118 0 l 118 961 l 225 961 l 225 96 l 647 96 z "},"ľ":{"ha":321,"x_min":108,"x_max":457,"o":"m 108 0 m 108 997 l 213 997 l 213 0 l 108 0 l 108 997 m 354 949 l 457 949 l 388 661 l 297 661 l 354 949 z "},"Ł":{"ha":671,"x_min":-6,"x_max":654,"o":"m 125 378 l 46 322 l -6 394 l 125 486 l 125 961 l 232 961 l 232 561 l 429 699 l 481 628 l 232 453 l 232 96 l 654 96 l 654 0 l 125 0 l 125 378 z "},"ł":{"ha":431,"x_min":14,"x_max":417,"o":"m 158 388 l 65 322 l 14 394 l 158 496 l 158 997 l 263 997 l 263 568 l 365 640 l 417 568 l 263 460 l 263 0 l 158 0 l 158 388 z "},"Ń":{"ha":939,"x_min":118,"x_max":821,"o":"m 118 0 m 821 961 l 821 0 l 625 0 l 251 867 l 225 867 l 225 0 l 118 0 l 118 961 l 318 961 l 688 94 l 715 94 l 715 961 l 821 961 m 306 1154 l 606 1293 l 642 1201 l 338 1081 l 306 1154 z "},"ń":{"ha":746,"x_min":100,"x_max":653,"o":"m 100 0 m 100 694 l 203 694 l 203 646 q 317 694 265 681 q 426 708 369 708 q 564 675 515 708 q 633 569 613 642 q 653 367 653 496 l 653 0 l 550 0 l 550 364 q 538 515 550 463 q 496 592 526 568 q 407 615 465 615 q 310 603 360 615 q 231 576 261 592 l 204 564 l 204 0 l 100 0 l 100 694 m 222 892 l 522 1028 l 558 939 l 251 821 l 222 892 z "},"Ņ":{"ha":939,"x_min":118,"x_max":821,"o":"m 118 0 m 821 961 l 821 0 l 625 0 l 251 867 l 225 867 l 225 0 l 118 0 l 118 961 l 318 961 l 688 94 l 715 94 l 715 961 l 821 961 m 450 -108 l 553 -108 l 483 -396 l 393 -396 l 450 -108 z "},"ņ":{"ha":746,"x_min":100,"x_max":653,"o":"m 100 0 m 100 694 l 203 694 l 203 646 q 317 694 265 681 q 426 708 369 708 q 564 675 515 708 q 633 569 613 642 q 653 367 653 496 l 653 0 l 550 0 l 550 364 q 538 515 550 463 q 496 592 526 568 q 407 615 465 615 q 310 603 360 615 q 231 576 261 592 l 204 564 l 204 0 l 100 0 l 100 694 m 233 -108 l 336 -108 l 267 -396 l 176 -396 l 233 -108 z "},"Ň":{"ha":939,"x_min":118,"x_max":821,"o":"m 118 0 m 821 961 l 821 0 l 625 0 l 251 867 l 225 867 l 225 0 l 118 0 l 118 961 l 318 961 l 688 94 l 715 94 l 715 961 l 821 961 m 239 1282 l 356 1282 l 471 1171 l 585 1282 l 701 1282 l 515 1094 l 425 1094 l 239 1282 z "},"ň":{"ha":746,"x_min":100,"x_max":653,"o":"m 100 0 m 100 694 l 203 694 l 203 646 q 317 694 265 681 q 426 708 369 708 q 564 675 515 708 q 633 569 613 642 q 653 367 653 496 l 653 0 l 550 0 l 550 364 q 538 515 550 463 q 496 592 526 568 q 407 615 465 615 q 310 603 360 615 q 231 576 261 592 l 204 564 l 204 0 l 100 0 l 100 694 m 269 1017 l 374 896 l 475 1017 l 579 1017 l 407 822 l 336 822 l 165 1017 l 269 1017 z "},"Ŋ":{"ha":939,"x_min":118,"x_max":822,"o":"m 558 -167 q 661 -157 631 -167 q 703 -117 692 -147 q 715 -15 715 -86 l 715 0 l 625 0 l 251 867 l 225 867 l 225 0 l 118 0 l 118 961 l 318 961 l 686 94 l 715 94 l 715 961 l 821 961 l 822 -31 q 807 -156 822 -110 q 756 -226 792 -203 q 657 -258 721 -250 q 558 -262 619 -262 l 558 -167 z "},"ŋ":{"ha":747,"x_min":100,"x_max":654,"o":"m 386 -242 q 492 -170 458 -200 q 538 -104 525 -140 q 550 -6 550 -68 l 550 360 q 538 510 550 457 q 495 589 526 564 q 406 614 464 614 q 317 602 367 614 q 233 575 267 590 l 203 563 l 203 0 l 100 0 l 100 694 l 203 694 l 203 649 q 422 708 322 708 q 561 674 511 708 q 633 565 611 639 q 654 361 654 490 l 654 -3 q 636 -144 654 -92 q 572 -238 618 -197 q 431 -329 525 -279 l 386 -242 z "},"Ō":{"ha":917,"x_min":79,"x_max":839,"o":"m 79 0 m 460 -14 q 233 38 317 -14 q 115 195 150 89 q 79 476 79 301 q 115 759 79 650 q 235 922 151 868 q 458 975 318 975 q 682 922 599 975 q 802 759 765 868 q 839 474 839 650 q 803 192 839 297 q 685 36 768 86 q 460 -14 603 -14 m 460 81 q 623 119 565 81 q 704 242 681 158 q 728 474 728 326 q 703 708 728 621 q 621 838 679 796 q 458 881 563 881 q 296 839 354 881 q 213 710 238 797 q 189 476 189 622 q 213 245 189 331 q 295 120 236 160 q 460 81 354 81 m 242 1208 l 674 1208 l 674 1128 l 242 1128 l 242 1208 z "},"ō":{"ha":733,"x_min":69,"x_max":664,"o":"m 69 0 m 367 -14 q 190 23 256 -14 q 97 138 125 60 q 69 343 69 215 q 99 555 69 475 q 193 672 128 635 q 367 708 258 708 q 541 671 476 708 q 635 554 606 633 q 664 343 664 475 q 636 138 664 215 q 544 23 608 60 q 367 -14 479 -14 m 368 76 q 485 102 444 76 q 541 184 525 128 q 557 343 557 240 q 540 510 557 451 q 483 593 524 568 q 368 618 443 618 q 252 593 293 618 q 194 510 211 568 q 176 343 176 451 q 192 185 176 242 q 249 102 208 128 q 368 76 290 76 m 178 965 l 560 965 l 560 883 l 178 883 l 178 965 z "},"Ŏ":{"ha":917,"x_min":79,"x_max":839,"o":"m 79 0 m 460 -14 q 233 38 317 -14 q 115 195 150 89 q 79 476 79 301 q 115 759 79 650 q 235 922 151 868 q 458 975 318 975 q 682 922 599 975 q 802 759 765 868 q 839 474 839 650 q 803 192 839 297 q 685 36 768 86 q 460 -14 603 -14 m 460 81 q 623 119 565 81 q 704 242 681 158 q 728 474 728 326 q 703 708 728 621 q 621 838 679 796 q 458 881 563 881 q 296 839 354 881 q 213 710 238 797 q 189 476 189 622 q 213 245 189 331 q 295 120 236 160 q 460 81 354 81 m 460 1093 q 305 1143 364 1093 q 242 1275 246 1193 l 338 1275 q 374 1200 339 1229 q 461 1171 410 1171 q 546 1200 511 1171 q 582 1275 581 1229 l 679 1275 q 615 1143 675 1193 q 460 1093 556 1093 z "},"ŏ":{"ha":733,"x_min":69,"x_max":664,"o":"m 69 0 m 367 -14 q 190 23 256 -14 q 97 138 125 60 q 69 343 69 215 q 99 555 69 475 q 193 672 128 635 q 367 708 258 708 q 541 671 476 708 q 635 554 606 633 q 664 343 664 475 q 636 138 664 215 q 544 23 608 60 q 367 -14 479 -14 m 368 76 q 485 102 444 76 q 541 184 525 128 q 557 343 557 240 q 540 510 557 451 q 483 593 524 568 q 368 618 443 618 q 252 593 293 618 q 194 510 211 568 q 176 343 176 451 q 192 185 176 242 q 249 102 208 128 q 368 76 290 76 m 371 814 q 224 869 281 814 q 164 1008 168 924 l 249 1008 q 284 923 251 954 q 371 892 317 892 q 457 924 425 892 q 490 1008 489 956 l 576 1008 q 516 869 572 924 q 371 814 460 814 z "},"Ő":{"ha":917,"x_min":79,"x_max":839,"o":"m 79 0 m 460 -14 q 233 38 317 -14 q 115 195 150 89 q 79 476 79 301 q 115 759 79 650 q 235 922 151 868 q 458 975 318 975 q 682 922 599 975 q 802 759 765 868 q 839 474 839 650 q 803 192 839 297 q 685 36 768 86 q 460 -14 603 -14 m 460 81 q 623 119 565 81 q 704 242 681 158 q 728 474 728 326 q 703 708 728 621 q 621 838 679 796 q 458 881 563 881 q 296 839 354 881 q 213 710 238 797 q 189 476 189 622 q 213 245 189 331 q 295 120 236 160 q 460 81 354 81 m 210 1090 l 407 1274 l 482 1225 l 281 1046 l 210 1090 m 483 1090 l 681 1272 l 757 1224 l 554 1044 l 483 1090 z "},"ő":{"ha":733,"x_min":69,"x_max":674,"o":"m 69 0 m 367 -14 q 190 23 256 -14 q 97 138 125 60 q 69 343 69 215 q 99 555 69 475 q 193 672 128 635 q 367 708 258 708 q 541 671 476 708 q 635 554 606 633 q 664 343 664 475 q 636 138 664 215 q 544 23 608 60 q 367 -14 479 -14 m 368 76 q 485 102 444 76 q 541 184 525 128 q 557 343 557 240 q 540 510 557 451 q 483 593 524 568 q 368 618 443 618 q 252 593 293 618 q 194 510 211 568 q 176 343 176 451 q 192 185 176 242 q 249 102 208 128 q 368 76 290 76 m 397 867 l 599 1060 l 674 1000 l 468 808 l 397 867 m 129 867 l 331 1058 l 406 1000 l 201 808 l 129 867 z "},"Œ":{"ha":1285,"x_min":79,"x_max":1219,"o":"m 447 -14 q 226 38 306 -14 q 113 196 146 89 q 79 482 79 303 q 114 768 79 660 q 229 928 149 876 q 447 981 310 981 q 643 967 561 981 l 1219 967 l 1219 864 l 749 864 l 749 546 l 1136 546 l 1136 443 l 749 443 l 749 103 l 1219 103 l 1219 -1 l 646 -1 q 447 -14 518 -14 m 461 90 q 643 100 540 90 l 643 864 q 458 876 497 876 q 295 838 353 876 q 214 714 238 799 q 190 482 190 629 q 213 250 190 333 q 294 128 236 167 q 461 90 353 90 z "},"œ":{"ha":1190,"x_min":69,"x_max":1128,"o":"m 368 -14 q 190 24 254 -14 q 97 140 125 61 q 69 350 69 218 q 99 557 69 479 q 194 672 129 635 q 368 708 260 708 q 522 674 464 708 q 613 563 581 640 q 849 708 675 708 q 1059 629 990 708 q 1128 383 1128 550 l 1122 303 l 664 303 q 706 135 664 189 q 833 81 747 81 q 1060 90 929 81 l 1100 93 l 1103 8 q 833 -14 951 -14 q 608 113 668 -14 q 521 16 578 46 q 368 -14 464 -14 m 1024 388 q 983 563 1024 511 q 849 615 942 615 q 663 388 663 615 l 1024 388 m 368 79 q 485 106 444 79 q 542 190 526 133 q 557 349 557 247 q 513 553 557 493 q 364 614 469 614 q 251 590 292 614 q 194 509 211 565 q 176 353 176 453 q 192 190 176 249 q 249 106 208 132 q 368 79 290 79 z "},"Ŕ":{"ha":856,"x_min":118,"x_max":789,"o":"m 118 0 m 118 961 l 474 961 q 704 890 628 961 q 781 669 781 818 q 604 390 781 446 l 789 0 l 671 0 l 497 368 l 225 368 l 225 0 l 118 0 l 118 961 m 475 463 q 671 665 671 463 q 474 867 671 867 l 225 867 l 225 463 l 475 463 m 260 1154 l 560 1293 l 596 1201 l 292 1081 l 260 1154 z "},"ŕ":{"ha":481,"x_min":93,"x_max":457,"o":"m 93 0 m 100 694 l 203 694 l 203 600 q 457 710 322 682 l 457 604 q 340 570 403 593 q 239 528 276 547 l 204 510 l 204 0 l 100 0 l 100 694 m 93 892 l 393 1028 l 429 939 l 122 821 l 93 892 z "},"Ŗ":{"ha":856,"x_min":118,"x_max":789,"o":"m 118 0 m 118 961 l 474 961 q 704 890 628 961 q 781 669 781 818 q 604 390 781 446 l 789 0 l 671 0 l 497 368 l 225 368 l 225 0 l 118 0 l 118 961 m 475 463 q 671 665 671 463 q 474 867 671 867 l 225 867 l 225 463 l 475 463 m 397 -108 l 500 -108 l 431 -396 l 340 -396 l 397 -108 z "},"ŗ":{"ha":481,"x_min":43,"x_max":457,"o":"m 43 0 m 100 694 l 203 694 l 203 600 q 457 710 322 682 l 457 604 q 340 570 403 593 q 239 528 276 547 l 204 510 l 204 0 l 100 0 l 100 694 m 100 -108 l 203 -108 l 133 -396 l 43 -396 l 100 -108 z "},"Ř":{"ha":856,"x_min":118,"x_max":789,"o":"m 118 0 m 118 961 l 474 961 q 704 890 628 961 q 781 669 781 818 q 604 390 781 446 l 789 0 l 671 0 l 497 368 l 225 368 l 225 0 l 118 0 l 118 961 m 475 463 q 671 665 671 463 q 474 867 671 867 l 225 867 l 225 463 l 475 463 m 186 1286 l 303 1286 l 418 1175 l 532 1286 l 649 1286 l 463 1099 l 372 1099 l 186 1286 z "},"ř":{"ha":481,"x_min":36,"x_max":457,"o":"m 36 0 m 100 694 l 203 694 l 203 600 q 457 710 322 682 l 457 604 q 340 570 403 593 q 239 528 276 547 l 204 510 l 204 0 l 100 0 l 100 694 m 140 1017 l 244 896 l 346 1017 l 450 1017 l 278 822 l 207 822 l 36 1017 l 140 1017 z "},"Ś":{"ha":753,"x_min":67,"x_max":686,"o":"m 67 0 m 379 -12 q 125 11 282 -12 l 75 18 l 86 107 q 374 82 276 82 q 579 275 579 82 q 560 358 579 328 q 497 408 542 389 q 365 444 451 428 q 188 499 251 468 q 96 581 125 529 q 67 718 67 632 q 376 976 67 976 q 667 949 483 976 l 657 858 q 383 882 457 882 q 175 725 175 882 q 195 634 175 665 q 264 583 215 603 q 418 540 313 564 q 577 488 521 517 q 660 410 633 458 q 686 283 686 363 q 379 -12 686 -12 m 226 1154 l 526 1293 l 563 1201 l 258 1081 l 226 1154 z "},"ś":{"ha":646,"x_min":63,"x_max":586,"o":"m 63 0 m 318 -14 q 114 6 235 -14 l 72 13 l 78 103 q 317 79 240 79 q 441 106 400 79 q 482 193 482 133 q 462 258 482 236 q 410 290 442 281 q 322 308 379 300 l 288 314 q 157 347 204 328 q 86 402 110 367 q 63 500 63 438 q 131 660 63 613 q 324 707 199 707 q 525 689 422 707 l 564 682 l 561 593 q 326 615 411 615 q 206 590 246 615 q 167 513 167 565 q 186 455 167 475 q 237 426 206 435 q 325 407 268 417 l 360 400 q 493 365 446 385 q 563 307 540 344 q 586 203 586 269 q 520 38 586 90 q 318 -14 454 -14 m 158 892 l 458 1028 l 494 939 l 188 821 l 158 892 z "},"Ŝ":{"ha":753,"x_min":67,"x_max":686,"o":"m 67 0 m 379 -12 q 125 11 282 -12 l 75 18 l 86 107 q 374 82 276 82 q 579 275 579 82 q 560 358 579 328 q 497 408 542 389 q 365 444 451 428 q 188 499 251 468 q 96 581 125 529 q 67 718 67 632 q 376 976 67 976 q 667 949 483 976 l 657 858 q 383 882 457 882 q 175 725 175 882 q 195 634 175 665 q 264 583 215 603 q 418 540 313 564 q 577 488 521 517 q 660 410 633 458 q 686 283 686 363 q 379 -12 686 -12 m 336 1282 l 426 1282 l 613 1094 l 496 1094 l 382 1206 l 267 1094 l 150 1094 l 336 1282 z "},"ŝ":{"ha":646,"x_min":63,"x_max":586,"o":"m 63 0 m 318 -14 q 114 6 235 -14 l 72 13 l 78 103 q 317 79 240 79 q 441 106 400 79 q 482 193 482 133 q 462 258 482 236 q 410 290 442 281 q 322 308 379 300 l 288 314 q 157 347 204 328 q 86 402 110 367 q 63 500 63 438 q 131 660 63 613 q 324 707 199 707 q 525 689 422 707 l 564 682 l 561 593 q 326 615 411 615 q 206 590 246 615 q 167 513 167 565 q 186 455 167 475 q 237 426 206 435 q 325 407 268 417 l 360 400 q 493 365 446 385 q 563 307 540 344 q 586 203 586 269 q 520 38 586 90 q 318 -14 454 -14 m 289 1017 l 360 1017 l 532 822 l 428 822 l 326 943 l 222 822 l 118 822 l 289 1017 z "},"Ş":{"ha":753,"x_min":67,"x_max":686,"o":"m 686 283 q 415 -11 686 6 l 415 -68 q 535 -91 500 -68 q 569 -176 569 -114 q 440 -301 569 -301 q 338 -294 382 -301 l 321 -292 l 325 -225 q 417 -229 379 -229 q 478 -176 478 -229 q 417 -129 478 -129 l 358 -129 l 358 -12 q 125 11 268 -11 l 75 18 l 86 107 q 374 82 276 82 q 579 275 579 82 q 560 358 579 328 q 497 408 542 389 q 365 444 451 428 q 188 499 251 468 q 96 581 125 529 q 67 718 67 632 q 376 976 67 976 q 667 949 483 976 l 657 858 q 383 882 457 882 q 175 725 175 882 q 195 634 175 665 q 264 583 215 603 q 418 540 313 564 q 577 488 521 517 q 660 410 633 458 q 686 283 686 363 z "},"ş":{"ha":646,"x_min":63,"x_max":586,"o":"m 586 203 q 526 42 586 94 q 340 -14 465 -10 l 340 -68 q 460 -91 425 -68 q 494 -176 494 -114 q 365 -301 494 -301 q 263 -294 307 -301 l 246 -292 l 250 -225 q 342 -229 304 -229 q 403 -176 403 -229 q 342 -129 403 -129 l 283 -129 l 283 -12 q 114 6 218 -11 l 72 13 l 78 103 q 317 79 240 79 q 441 106 400 79 q 482 193 482 133 q 462 258 482 236 q 410 290 442 281 q 322 308 379 300 l 288 314 q 157 347 204 328 q 86 402 110 367 q 63 500 63 438 q 131 660 63 613 q 324 707 199 707 q 525 689 422 707 l 564 682 l 561 593 q 326 615 411 615 q 206 590 246 615 q 167 513 167 565 q 186 455 167 475 q 237 426 206 435 q 325 407 268 417 l 360 400 q 493 365 446 385 q 563 307 540 344 q 586 203 586 269 z "},"Š":{"ha":753,"x_min":67,"x_max":686,"o":"m 67 0 m 379 -12 q 125 11 282 -12 l 75 18 l 86 107 q 374 82 276 82 q 579 275 579 82 q 560 358 579 328 q 497 408 542 389 q 365 444 451 428 q 188 499 251 468 q 96 581 125 529 q 67 718 67 632 q 376 976 67 976 q 667 949 483 976 l 657 858 q 383 882 457 882 q 175 725 175 882 q 195 634 175 665 q 264 583 215 603 q 418 540 313 564 q 577 488 521 517 q 660 410 633 458 q 686 283 686 363 q 379 -12 686 -12 m 161 1286 l 278 1286 l 393 1175 l 507 1286 l 624 1286 l 438 1099 l 347 1099 l 161 1286 z "},"š":{"ha":646,"x_min":63,"x_max":586,"o":"m 63 0 m 318 -14 q 114 6 235 -14 l 72 13 l 78 103 q 317 79 240 79 q 441 106 400 79 q 482 193 482 133 q 462 258 482 236 q 410 290 442 281 q 322 308 379 300 l 288 314 q 157 347 204 328 q 86 402 110 367 q 63 500 63 438 q 131 660 63 613 q 324 707 199 707 q 525 689 422 707 l 564 682 l 561 593 q 326 615 411 615 q 206 590 246 615 q 167 513 167 565 q 186 455 167 475 q 237 426 206 435 q 325 407 268 417 l 360 400 q 493 365 446 385 q 563 307 540 344 q 586 203 586 269 q 520 38 586 90 q 318 -14 454 -14 m 233 1017 l 338 896 l 439 1017 l 543 1017 l 371 822 l 300 822 l 129 1017 l 233 1017 z "},"Ţ":{"ha":731,"x_min":18,"x_max":713,"o":"m 396 0 l 396 -68 q 515 -91 481 -68 q 550 -176 550 -114 q 421 -301 550 -301 q 318 -294 363 -301 l 301 -292 l 306 -225 q 397 -229 360 -229 q 458 -176 458 -229 q 397 -129 458 -129 l 339 -129 l 339 0 l 314 0 l 314 865 l 18 865 l 18 961 l 713 961 l 713 865 l 419 865 l 419 0 l 396 0 z "},"ţ":{"ha":488,"x_min":38,"x_max":469,"o":"m 38 0 m 321 -15 q 210 8 250 -15 q 153 85 171 31 q 136 239 136 140 l 136 604 l 38 604 l 38 694 l 136 694 l 136 907 l 239 907 l 239 694 l 460 694 l 460 604 l 239 604 l 239 272 q 244 156 239 194 q 272 98 250 118 q 339 78 293 78 l 463 86 l 469 0 q 321 -15 371 -15 m 238 -301 q 135 -294 179 -301 l 118 -292 l 122 -225 q 214 -229 176 -229 q 275 -176 275 -229 q 214 -129 275 -129 l 156 -129 l 156 1 l 213 1 l 213 -68 q 332 -91 297 -68 q 367 -176 367 -114 q 238 -301 367 -301 z "},"Ť":{"ha":731,"x_min":18,"x_max":713,"o":"m 18 0 m 314 865 l 18 865 l 18 961 l 713 961 l 713 865 l 419 865 l 419 0 l 314 0 l 314 865 m 135 1286 l 251 1286 l 367 1175 l 481 1286 l 597 1286 l 411 1099 l 321 1099 l 135 1286 z "},"ť":{"ha":600,"x_min":38,"x_max":614,"o":"m 514 967 l 614 967 l 614 642 l 514 642 l 514 967 m 321 -15 q 210 8 250 -15 q 153 85 171 31 q 136 239 136 140 l 136 604 l 38 604 l 38 694 l 136 694 l 136 907 l 239 907 l 239 694 l 460 694 l 460 604 l 239 604 l 239 272 q 244 156 239 194 q 272 98 250 118 q 339 78 293 78 l 463 86 l 469 0 q 321 -15 371 -15 z "},"Ŧ":{"ha":735,"x_min":21,"x_max":715,"o":"m 317 417 l 90 417 l 90 508 l 317 508 l 317 865 l 21 865 l 21 961 l 715 961 l 715 865 l 422 865 l 422 508 l 650 508 l 650 417 l 422 417 l 422 0 l 317 0 l 317 417 z "},"ŧ":{"ha":492,"x_min":40,"x_max":472,"o":"m 332 -15 q 216 8 257 -15 q 157 85 175 31 q 139 239 139 139 l 139 351 l 63 351 l 63 433 l 139 433 l 139 600 l 40 600 l 40 694 l 139 694 l 139 907 l 243 907 l 243 694 l 463 694 l 463 600 l 243 600 l 243 433 l 429 433 l 429 351 l 243 351 l 243 276 q 250 153 243 192 q 277 99 257 114 q 343 83 297 83 l 467 90 l 472 0 q 332 -15 376 -15 z "},"Ũ":{"ha":894,"x_min":111,"x_max":783,"o":"m 111 0 m 446 -14 q 194 59 276 -14 q 111 292 111 132 l 111 961 l 218 961 l 218 289 q 443 81 218 81 q 619 131 561 81 q 678 289 678 181 l 678 961 l 783 961 l 783 292 q 699 60 783 133 q 446 -14 615 -14 m 558 1115 q 443 1153 528 1115 q 339 1190 357 1190 q 254 1140 308 1190 l 236 1124 l 213 1201 q 277 1258 242 1235 q 343 1282 313 1282 q 460 1244 374 1282 q 558 1207 544 1207 q 639 1256 586 1207 l 656 1271 l 681 1193 q 558 1115 615 1115 z "},"ũ":{"ha":738,"x_min":93,"x_max":638,"o":"m 93 0 m 317 -14 q 180 19 228 -14 q 113 125 132 51 q 93 332 93 199 l 93 694 l 197 694 l 197 333 q 208 176 197 229 q 249 101 219 124 q 339 79 278 79 q 533 131 433 79 l 533 694 l 638 694 l 638 0 l 533 0 l 533 49 q 428 1 476 15 q 317 -14 379 -14 m 465 850 q 365 883 436 850 q 275 915 290 915 q 189 874 243 915 l 171 860 l 146 926 q 272 999 214 999 q 374 967 299 999 q 463 935 449 935 q 543 975 490 935 l 561 988 l 585 921 q 465 850 519 850 z "},"Ū":{"ha":894,"x_min":111,"x_max":783,"o":"m 111 0 m 446 -14 q 194 59 276 -14 q 111 292 111 132 l 111 961 l 218 961 l 218 289 q 443 81 218 81 q 619 131 561 81 q 678 289 678 181 l 678 961 l 783 961 l 783 292 q 699 60 783 133 q 446 -14 615 -14 m 233 1208 l 665 1208 l 665 1128 l 233 1128 l 233 1208 z "},"ū":{"ha":738,"x_min":93,"x_max":638,"o":"m 93 0 m 317 -14 q 180 19 228 -14 q 113 125 132 51 q 93 332 93 199 l 93 694 l 197 694 l 197 333 q 208 176 197 229 q 249 101 219 124 q 339 79 278 79 q 533 131 433 79 l 533 694 l 638 694 l 638 0 l 533 0 l 533 49 q 428 1 476 15 q 317 -14 379 -14 m 175 949 l 557 949 l 557 867 l 175 867 l 175 949 z "},"Ŭ":{"ha":894,"x_min":111,"x_max":783,"o":"m 111 0 m 446 -14 q 194 59 276 -14 q 111 292 111 132 l 111 961 l 218 961 l 218 289 q 443 81 218 81 q 619 131 561 81 q 678 289 678 181 l 678 961 l 783 961 l 783 292 q 699 60 783 133 q 446 -14 615 -14 m 450 1093 q 295 1143 354 1093 q 232 1275 236 1193 l 328 1275 q 365 1200 329 1229 q 451 1171 400 1171 q 536 1200 501 1171 q 572 1275 571 1229 l 669 1275 q 606 1143 665 1193 q 450 1093 546 1093 z "},"ŭ":{"ha":738,"x_min":93,"x_max":638,"o":"m 93 0 m 317 -14 q 180 19 228 -14 q 113 125 132 51 q 93 332 93 199 l 93 694 l 197 694 l 197 333 q 208 176 197 229 q 249 101 219 124 q 339 79 278 79 q 533 131 433 79 l 533 694 l 638 694 l 638 0 l 533 0 l 533 49 q 428 1 476 15 q 317 -14 379 -14 m 361 814 q 215 869 271 814 q 154 1008 158 924 l 239 1008 q 274 923 242 954 q 361 892 307 892 q 447 924 415 892 q 481 1008 479 956 l 567 1008 q 506 869 563 924 q 361 814 450 814 z "},"Ů":{"ha":894,"x_min":111,"x_max":783,"o":"m 111 0 m 446 -14 q 194 59 276 -14 q 111 292 111 132 l 111 961 l 218 961 l 218 289 q 443 81 218 81 q 619 131 561 81 q 678 289 678 181 l 678 961 l 783 961 l 783 292 q 699 60 783 133 q 446 -14 615 -14 m 450 1028 q 331 1067 376 1028 q 285 1175 285 1107 q 331 1282 285 1243 q 450 1321 376 1321 q 569 1282 524 1321 q 614 1175 614 1243 q 569 1067 614 1107 q 450 1028 524 1028 m 450 1100 q 513 1120 490 1100 q 536 1175 536 1140 q 513 1229 536 1210 q 450 1249 490 1249 q 364 1175 364 1249 q 387 1120 364 1140 q 450 1100 410 1100 z "},"ů":{"ha":738,"x_min":93,"x_max":638,"o":"m 93 0 m 317 -14 q 180 19 228 -14 q 113 125 132 51 q 93 332 93 199 l 93 694 l 197 694 l 197 333 q 208 176 197 229 q 249 101 219 124 q 339 79 278 79 q 533 131 433 79 l 533 694 l 638 694 l 638 0 l 533 0 l 533 49 q 428 1 476 15 q 317 -14 379 -14 m 368 751 q 268 794 308 751 q 228 897 228 836 q 268 999 228 957 q 368 1040 308 1040 q 468 999 428 1040 q 508 897 508 957 q 468 794 508 836 q 368 751 428 751 m 368 818 q 422 841 400 818 q 444 897 444 864 q 422 952 444 929 q 368 975 400 975 q 314 952 336 975 q 292 897 292 929 q 314 841 292 864 q 368 818 336 818 z "},"Ű":{"ha":894,"x_min":111,"x_max":783,"o":"m 111 0 m 446 -14 q 194 59 276 -14 q 111 292 111 132 l 111 961 l 218 961 l 218 289 q 443 81 218 81 q 619 131 561 81 q 678 289 678 181 l 678 961 l 783 961 l 783 292 q 699 60 783 133 q 446 -14 615 -14 m 215 1090 l 413 1274 l 488 1225 l 286 1046 l 215 1090 m 489 1090 l 686 1272 l 763 1224 l 560 1044 l 489 1090 z "},"ű":{"ha":738,"x_min":93,"x_max":694,"o":"m 93 0 m 317 -14 q 180 19 228 -14 q 113 125 132 51 q 93 332 93 199 l 93 694 l 197 694 l 197 333 q 208 176 197 229 q 249 101 219 124 q 339 79 278 79 q 533 131 433 79 l 533 694 l 638 694 l 638 0 l 533 0 l 533 49 q 428 1 476 15 q 317 -14 379 -14 m 418 867 l 619 1060 l 694 1000 l 489 808 l 418 867 m 150 867 l 351 1058 l 426 1000 l 222 808 l 150 867 z "},"Ų":{"ha":894,"x_min":111,"x_max":783,"o":"m 783 961 l 783 292 q 731 94 783 165 q 574 -1 679 22 q 478 -142 478 -97 q 494 -185 478 -168 q 535 -201 510 -201 l 604 -193 l 614 -274 q 500 -286 551 -286 q 413 -253 449 -286 q 376 -175 376 -221 q 403 -89 376 -133 q 463 -14 429 -44 l 446 -14 q 194 59 276 -14 q 111 292 111 132 l 111 961 l 218 961 l 218 289 q 443 81 218 81 q 619 131 561 81 q 678 289 678 181 l 678 961 l 783 961 z "},"ų":{"ha":738,"x_min":93,"x_max":668,"o":"m 668 -274 q 554 -286 606 -286 q 467 -253 503 -286 q 431 -175 431 -221 q 457 -89 431 -133 q 517 -14 483 -44 l 533 0 l 533 49 q 428 1 476 15 q 317 -14 379 -14 q 180 19 228 -14 q 113 125 132 51 q 93 332 93 199 l 93 694 l 197 694 l 197 333 q 208 176 197 229 q 249 101 219 124 q 339 79 278 79 q 533 131 433 79 l 533 694 l 638 694 l 638 0 l 629 0 q 532 -142 532 -97 q 548 -185 532 -168 q 589 -201 564 -201 l 658 -193 l 668 -274 z "},"Ŵ":{"ha":1231,"x_min":42,"x_max":1188,"o":"m 42 0 m 42 961 l 153 961 l 317 94 l 357 94 l 553 953 l 678 953 l 874 94 l 914 94 l 1078 961 l 1188 961 l 993 0 l 797 0 l 615 821 l 433 0 l 238 0 l 42 961 m 571 1282 l 661 1282 l 847 1094 l 731 1094 l 617 1206 l 501 1094 l 385 1094 l 571 1282 z "},"ŵ":{"ha":1058,"x_min":43,"x_max":1015,"o":"m 43 0 m 43 694 l 147 694 l 288 90 l 310 90 l 475 681 l 583 681 l 749 90 l 772 90 l 911 694 l 1015 694 l 850 0 l 676 0 l 529 543 l 382 0 l 208 0 l 43 694 m 494 1017 l 565 1017 l 738 822 l 633 822 l 532 943 l 428 822 l 324 822 l 494 1017 z "},"Ŷ":{"ha":747,"x_min":14,"x_max":733,"o":"m 14 0 m 321 404 l 14 961 l 135 961 l 374 511 l 613 961 l 733 961 l 428 404 l 428 0 l 321 0 l 321 404 m 331 1286 l 421 1286 l 607 1099 l 490 1099 l 376 1210 l 261 1099 l 144 1099 l 331 1286 z "},"ŷ":{"ha":671,"x_min":35,"x_max":638,"o":"m 35 0 m 335 0 l 232 0 l 35 694 l 139 694 l 313 90 l 358 90 l 533 694 l 638 694 l 349 -308 l 244 -308 l 335 0 m 303 1017 l 374 1017 l 546 822 l 442 822 l 340 943 l 236 822 l 132 822 l 303 1017 z "},"Ÿ":{"ha":747,"x_min":14,"x_max":733,"o":"m 14 0 m 321 404 l 14 961 l 135 961 l 374 511 l 613 961 l 733 961 l 428 404 l 428 0 l 321 0 l 321 404 m 181 1247 l 282 1247 l 282 1122 l 181 1122 l 181 1247 m 464 1247 l 564 1247 l 564 1122 l 464 1122 l 464 1247 z "},"Ź":{"ha":744,"x_min":60,"x_max":685,"o":"m 60 0 m 60 122 l 561 836 l 561 867 l 60 867 l 60 961 l 685 961 l 685 836 l 182 122 l 182 94 l 685 94 l 685 -1 l 60 -1 l 60 122 m 213 1154 l 513 1293 l 549 1201 l 244 1081 l 213 1154 z "},"ź":{"ha":632,"x_min":58,"x_max":574,"o":"m 58 0 m 58 93 l 447 601 l 58 601 l 58 694 l 574 694 l 574 601 l 185 93 l 574 93 l 574 0 l 58 0 l 58 93 m 157 892 l 457 1028 l 493 939 l 186 821 l 157 892 z "},"Ż":{"ha":744,"x_min":60,"x_max":685,"o":"m 60 0 m 60 122 l 561 836 l 561 867 l 60 867 l 60 961 l 685 961 l 685 836 l 182 122 l 182 94 l 685 94 l 685 -1 l 60 -1 l 60 122 m 319 1233 l 422 1233 l 422 1113 l 319 1113 l 319 1233 z "},"ż":{"ha":632,"x_min":58,"x_max":574,"o":"m 58 0 m 58 93 l 447 601 l 58 601 l 58 694 l 574 694 l 574 601 l 185 93 l 574 93 l 574 0 l 58 0 l 58 93 m 264 967 l 367 967 l 367 846 l 264 846 l 264 967 z "},"Ž":{"ha":744,"x_min":60,"x_max":685,"o":"m 60 0 m 60 122 l 561 836 l 561 867 l 60 867 l 60 961 l 685 961 l 685 836 l 182 122 l 182 94 l 685 94 l 685 -1 l 60 -1 l 60 122 m 151 1286 l 268 1286 l 383 1175 l 497 1286 l 614 1286 l 428 1099 l 338 1099 l 151 1286 z "},"ž":{"ha":632,"x_min":58,"x_max":574,"o":"m 58 0 m 58 93 l 447 601 l 58 601 l 58 694 l 574 694 l 574 601 l 185 93 l 574 93 l 574 0 l 58 0 l 58 93 m 218 1017 l 322 896 l 424 1017 l 528 1017 l 356 822 l 285 822 l 114 1017 l 218 1017 z "},"ƒ":{"ha":778,"x_min":54,"x_max":613,"o":"m 190 -326 q 75 -318 138 -326 l 54 -315 l 56 -226 q 188 -233 149 -233 q 262 -197 238 -233 q 286 -75 286 -160 l 286 508 l 199 508 l 199 597 l 286 597 l 286 672 q 327 888 286 818 q 474 957 368 957 q 590 947 518 957 l 613 944 l 611 857 q 493 863 556 863 q 390 703 390 863 l 390 597 l 592 597 l 592 508 l 390 508 l 390 -76 q 370 -225 390 -171 q 307 -303 350 -279 q 190 -326 264 -326 z "},"Ǻ":{"ha":828,"x_min":33,"x_max":794,"o":"m 33 0 m 236 1283 l 536 1422 l 572 1331 l 268 1210 l 236 1283 m 619 247 l 208 247 l 139 0 l 33 0 l 289 929 q 247 1033 247 968 q 293 1140 247 1101 q 413 1179 339 1179 q 531 1140 486 1179 q 576 1033 576 1101 q 539 932 576 972 l 794 0 l 689 0 l 619 247 m 413 1107 q 326 1033 326 1107 q 342 986 326 1006 q 385 961 357 967 l 440 961 q 483 986 468 967 q 499 1033 499 1006 q 476 1088 499 1068 q 413 1107 453 1107 m 232 343 l 596 343 l 450 869 l 378 869 l 232 343 z "},"ǻ":{"ha":696,"x_min":56,"x_max":671,"o":"m 56 0 m 183 1144 l 483 1281 l 519 1192 l 213 1074 l 183 1144 m 251 -14 q 106 40 156 -14 q 56 196 56 94 q 106 344 56 296 q 268 404 157 393 l 486 425 l 486 485 q 372 617 486 617 q 99 599 260 617 l 94 678 q 365 708 243 708 q 537 655 483 708 q 590 485 590 601 l 590 129 q 671 68 594 78 l 667 -14 q 501 42 557 -14 q 251 -14 378 -14 m 268 74 q 454 106 361 74 l 486 117 l 486 346 l 281 326 q 190 290 218 321 q 163 201 163 260 q 268 74 163 74 m 354 751 q 254 794 294 751 q 214 897 214 836 q 254 999 214 957 q 354 1040 294 1040 q 454 999 414 1040 q 494 897 494 957 q 454 794 494 836 q 354 751 414 751 m 354 818 q 408 841 386 818 q 431 897 431 864 q 408 952 431 929 q 354 975 386 975 q 300 952 322 975 q 278 897 278 929 q 300 841 278 864 q 354 818 322 818 z "},"Ǽ":{"ha":1217,"x_min":28,"x_max":1151,"o":"m 28 0 m 339 967 l 1151 967 l 1151 865 l 672 865 l 672 546 l 1068 546 l 1068 444 l 672 444 l 672 101 l 1151 101 l 1151 0 l 567 0 l 567 243 l 218 243 l 138 0 l 28 0 l 339 967 m 567 346 l 568 865 l 417 865 l 247 346 l 567 346 m 574 1154 l 874 1293 l 910 1201 l 606 1081 l 574 1154 z "},"ǽ":{"ha":1117,"x_min":56,"x_max":1054,"o":"m 56 0 m 244 -14 q 103 41 151 -14 q 56 203 56 96 q 80 316 56 275 q 158 378 104 357 q 307 408 213 399 l 486 425 l 486 482 q 365 608 486 608 q 144 597 282 608 l 101 594 l 97 688 q 371 708 263 708 q 558 607 513 708 q 771 708 625 708 q 985 629 917 708 q 1054 383 1054 550 l 1049 303 l 590 303 q 632 135 590 190 q 760 81 674 81 q 986 90 854 81 l 1026 93 l 1029 8 q 747 -14 878 -14 q 556 61 622 -14 l 511 42 q 244 -14 392 -14 m 950 388 q 910 563 950 511 q 776 615 869 615 q 636 560 682 615 q 590 388 590 506 l 950 388 m 261 76 q 387 94 318 76 q 483 128 456 113 l 483 340 l 281 324 q 191 289 219 318 q 163 201 163 260 q 261 76 163 76 m 403 892 l 703 1028 l 739 939 l 432 821 l 403 892 z "},"Ǿ":{"ha":917,"x_min":79,"x_max":839,"o":"m 79 0 m 133 -125 l 215 50 q 111 207 143 104 q 79 476 79 310 q 115 759 79 650 q 235 922 151 868 q 458 975 318 975 q 633 946 563 975 l 711 1110 l 792 1076 l 710 900 q 839 476 839 792 q 803 192 839 299 q 685 36 768 86 q 458 -14 603 -14 q 292 10 365 -14 l 213 -161 l 133 -125 m 592 854 q 458 881 540 881 q 295 839 353 881 q 213 707 238 797 q 189 460 189 617 q 261 150 189 231 l 592 854 m 458 81 q 623 119 565 81 q 704 244 681 158 q 728 485 728 331 q 661 797 728 708 l 335 100 q 458 81 385 81 m 290 1154 l 590 1293 l 626 1201 l 322 1081 l 290 1154 z "},"ǿ":{"ha":733,"x_min":69,"x_max":664,"o":"m 69 0 m 132 -131 l 193 21 q 98 138 126 58 q 69 356 69 217 q 138 625 69 542 q 367 708 207 708 q 469 697 418 708 l 529 842 l 599 815 l 539 671 q 664 356 664 603 q 636 141 664 221 q 544 24 608 61 q 367 -14 479 -14 q 261 -3 313 -14 l 201 -156 l 132 -131 m 436 610 l 367 618 q 219 563 261 618 q 176 379 176 507 q 187 205 176 268 q 235 111 197 142 l 436 610 m 367 76 q 486 102 446 76 q 542 188 526 128 q 557 363 557 247 q 499 579 557 526 l 296 83 q 367 76 324 76 m 200 892 l 500 1028 l 536 939 l 229 821 l 200 892 z "},"Ș":{"ha":753,"x_min":67,"x_max":686,"o":"m 67 0 m 379 -12 q 125 11 282 -12 l 75 18 l 86 107 q 374 82 276 82 q 579 275 579 82 q 560 358 579 328 q 497 408 542 389 q 365 444 451 428 q 188 499 251 468 q 96 581 125 529 q 67 718 67 632 q 376 976 67 976 q 667 949 483 976 l 657 858 q 383 882 457 882 q 175 725 175 882 q 195 634 175 665 q 264 583 215 603 q 418 540 313 564 q 577 488 521 517 q 660 410 633 458 q 686 283 686 363 q 379 -12 686 -12 m 346 -108 l 449 -108 l 379 -396 l 289 -396 l 346 -108 z "},"ș":{"ha":646,"x_min":63,"x_max":586,"o":"m 63 0 m 318 -14 q 114 6 235 -14 l 72 13 l 78 103 q 317 79 240 79 q 441 106 400 79 q 482 193 482 133 q 462 258 482 236 q 410 290 442 281 q 322 308 379 300 l 288 314 q 157 347 204 328 q 86 402 110 367 q 63 500 63 438 q 131 660 63 613 q 324 707 199 707 q 525 689 422 707 l 564 682 l 561 593 q 326 615 411 615 q 206 590 246 615 q 167 513 167 565 q 186 455 167 475 q 237 426 206 435 q 325 407 268 417 l 360 400 q 493 365 446 385 q 563 307 540 344 q 586 203 586 269 q 520 38 586 90 q 318 -14 454 -14 m 211 -108 l 314 -108 l 244 -396 l 154 -396 l 211 -108 z "},"Ț":{"ha":731,"x_min":18,"x_max":713,"o":"m 18 0 m 314 865 l 18 865 l 18 961 l 713 961 l 713 865 l 419 865 l 419 0 l 314 0 l 314 865 m 343 -108 l 446 -108 l 376 -396 l 286 -396 l 343 -108 z "},"ț":{"ha":488,"x_min":38,"x_max":469,"o":"m 38 0 m 321 -15 q 210 8 250 -15 q 153 85 171 31 q 136 239 136 140 l 136 604 l 38 604 l 38 694 l 136 694 l 136 907 l 239 907 l 239 694 l 460 694 l 460 604 l 239 604 l 239 272 q 244 156 239 194 q 272 98 250 118 q 339 78 293 78 l 463 86 l 469 0 q 321 -15 371 -15 m 197 -108 l 300 -108 l 231 -396 l 140 -396 l 197 -108 z "},"ˆ":{"ha":328,"x_min":-26,"x_max":388,"o":"m 144 1017 l 215 1017 l 388 822 l 283 822 l 182 943 l 78 822 l -26 822 l 144 1017 z "},"ˇ":{"ha":328,"x_min":-24,"x_max":390,"o":"m 81 1017 l 185 896 l 286 1017 l 390 1017 l 218 822 l 147 822 l -24 1017 l 81 1017 z "},"˘":{"ha":328,"x_min":-24,"x_max":389,"o":"m 183 814 q 37 869 93 814 q -24 1008 -19 924 l 61 1008 q 97 923 64 954 q 183 892 129 892 q 269 924 238 892 q 303 1008 301 956 l 389 1008 q 328 869 385 924 q 183 814 272 814 z "},"˙":{"ha":328,"x_min":113,"x_max":215,"o":"m 113 967 l 215 967 l 215 846 l 113 846 l 113 967 z "},"˚":{"ha":328,"x_min":29,"x_max":310,"o":"m 169 751 q 69 794 110 751 q 29 897 29 836 q 69 999 29 957 q 169 1040 110 1040 q 269 999 229 1040 q 310 897 310 957 q 269 794 310 836 q 169 751 229 751 m 169 818 q 224 841 201 818 q 246 897 246 864 q 224 952 246 929 q 169 975 201 975 q 115 952 138 975 q 93 897 93 929 q 115 841 93 864 q 169 818 138 818 z "},"˛":{"ha":625,"x_min":261,"x_max":499,"o":"m 385 -286 q 297 -253 333 -286 q 261 -175 261 -221 q 288 -89 261 -133 q 347 -14 314 -44 l 376 11 l 461 1 q 363 -142 363 -97 q 378 -185 363 -168 q 419 -201 394 -201 l 489 -193 l 499 -274 q 385 -286 436 -286 z "},"˜":{"ha":328,"x_min":-42,"x_max":397,"o":"m 278 850 q 178 883 249 850 q 88 915 103 915 q 1 874 56 915 l -17 860 l -42 926 q 85 999 26 999 q 186 967 111 999 q 275 935 261 935 q 356 975 303 935 l 374 988 l 397 921 q 278 850 332 850 z "},"˝":{"ha":328,"x_min":-71,"x_max":474,"o":"m 197 867 l 399 1060 l 474 1000 l 268 808 l 197 867 m -71 867 l 131 1058 l 206 1000 l 1 808 l -71 867 z "},"π":{"ha":778,"x_min":31,"x_max":736,"o":"m 724 -6 q 582 13 629 -6 q 517 76 535 31 q 499 214 499 122 l 499 604 l 282 604 l 243 0 l 138 0 l 181 604 q 47 590 103 604 l 31 586 l 31 674 q 228 694 111 694 l 554 694 q 714 708 649 694 l 736 714 l 736 626 q 603 607 694 608 l 603 214 q 613 133 603 160 q 648 95 622 106 q 724 85 674 85 l 724 -6 z "},"Ẁ":{"ha":1231,"x_min":42,"x_max":1188,"o":"m 42 0 m 42 961 l 153 961 l 317 94 l 357 94 l 553 953 l 678 953 l 874 94 l 914 94 l 1078 961 l 1188 961 l 993 0 l 797 0 l 615 821 l 433 0 l 238 0 l 42 961 m 444 1201 l 481 1293 l 781 1154 l 749 1081 l 444 1201 z "},"ẁ":{"ha":1058,"x_min":43,"x_max":1015,"o":"m 43 0 m 43 694 l 147 694 l 288 90 l 310 90 l 475 681 l 583 681 l 749 90 l 772 90 l 911 694 l 1015 694 l 850 0 l 676 0 l 529 543 l 382 0 l 208 0 l 43 694 m 332 939 l 368 1028 l 668 892 l 639 821 l 332 939 z "},"Ẃ":{"ha":1231,"x_min":42,"x_max":1188,"o":"m 42 0 m 42 961 l 153 961 l 317 94 l 357 94 l 553 953 l 678 953 l 874 94 l 914 94 l 1078 961 l 1188 961 l 993 0 l 797 0 l 615 821 l 433 0 l 238 0 l 42 961 m 461 1154 l 761 1293 l 797 1201 l 493 1081 l 461 1154 z "},"ẃ":{"ha":1058,"x_min":43,"x_max":1015,"o":"m 43 0 m 43 694 l 147 694 l 288 90 l 310 90 l 475 681 l 583 681 l 749 90 l 772 90 l 911 694 l 1015 694 l 850 0 l 676 0 l 529 543 l 382 0 l 208 0 l 43 694 m 385 892 l 685 1028 l 721 939 l 414 821 l 385 892 z "},"Ẅ":{"ha":1231,"x_min":42,"x_max":1188,"o":"m 42 0 m 42 961 l 153 961 l 317 94 l 357 94 l 553 953 l 678 953 l 874 94 l 914 94 l 1078 961 l 1188 961 l 993 0 l 797 0 l 615 821 l 433 0 l 238 0 l 42 961 m 422 1247 l 524 1247 l 524 1122 l 422 1122 l 422 1247 m 706 1247 l 806 1247 l 806 1122 l 706 1122 l 706 1247 z "},"ẅ":{"ha":1058,"x_min":43,"x_max":1015,"o":"m 43 0 m 43 694 l 147 694 l 288 90 l 310 90 l 475 681 l 583 681 l 749 90 l 772 90 l 911 694 l 1015 694 l 850 0 l 676 0 l 529 543 l 382 0 l 208 0 l 43 694 m 342 988 l 442 988 l 442 863 l 342 863 l 342 988 m 619 988 l 721 988 l 721 863 l 619 863 l 619 988 z "},"ẫ":{"ha":696,"x_min":56,"x_max":671,"o":"m 56 0 m 251 -14 q 106 40 156 -14 q 56 196 56 94 q 106 344 56 296 q 268 404 157 393 l 486 425 l 486 485 q 372 617 486 617 q 99 599 260 617 l 94 678 q 365 708 243 708 q 537 655 483 708 q 590 485 590 601 l 590 129 q 671 68 594 78 l 667 -14 q 501 42 557 -14 q 251 -14 378 -14 m 268 74 q 454 106 361 74 l 486 117 l 486 346 l 281 326 q 190 290 218 321 q 163 201 163 260 q 268 74 163 74 m 292 975 l 363 975 l 535 781 l 431 781 l 329 901 l 225 781 l 121 781 l 292 975 m 415 1022 q 315 1056 386 1022 q 225 1088 240 1088 q 139 1046 193 1088 l 121 1032 l 96 1099 q 222 1171 164 1171 q 324 1139 249 1171 q 413 1107 399 1107 q 493 1147 440 1107 l 511 1160 l 535 1093 q 415 1022 469 1022 z "},"Ằ":{"ha":828,"x_min":33,"x_max":794,"o":"m 33 0 m 619 247 l 208 247 l 139 0 l 33 0 l 297 961 l 531 961 l 794 0 l 689 0 l 619 247 m 232 343 l 596 343 l 450 869 l 378 869 l 232 343 m 411 1046 q 256 1096 315 1046 q 193 1228 197 1146 l 289 1228 q 326 1153 290 1182 q 413 1124 361 1124 q 497 1153 463 1124 q 533 1228 532 1182 l 631 1228 q 567 1096 626 1146 q 411 1046 507 1046 m 167 1411 l 203 1503 l 503 1364 l 471 1290 l 167 1411 z "},"ễ":{"ha":701,"x_min":69,"x_max":639,"o":"m 69 0 m 360 -14 q 135 69 201 -14 q 69 329 69 151 q 140 615 69 522 q 363 708 211 708 q 570 628 501 708 q 639 383 639 549 l 633 304 l 175 304 q 194 169 175 218 q 258 99 213 121 q 383 78 303 78 q 476 80 424 78 q 572 86 529 82 l 613 90 l 615 8 q 360 -14 461 -14 m 535 388 q 494 567 535 514 q 363 621 454 621 q 221 565 267 621 q 174 388 175 508 l 535 388 m 321 975 l 392 975 l 564 781 l 460 781 l 358 901 l 254 781 l 150 781 l 321 975 m 449 1022 q 349 1056 419 1022 q 258 1088 274 1088 q 172 1046 226 1088 l 154 1032 l 129 1099 q 256 1171 197 1171 q 357 1139 282 1171 q 446 1107 432 1107 q 526 1147 474 1107 l 544 1160 l 568 1093 q 449 1022 503 1022 z "},"ỗ":{"ha":733,"x_min":69,"x_max":664,"o":"m 69 0 m 367 -14 q 190 23 256 -14 q 97 138 125 60 q 69 343 69 215 q 99 555 69 475 q 193 672 128 635 q 367 708 258 708 q 541 671 476 708 q 635 554 606 633 q 664 343 664 475 q 636 138 664 215 q 544 23 608 60 q 367 -14 479 -14 m 368 76 q 485 102 444 76 q 541 184 525 128 q 557 343 557 240 q 540 510 557 451 q 483 593 524 568 q 368 618 443 618 q 252 593 293 618 q 194 510 211 568 q 176 343 176 451 q 192 185 176 242 q 249 102 208 128 q 368 76 290 76 m 324 975 l 394 975 l 567 781 l 463 781 l 361 901 l 257 781 l 153 781 l 324 975 m 442 1022 q 342 1056 413 1022 q 251 1088 267 1088 q 165 1046 219 1088 l 147 1032 l 122 1099 q 249 1171 190 1171 q 350 1139 275 1171 q 439 1107 425 1107 q 519 1147 467 1107 l 538 1160 l 561 1093 q 442 1022 496 1022 z "},"Ỳ":{"ha":747,"x_min":14,"x_max":733,"o":"m 14 0 m 321 404 l 14 961 l 135 961 l 374 511 l 613 961 l 733 961 l 428 404 l 428 0 l 321 0 l 321 404 m 194 1201 l 231 1293 l 531 1154 l 499 1081 l 194 1201 z "},"ỳ":{"ha":671,"x_min":35,"x_max":638,"o":"m 35 0 m 335 0 l 232 0 l 35 694 l 139 694 l 313 90 l 358 90 l 533 694 l 638 694 l 349 -308 l 244 -308 l 335 0 m 144 939 l 181 1028 l 481 892 l 451 821 l 144 939 z "},"Ỹ":{"ha":738,"x_min":14,"x_max":733,"o":"m 14 0 m 479 1115 q 364 1153 449 1115 q 260 1190 278 1190 q 175 1140 229 1190 l 157 1124 l 133 1201 q 198 1258 163 1235 q 264 1282 233 1282 q 381 1244 294 1282 q 479 1207 465 1207 q 560 1256 507 1207 l 576 1271 l 601 1193 q 479 1115 536 1115 m 321 404 l 14 961 l 135 961 l 374 511 l 613 961 l 733 961 l 428 404 l 428 0 l 321 0 l 321 404 z "},"ỹ":{"ha":671,"x_min":35,"x_max":638,"o":"m 35 0 m 428 850 q 328 883 399 850 q 238 915 253 915 q 151 874 206 915 l 133 860 l 108 926 q 235 999 176 999 q 336 967 261 999 q 425 935 411 935 q 506 975 453 935 l 524 988 l 547 921 q 428 850 482 850 m 335 0 l 232 0 l 35 694 l 139 694 l 313 90 l 358 90 l 533 694 l 638 694 l 349 -308 l 244 -308 l 335 0 z "},"–":{"ha":876,"x_min":92,"x_max":786,"o":"m 92 418 l 786 418 l 786 326 l 92 326 l 92 418 z "},"—":{"ha":1571,"x_min":92,"x_max":1481,"o":"m 92 418 l 1481 418 l 1481 326 l 92 326 l 92 418 z "},"‘":{"ha":304,"x_min":71,"x_max":242,"o":"m 160 983 l 242 983 l 181 679 l 71 679 l 160 983 z "},"’":{"ha":300,"x_min":74,"x_max":244,"o":"m 156 679 l 74 679 l 135 983 l 244 983 l 156 679 z "},"‚":{"ha":303,"x_min":94,"x_max":129,"o":"m 113 31 l 129 31 l 117 -29 l 94 -29 l 113 31 z "},"“":{"ha":518,"x_min":71,"x_max":454,"o":"m 160 983 l 242 983 l 181 679 l 71 679 l 160 983 m 372 983 l 454 983 l 393 679 l 283 679 l 372 983 z "},"”":{"ha":524,"x_min":83,"x_max":467,"o":"m 165 681 l 83 681 l 144 985 l 254 985 l 165 681 m 378 681 l 296 681 l 357 985 l 467 985 l 378 681 z "},"„":{"ha":499,"x_min":31,"x_max":414,"o":"m 119 156 l 201 156 l 140 -149 l 31 -149 l 119 156 m 332 156 l 414 156 l 353 -149 l 243 -149 l 332 156 z "},"†":{"ha":664,"x_min":47,"x_max":617,"o":"m 281 603 l 47 603 l 47 694 l 281 694 l 281 961 l 383 961 l 383 694 l 617 694 l 617 603 l 383 603 l 378 -106 l 286 -106 l 281 603 z "},"‡":{"ha":724,"x_min":76,"x_max":647,"o":"m 310 161 l 76 161 l 76 251 l 310 251 l 310 603 l 76 603 l 76 694 l 310 694 l 310 961 l 414 961 l 414 694 l 646 694 l 646 603 l 414 603 l 414 251 l 647 251 l 647 161 l 414 161 l 414 -106 l 310 -106 l 310 161 z "},"•":{"ha":657,"x_min":154,"x_max":501,"o":"m 154 544 l 501 544 l 501 147 l 154 147 l 154 544 z "},"…":{"ha":1007,"x_min":93,"x_max":914,"o":"m 93 158 l 207 158 l 207 0 l 93 0 l 93 158 m 446 158 l 560 158 l 560 0 l 446 0 l 446 158 m 800 158 l 914 158 l 914 0 l 800 0 l 800 158 z "},"‰":{"ha":1160,"x_min":53,"x_max":1110,"o":"m 229 -6 l 514 946 l 581 924 l 296 -25 l 229 -6 m 206 543 q 92 592 132 543 q 53 739 53 642 q 206 931 53 931 q 358 739 358 931 q 319 592 358 642 q 206 543 279 543 m 207 614 q 275 739 275 614 q 259 831 275 801 q 207 860 243 860 q 153 831 169 860 q 138 739 138 803 q 207 614 138 614 m 600 -14 q 488 36 528 -14 q 449 183 449 86 q 601 374 449 374 q 753 182 753 374 q 713 36 753 86 q 600 -14 672 -14 m 958 -14 q 845 36 885 -14 q 806 183 806 86 q 958 374 806 374 q 1110 182 1110 374 q 1070 36 1110 86 q 958 -14 1031 -14 m 600 57 q 653 87 638 57 q 669 182 669 117 q 654 274 669 246 q 601 303 639 303 q 548 274 564 303 q 532 183 532 246 q 600 57 532 57 m 958 57 q 1010 87 994 57 q 1026 182 1026 117 q 1011 274 1026 246 q 958 303 996 303 q 905 274 921 303 q 889 183 889 246 q 958 57 889 57 z "},"‹":{"ha":418,"x_min":63,"x_max":325,"o":"m 63 303 l 63 386 l 325 585 l 325 478 l 153 347 l 325 201 l 325 93 l 63 303 z "},"›":{"ha":418,"x_min":93,"x_max":356,"o":"m 93 201 l 265 347 l 93 478 l 93 585 l 356 386 l 356 303 l 93 93 l 93 201 z "},"⁄":{"ha":0,"x_min":-311,"x_max":289,"o":"m -311 39 l 233 917 l 289 881 l -257 4 l -311 39 z "},"⁰":{"ha":389,"x_min":31,"x_max":360,"o":"m 194 650 q 74 700 118 650 q 31 881 31 750 q 74 1062 31 1013 q 194 1111 117 1111 q 316 1062 272 1111 q 360 881 360 1013 q 316 700 360 750 q 194 650 272 650 m 194 731 q 249 763 229 731 q 268 881 268 794 q 249 999 268 967 q 194 1031 229 1031 q 140 999 158 1031 q 121 881 121 967 q 140 763 121 794 q 194 731 160 731 z "},"⁴":{"ha":389,"x_min":33,"x_max":354,"o":"m 229 731 l 33 731 l 33 806 l 129 1097 l 226 1097 l 125 811 l 229 811 l 236 935 l 317 935 l 317 811 l 354 811 l 354 731 l 317 731 l 317 664 l 229 664 l 229 731 z "},"⁵":{"ha":389,"x_min":53,"x_max":349,"o":"m 201 653 q 75 667 135 653 l 53 671 l 60 743 q 193 731 138 731 q 258 797 258 731 q 203 863 258 863 q 131 842 165 863 l 61 850 l 75 1097 l 335 1097 l 335 1019 l 146 1019 l 139 918 q 219 939 181 939 q 349 803 349 939 q 201 653 349 653 z "},"⁶":{"ha":389,"x_min":40,"x_max":354,"o":"m 201 650 q 40 874 40 650 q 81 1054 40 997 q 211 1111 122 1111 q 317 1100 253 1111 l 336 1097 l 331 1022 q 214 1032 267 1032 q 129 929 129 1032 q 213 949 190 949 q 354 806 354 949 q 313 692 354 733 q 201 650 272 650 m 200 729 q 265 801 265 729 q 210 874 265 874 q 165 869 183 874 q 138 858 147 864 q 129 850 129 851 q 200 729 133 729 z "},"⁷":{"ha":389,"x_min":42,"x_max":328,"o":"m 86 669 l 228 982 l 228 1011 l 42 1011 l 42 1097 l 328 1097 l 328 990 l 182 651 l 86 669 z "},"⁸":{"ha":389,"x_min":31,"x_max":358,"o":"m 194 650 q 31 782 31 650 q 97 893 31 864 q 38 993 38 915 q 194 1111 38 1111 q 351 993 351 1111 q 292 892 351 910 q 358 788 358 874 q 194 650 358 650 m 214 924 q 264 983 264 940 q 194 1036 264 1036 q 125 985 125 1036 q 175 924 125 943 l 214 924 m 194 725 q 268 788 268 725 q 214 856 268 839 l 175 856 q 121 785 121 839 q 194 725 121 725 z "},"⁹":{"ha":389,"x_min":36,"x_max":353,"o":"m 181 650 q 72 663 131 650 l 53 667 l 58 740 q 172 731 117 731 q 261 831 260 731 q 176 814 200 814 q 72 851 108 814 q 36 960 36 889 q 77 1071 36 1031 q 189 1111 118 1111 q 353 879 353 1111 q 312 706 353 761 q 181 650 271 650 m 189 886 q 264 906 214 886 q 192 1032 263 1032 q 125 960 125 1032 q 142 907 125 928 q 189 886 160 886 z "},"₀":{"ha":389,"x_min":31,"x_max":360,"o":"m 31 0 m 194 -153 q 74 -103 118 -153 q 31 78 31 -53 q 74 259 31 210 q 194 308 117 308 q 316 259 272 308 q 360 78 360 210 q 316 -103 360 -53 q 194 -153 272 -153 m 194 -72 q 249 -40 229 -72 q 268 78 268 -8 q 249 196 268 164 q 194 228 229 228 q 140 196 158 228 q 121 78 121 164 q 140 -40 121 -8 q 194 -72 160 -72 z "},"₁":{"ha":389,"x_min":44,"x_max":268,"o":"m 44 0 m 179 197 l 85 132 l 44 197 l 185 294 l 268 294 l 268 -139 l 179 -139 l 179 197 z "},"₂":{"ha":389,"x_min":42,"x_max":332,"o":"m 42 -62 l 164 58 q 235 174 235 128 q 167 225 235 225 l 49 213 l 46 292 q 194 308 128 308 q 326 182 326 308 q 308 103 326 138 q 242 26 289 69 l 154 -58 l 332 -58 l 332 -139 l 42 -139 l 42 -62 z "},"₃":{"ha":389,"x_min":42,"x_max":346,"o":"m 42 0 m 42 -139 l 47 -61 q 192 -72 132 -72 q 256 -12 256 -72 q 190 46 256 46 l 100 46 l 100 119 l 190 119 q 227 138 211 119 q 243 181 243 156 q 181 228 243 228 l 53 218 l 47 294 q 189 308 125 308 q 335 192 335 308 q 281 90 335 122 q 331 54 315 78 q 346 -18 346 31 q 199 -153 346 -153 l 42 -139 z "},"₄":{"ha":389,"x_min":33,"x_max":354,"o":"m 229 -72 l 33 -72 l 33 3 l 129 294 l 226 294 l 125 8 l 229 8 l 236 132 l 317 132 l 317 8 l 354 8 l 354 -72 l 317 -72 l 317 -139 l 229 -139 l 229 -72 z "},"₅":{"ha":389,"x_min":53,"x_max":349,"o":"m 53 0 m 201 -150 q 75 -136 135 -150 l 53 -132 l 60 -60 q 193 -72 138 -72 q 258 -6 258 -72 q 203 60 258 60 q 131 39 165 60 l 61 47 l 75 294 l 335 294 l 335 217 l 146 217 l 139 115 q 219 136 181 136 q 349 0 349 136 q 201 -150 349 -150 z "},"₆":{"ha":389,"x_min":40,"x_max":354,"o":"m 40 0 m 201 -153 q 40 71 40 -153 q 81 251 40 194 q 211 308 122 308 q 317 297 253 308 l 336 294 l 331 219 q 214 229 267 229 q 129 126 129 229 q 213 146 190 146 q 354 3 354 146 q 313 -111 354 -69 q 201 -153 272 -153 m 200 -74 q 265 -1 265 -74 q 210 71 265 71 q 165 66 183 71 q 138 55 147 61 q 129 47 129 49 q 200 -74 133 -74 z "},"₇":{"ha":389,"x_min":42,"x_max":328,"o":"m 42 0 m 86 -133 l 228 179 l 228 208 l 42 208 l 42 294 l 328 294 l 328 188 l 182 -151 l 86 -133 z "},"₈":{"ha":389,"x_min":31,"x_max":358,"o":"m 31 0 m 194 -153 q 31 -21 31 -153 q 97 90 31 61 q 38 190 38 113 q 194 308 38 308 q 351 190 351 308 q 292 89 351 107 q 358 -15 358 71 q 194 -153 358 -153 m 214 121 q 264 181 264 138 q 194 233 264 233 q 125 182 125 233 q 175 121 125 140 l 214 121 m 194 -78 q 268 -15 268 -78 q 214 53 268 36 l 175 53 q 121 -18 121 36 q 194 -78 121 -78 z "},"₉":{"ha":389,"x_min":36,"x_max":353,"o":"m 36 0 m 181 -153 q 72 -140 131 -153 l 53 -136 l 58 -62 q 172 -72 117 -72 q 261 28 260 -72 q 176 11 200 11 q 72 49 108 11 q 36 157 36 86 q 77 268 36 228 q 189 308 118 308 q 353 76 353 308 q 312 -97 353 -42 q 181 -153 271 -153 m 189 83 q 264 103 214 83 q 192 229 263 229 q 125 157 125 229 q 142 104 125 125 q 189 83 160 83 z "},"€":{"ha":778,"x_min":42,"x_max":713,"o":"m 460 -14 q 224 63 300 -14 q 129 308 147 140 l 42 308 l 42 393 l 125 393 l 125 525 l 42 525 l 42 610 l 131 610 q 223 854 147 778 q 460 931 299 931 q 713 901 576 931 l 708 815 q 468 839 578 839 q 303 785 356 839 q 238 610 250 732 l 635 610 l 635 525 l 232 525 l 231 393 l 635 393 l 635 308 l 236 308 q 301 132 249 186 q 468 78 354 78 q 708 103 583 78 l 713 15 q 460 -14 575 -14 z "},"™":{"ha":940,"x_min":126,"x_max":835,"o":"m 236 806 l 126 806 l 126 875 l 404 875 l 404 806 l 313 806 l 313 461 l 236 461 l 236 806 m 447 875 l 547 875 l 639 586 l 738 875 l 835 875 l 835 460 l 763 460 l 763 771 l 671 481 l 611 481 l 519 771 l 519 460 l 447 460 l 447 875 z "},"Ω":{"ha":778,"x_min":63,"x_max":715,"o":"m 63 79 l 233 79 q 128 297 175 172 q 82 522 82 421 q 111 757 82 668 q 207 889 140 846 q 389 932 274 932 q 571 889 504 932 q 667 757 638 846 q 696 522 696 668 q 649 297 696 422 q 543 79 601 172 l 715 79 l 715 -12 l 442 -12 l 442 67 q 541 295 496 171 q 586 494 586 419 q 570 697 586 625 q 512 803 554 769 q 389 836 469 836 q 266 803 308 836 q 208 699 224 771 q 192 494 192 626 q 237 295 192 419 q 336 67 282 171 l 336 -12 l 63 -12 l 63 79 z "},"∂":{"ha":778,"x_min":64,"x_max":694,"o":"m 383 -12 q 145 67 226 -12 q 64 293 64 146 q 141 517 64 438 q 356 597 218 597 q 551 567 458 597 l 583 556 q 556 767 579 689 q 484 883 533 846 q 351 919 435 919 q 255 905 310 919 q 164 872 200 890 l 132 857 l 126 942 q 243 990 169 968 q 369 1011 317 1011 q 616 890 538 1011 q 694 504 694 769 q 618 113 694 239 q 383 -12 542 -12 m 379 79 q 533 173 483 79 q 585 464 583 267 q 374 506 475 506 q 224 449 275 506 q 174 292 174 393 q 225 135 174 190 q 379 79 276 79 z "},"∆":{"ha":778,"x_min":74,"x_max":703,"o":"m 74 79 l 294 917 l 482 917 l 703 78 l 703 0 l 74 0 l 74 79 m 594 92 l 406 826 l 369 826 l 181 92 l 594 92 z "},"∏":{"ha":778,"x_min":42,"x_max":736,"o":"m 139 953 l 42 953 l 42 1047 l 736 1047 l 736 953 l 638 953 l 638 -226 l 531 -226 l 531 953 l 244 953 l 244 -226 l 139 -226 l 139 953 z "},"∑":{"ha":778,"x_min":61,"x_max":714,"o":"m 61 -86 l 432 428 l 61 908 l 61 1046 l 714 1046 l 714 951 l 172 951 l 172 921 l 529 464 l 529 388 l 172 -96 l 172 -131 l 714 -131 l 714 -226 l 61 -226 l 61 -86 z "},"−":{"ha":778,"x_min":92,"x_max":686,"o":"m 92 396 l 686 396 l 686 301 l 92 301 l 92 396 z "},"√":{"ha":778,"x_min":6,"x_max":788,"o":"m 88 525 l 6 525 l 6 619 l 175 619 l 353 -99 l 367 -99 l 682 1079 l 788 1079 l 443 -189 l 274 -189 l 88 525 z "},"∞":{"ha":778,"x_min":42,"x_max":736,"o":"m 215 168 q 42 406 42 168 q 85 583 42 522 q 213 643 128 643 q 315 608 274 643 q 389 496 356 572 q 463 608 422 572 q 565 643 503 643 q 693 583 650 643 q 736 406 736 522 q 563 168 736 168 q 463 203 503 168 q 389 313 422 238 q 319 199 357 231 q 215 168 282 168 m 225 261 q 286 287 254 261 q 351 406 318 313 q 290 521 319 492 q 225 550 261 550 q 142 406 142 550 q 225 261 142 261 m 553 261 q 636 406 636 261 q 553 550 636 550 q 488 521 517 550 q 426 406 458 492 q 492 287 460 313 q 553 261 524 261 z "},"∫":{"ha":778,"x_min":128,"x_max":650,"o":"m 254 -260 q 185 -256 225 -260 q 128 -249 146 -253 l 132 -160 q 236 -165 181 -165 q 310 -129 288 -165 q 333 -7 333 -93 l 333 800 q 378 1019 333 956 q 522 1083 422 1083 q 631 1075 583 1083 l 650 1071 l 646 982 q 542 989 588 989 q 464 945 489 989 q 439 799 439 901 l 439 -8 q 394 -201 439 -143 q 254 -260 350 -260 z "},"≈":{"ha":778,"x_min":89,"x_max":688,"o":"m 526 375 q 383 418 488 375 q 251 461 279 461 q 129 411 203 461 l 106 396 l 89 482 q 251 556 178 556 q 397 514 293 556 q 528 471 500 471 q 650 519 576 471 l 674 535 l 688 450 q 640 415 671 435 q 526 375 579 375 m 526 118 q 383 161 488 118 q 251 204 279 204 q 129 154 203 204 l 106 139 l 89 225 q 251 299 178 299 q 397 257 293 299 q 528 214 500 214 q 650 263 576 214 l 674 278 l 688 193 q 640 158 671 178 q 526 118 579 118 z "},"≠":{"ha":778,"x_min":89,"x_max":689,"o":"m 190 -6 l 268 172 l 89 172 l 89 268 l 310 268 l 381 429 l 89 429 l 89 525 l 422 525 l 517 740 l 600 707 l 519 525 l 689 525 l 689 429 l 478 429 l 408 268 l 689 268 l 689 172 l 367 172 l 275 -39 l 190 -6 z "},"≤":{"ha":778,"x_min":90,"x_max":678,"o":"m 90 394 l 90 489 l 678 690 l 678 586 l 213 444 l 678 292 l 678 186 l 90 394 m 90 125 l 678 125 l 678 31 l 90 31 l 90 125 z "},"≥":{"ha":778,"x_min":99,"x_max":686,"o":"m 99 292 l 564 444 l 99 586 l 99 690 l 686 489 l 686 394 l 99 186 l 99 292 m 99 31 l 99 125 l 686 125 l 686 31 l 99 31 z "},"◊":{"ha":778,"x_min":63,"x_max":718,"o":"m 63 450 l 269 917 l 513 917 l 718 450 l 513 0 l 269 0 l 63 450 m 454 92 l 613 449 l 454 825 l 329 825 l 168 449 l 329 92 l 454 92 z "},"":{"ha":304,"x_min":-68,"x_max":204,"o":"m -68 -229 q 42 -155 7 -186 q 89 -86 76 -124 q 101 18 101 -49 l 101 694 l 204 694 l 204 17 q 185 -124 204 -71 q 117 -219 165 -178 q -26 -310 69 -261 l -68 -229 z "},"":{"ha":0,"x_min":-204,"x_max":-44,"o":"m -147 -108 l -44 -108 l -114 -396 l -204 -396 l -147 -108 z "},"ء":{"ha":747,"x_min":67,"x_max":688,"o":"m 688 131 l 89 0 l 67 83 l 207 119 q 134 224 158 167 q 110 344 110 282 q 145 487 110 419 q 246 595 181 554 q 397 636 311 636 q 585 592 486 636 l 565 503 q 440 531 501 531 q 328 501 376 531 q 255 422 281 471 q 229 318 229 374 q 250 224 229 268 q 313 146 271 179 l 663 235 l 688 131 z "},"ا":{"ha":357,"x_min":125,"x_max":232,"o":"m 125 997 l 232 997 l 232 0 l 125 0 l 125 997 z "},"ﺎ":{"ha":363,"x_min":125,"x_max":363,"o":"m 363 96 l 363 0 l 125 0 l 125 997 l 232 997 l 232 96 l 363 96 z "},"أ":{"ha":357,"x_min":25,"x_max":321,"o":"m 25 0 m 125 878 l 232 878 l 232 0 l 125 0 l 125 878 m 321 985 l 38 929 l 25 974 l 92 992 q 44 1090 44 1031 q 81 1178 44 1142 q 174 1215 117 1215 q 233 1204 206 1215 q 275 1182 261 1193 l 261 1129 q 235 1143 253 1136 q 197 1150 218 1150 q 138 1126 161 1150 q 115 1071 115 1103 q 147 1007 115 1031 l 306 1049 l 321 985 z "},"ﺄ":{"ha":363,"x_min":25,"x_max":363,"o":"m 25 0 m 363 96 l 363 0 l 125 0 l 125 878 l 232 878 l 232 96 l 363 96 m 321 985 l 38 929 l 25 974 l 92 992 q 44 1090 44 1031 q 81 1178 44 1142 q 174 1215 117 1215 q 233 1204 206 1215 q 275 1182 261 1193 l 261 1129 q 235 1143 253 1136 q 197 1150 218 1150 q 138 1126 161 1150 q 115 1071 115 1103 q 147 1007 115 1031 l 306 1049 l 321 985 z "},"إ":{"ha":357,"x_min":44,"x_max":340,"o":"m 44 0 m 125 997 l 232 997 l 232 0 l 125 0 l 125 997 m 340 -310 l 57 -365 l 44 -321 l 111 -303 q 64 -204 64 -264 q 100 -116 64 -153 q 193 -79 136 -79 q 253 -90 225 -79 q 294 -112 281 -101 l 281 -165 q 255 -151 272 -158 q 217 -144 238 -144 q 158 -168 181 -144 q 135 -224 135 -192 q 167 -287 135 -264 l 325 -246 l 340 -310 z "},"ﺈ":{"ha":363,"x_min":44,"x_max":363,"o":"m 44 0 m 363 96 l 363 0 l 125 0 l 125 997 l 232 997 l 232 96 l 363 96 m 340 -310 l 57 -365 l 44 -321 l 111 -303 q 64 -204 64 -264 q 100 -116 64 -153 q 193 -79 136 -79 q 253 -90 225 -79 q 294 -112 281 -101 l 281 -165 q 255 -151 272 -158 q 217 -144 238 -144 q 158 -168 181 -144 q 135 -224 135 -192 q 167 -287 135 -264 l 325 -246 l 340 -310 z "},"آ":{"ha":357,"x_min":-11,"x_max":367,"o":"m 0 0 m 125 878 l 232 878 l 232 0 l 125 0 l 125 878 m 271 963 q 175 992 243 963 q 123 1013 146 1004 q 90 1022 100 1022 q 22 982 67 1022 l 7 969 l -11 1032 q 41 1077 13 1058 q 94 1096 69 1096 q 131 1089 110 1096 q 189 1065 151 1082 q 268 1036 257 1036 q 297 1048 278 1036 q 333 1075 317 1060 l 347 1088 l 367 1025 q 317 978 342 994 q 271 963 292 963 z "},"ﺂ":{"ha":363,"x_min":-11,"x_max":367,"o":"m 0 0 m 363 96 l 363 0 l 125 0 l 125 878 l 232 878 l 232 96 l 363 96 m 271 963 q 175 992 243 963 q 123 1013 146 1004 q 90 1022 100 1022 q 22 982 67 1022 l 7 969 l -11 1032 q 41 1077 13 1058 q 94 1096 69 1096 q 131 1089 110 1096 q 189 1065 151 1082 q 268 1036 257 1036 q 297 1048 278 1036 q 333 1075 317 1060 l 347 1088 l 367 1025 q 317 978 342 994 q 271 963 292 963 z "},"ٱ":{"ha":357,"x_min":10,"x_max":347,"o":"m 10 0 m 125 878 l 232 878 l 232 0 l 125 0 l 125 878 m 10 1010 l 72 1010 q 92 1080 72 1046 q 149 1136 113 1114 q 231 1158 185 1158 q 347 1010 347 1158 l 347 953 l 10 953 l 10 1010 m 296 1010 q 275 1087 296 1065 q 219 1108 254 1108 q 142 1082 175 1108 q 110 1010 110 1056 l 296 1010 z "},"ﭑ":{"ha":363,"x_min":10,"x_max":363,"o":"m 10 0 m 363 96 l 363 0 l 125 0 l 125 878 l 232 878 l 232 96 l 363 96 m 10 1010 l 72 1010 q 92 1080 72 1046 q 149 1136 113 1114 q 231 1158 185 1158 q 347 1010 347 1158 l 347 953 l 10 953 l 10 1010 m 296 1010 q 275 1087 296 1065 q 219 1108 254 1108 q 142 1082 175 1108 q 110 1010 110 1056 l 296 1010 z "},"ٮ":{"ha":1063,"x_min":75,"x_max":951,"o":"m 951 694 l 951 0 l 435 0 q 224 22 301 0 q 110 93 146 44 q 75 226 75 142 q 118 542 75 332 l 201 538 l 188 426 q 178 349 186 411 q 171 251 171 288 q 195 158 171 192 q 276 110 219 125 q 433 96 332 96 l 844 96 l 844 694 l 951 694 z "},"ب":{"ha":1063,"x_min":75,"x_max":951,"o":"m 75 0 m 951 694 l 951 0 l 435 0 q 224 22 301 0 q 110 93 146 44 q 75 226 75 142 q 118 542 75 332 l 201 538 l 188 426 q 178 349 186 411 q 171 251 171 288 q 195 158 171 192 q 276 110 219 125 q 433 96 332 96 l 844 96 l 844 694 l 951 694 m 479 -111 l 585 -111 l 585 -228 l 479 -228 l 479 -111 z "},"ﺐ":{"ha":1154,"x_min":75,"x_max":1154,"o":"m 75 0 m 1154 96 l 1154 0 l 435 0 q 224 22 301 0 q 110 93 146 44 q 75 226 75 142 q 118 542 75 332 l 201 538 l 188 426 q 178 349 186 411 q 171 251 171 288 q 195 158 171 192 q 276 110 219 125 q 433 96 332 96 l 844 96 l 844 694 l 951 694 l 951 96 l 1154 96 m 488 -111 l 593 -111 l 593 -228 l 488 -228 l 488 -111 z "},"ﺒ":{"ha":521,"x_min":0,"x_max":521,"o":"m 0 0 m 521 96 l 521 0 l 0 0 l 0 96 l 207 96 l 207 694 l 314 694 l 314 96 l 521 96 m 207 -111 l 313 -111 l 313 -228 l 207 -228 l 207 -111 z "},"ﺑ":{"ha":425,"x_min":0,"x_max":314,"o":"m 0 0 m 314 694 l 314 0 l 0 0 l 0 96 l 207 96 l 207 694 l 314 694 m 207 -111 l 313 -111 l 313 -228 l 207 -228 l 207 -111 z "},"پ":{"ha":1063,"x_min":75,"x_max":951,"o":"m 75 0 m 951 694 l 951 0 l 435 0 q 224 22 301 0 q 110 93 146 44 q 75 226 75 142 q 118 542 75 332 l 201 538 l 188 426 q 178 349 186 411 q 171 251 171 288 q 195 158 171 192 q 276 110 219 125 q 433 96 332 96 l 844 96 l 844 694 l 951 694 m 392 -111 l 497 -111 l 497 -228 l 392 -228 l 392 -111 m 565 -111 l 671 -111 l 671 -228 l 565 -228 l 565 -111 m 479 -285 l 583 -285 l 583 -397 l 479 -397 l 479 -285 z "},"ﭗ":{"ha":1154,"x_min":75,"x_max":1154,"o":"m 75 0 m 1154 96 l 1154 0 l 435 0 q 224 22 301 0 q 110 93 146 44 q 75 226 75 142 q 118 542 75 332 l 201 538 l 188 426 q 178 349 186 411 q 171 251 171 288 q 195 158 171 192 q 276 110 219 125 q 433 96 332 96 l 844 96 l 844 694 l 951 694 l 951 96 l 1154 96 m 400 -111 l 506 -111 l 506 -228 l 400 -228 l 400 -111 m 574 -111 l 679 -111 l 679 -228 l 574 -228 l 574 -111 m 488 -285 l 592 -285 l 592 -397 l 488 -397 l 488 -285 z "},"ﭙ":{"ha":521,"x_min":0,"x_max":521,"o":"m 0 0 m 521 96 l 521 0 l 0 0 l 0 96 l 207 96 l 207 694 l 314 694 l 314 96 l 521 96 m 119 -111 l 225 -111 l 225 -228 l 119 -228 l 119 -111 m 293 -111 l 399 -111 l 399 -228 l 293 -228 l 293 -111 m 207 -285 l 311 -285 l 311 -397 l 207 -397 l 207 -285 z "},"ﭘ":{"ha":425,"x_min":0,"x_max":399,"o":"m 0 0 m 314 694 l 314 0 l 0 0 l 0 96 l 207 96 l 207 694 l 314 694 m 119 -111 l 225 -111 l 225 -228 l 119 -228 l 119 -111 m 293 -111 l 399 -111 l 399 -228 l 293 -228 l 293 -111 m 207 -285 l 311 -285 l 311 -397 l 207 -397 l 207 -285 z "},"ﯩ":{"ha":521,"x_min":0,"x_max":521,"o":"m 0 0 m 521 96 l 521 0 l 0 0 l 0 96 l 207 96 l 207 694 l 314 694 l 314 96 l 521 96 z "},"ﯨ":{"ha":425,"x_min":0,"x_max":314,"o":"m 0 0 m 314 694 l 314 0 l 0 0 l 0 96 l 207 96 l 207 694 l 314 694 z "},"ت":{"ha":1063,"x_min":75,"x_max":951,"o":"m 75 0 m 951 694 l 951 0 l 435 0 q 224 22 301 0 q 110 93 146 44 q 75 226 75 142 q 118 542 75 332 l 201 538 l 188 426 q 178 349 186 411 q 171 251 171 288 q 195 158 171 192 q 276 110 219 125 q 433 96 332 96 l 844 96 l 844 694 l 951 694 m 393 811 l 499 811 l 499 694 l 393 694 l 393 811 m 567 811 l 672 811 l 672 694 l 567 694 l 567 811 z "},"ﺖ":{"ha":1154,"x_min":75,"x_max":1154,"o":"m 75 0 m 1154 96 l 1154 0 l 435 0 q 224 22 301 0 q 110 93 146 44 q 75 226 75 142 q 118 542 75 332 l 201 538 l 188 426 q 178 349 186 411 q 171 251 171 288 q 195 158 171 192 q 276 110 219 125 q 433 96 332 96 l 844 96 l 844 694 l 951 694 l 951 96 l 1154 96 m 401 811 l 507 811 l 507 694 l 401 694 l 401 811 m 575 811 l 681 811 l 681 694 l 575 694 l 575 811 z "},"ﺘ":{"ha":521,"x_min":0,"x_max":521,"o":"m 0 0 m 521 96 l 521 0 l 0 0 l 0 96 l 207 96 l 207 694 l 314 694 l 314 96 l 521 96 m 121 940 l 226 940 l 226 824 l 121 824 l 121 940 m 294 940 l 400 940 l 400 824 l 294 824 l 294 940 z "},"ﺗ":{"ha":425,"x_min":0,"x_max":400,"o":"m 0 0 m 314 694 l 314 0 l 0 0 l 0 96 l 207 96 l 207 694 l 314 694 m 121 940 l 226 940 l 226 824 l 121 824 l 121 940 m 294 940 l 400 940 l 400 824 l 294 824 l 294 940 z "},"ث":{"ha":1063,"x_min":75,"x_max":951,"o":"m 75 0 m 951 694 l 951 0 l 435 0 q 224 22 301 0 q 110 93 146 44 q 75 226 75 142 q 118 542 75 332 l 201 538 l 188 426 q 178 349 186 411 q 171 251 171 288 q 195 158 171 192 q 276 110 219 125 q 433 96 332 96 l 844 96 l 844 694 l 951 694 m 479 981 l 583 981 l 583 868 l 479 868 l 479 981 m 392 811 l 497 811 l 497 694 l 392 694 l 392 811 m 565 811 l 671 811 l 671 694 l 565 694 l 565 811 z "},"ﺚ":{"ha":1154,"x_min":75,"x_max":1154,"o":"m 75 0 m 1154 96 l 1154 0 l 435 0 q 224 22 301 0 q 110 93 146 44 q 75 226 75 142 q 118 542 75 332 l 201 538 l 188 426 q 178 349 186 411 q 171 251 171 288 q 195 158 171 192 q 276 110 219 125 q 433 96 332 96 l 844 96 l 844 694 l 951 694 l 951 96 l 1154 96 m 488 981 l 592 981 l 592 868 l 488 868 l 488 981 m 400 811 l 506 811 l 506 694 l 400 694 l 400 811 m 574 811 l 679 811 l 679 694 l 574 694 l 574 811 z "},"ﺜ":{"ha":521,"x_min":0,"x_max":521,"o":"m 0 0 m 521 96 l 521 0 l 0 0 l 0 96 l 207 96 l 207 694 l 314 694 l 314 96 l 521 96 m 207 1110 l 311 1110 l 311 997 l 207 997 l 207 1110 m 119 940 l 225 940 l 225 824 l 119 824 l 119 940 m 293 940 l 399 940 l 399 824 l 293 824 l 293 940 z "},"ﺛ":{"ha":425,"x_min":0,"x_max":399,"o":"m 0 0 m 314 694 l 314 0 l 0 0 l 0 96 l 207 96 l 207 694 l 314 694 m 207 1110 l 311 1110 l 311 997 l 207 997 l 207 1110 m 119 940 l 225 940 l 225 824 l 119 824 l 119 940 m 293 940 l 399 940 l 399 824 l 293 824 l 293 940 z "},"ٹ":{"ha":1063,"x_min":75,"x_max":951,"o":"m 75 0 m 951 694 l 951 0 l 435 0 q 224 22 301 0 q 110 93 146 44 q 75 226 75 142 q 118 542 75 332 l 201 538 l 188 426 q 178 349 186 411 q 171 251 171 288 q 195 158 171 192 q 276 110 219 125 q 433 96 332 96 l 844 96 l 844 694 l 951 694 m 574 922 q 647 894 617 922 q 676 807 676 867 l 676 694 l 388 694 l 388 754 l 408 754 l 408 1013 l 465 1013 l 465 843 q 510 902 486 882 q 574 922 535 922 m 565 861 q 494 829 522 861 q 465 761 465 797 l 465 754 l 619 754 l 619 807 q 606 847 619 832 q 565 861 593 861 z "},"ﭧ":{"ha":1154,"x_min":75,"x_max":1154,"o":"m 75 0 m 1154 96 l 1154 0 l 435 0 q 224 22 301 0 q 110 93 146 44 q 75 226 75 142 q 118 542 75 332 l 201 538 l 188 426 q 178 349 186 411 q 171 251 171 288 q 195 158 171 192 q 276 110 219 125 q 433 96 332 96 l 844 96 l 844 694 l 951 694 l 951 96 l 1154 96 m 582 922 q 655 894 625 922 q 685 807 685 867 l 685 694 l 396 694 l 396 754 l 417 754 l 417 1013 l 474 1013 l 474 843 q 519 902 494 882 q 582 922 543 922 m 574 861 q 502 829 531 861 q 474 761 474 797 l 474 754 l 628 754 l 628 807 q 615 847 628 832 q 574 861 601 861 z "},"ﭩ":{"ha":521,"x_min":0,"x_max":521,"o":"m 0 0 m 521 96 l 521 0 l 0 0 l 0 96 l 207 96 l 207 694 l 314 694 l 314 96 l 521 96 m 301 1051 q 374 1024 344 1051 q 404 936 404 996 l 404 824 l 115 824 l 115 883 l 136 883 l 136 1142 l 193 1142 l 193 972 q 238 1031 214 1011 q 301 1051 263 1051 m 293 990 q 222 958 250 990 q 193 890 193 926 l 193 883 l 347 883 l 347 936 q 334 976 347 961 q 293 990 321 990 z "},"ﭨ":{"ha":425,"x_min":0,"x_max":404,"o":"m 0 0 m 314 694 l 314 0 l 0 0 l 0 96 l 207 96 l 207 694 l 314 694 m 301 1051 q 374 1024 344 1051 q 404 936 404 996 l 404 824 l 115 824 l 115 883 l 136 883 l 136 1142 l 193 1142 l 193 972 q 238 1031 214 1011 q 301 1051 263 1051 m 293 990 q 222 958 250 990 q 193 890 193 926 l 193 883 l 347 883 l 347 936 q 334 976 347 961 q 293 990 321 990 z "},"ج":{"ha":768,"x_min":56,"x_max":685,"o":"m 56 0 m 356 56 q 214 11 263 56 q 165 -132 165 -33 q 222 -290 165 -235 q 397 -344 279 -344 q 654 -314 497 -344 l 667 -399 q 375 -439 489 -439 q 137 -358 218 -439 q 56 -126 56 -278 q 340 151 56 151 q 479 134 415 151 q 578 96 543 117 l 578 472 q 542 577 578 542 q 433 613 506 613 q 186 590 371 613 l 147 586 l 143 665 q 457 708 353 708 q 685 471 685 708 l 685 0 l 578 0 q 478 39 539 22 q 356 56 418 56 m 393 -118 l 499 -118 l 499 -235 l 393 -235 l 393 -118 z "},"ﺞ":{"ha":843,"x_min":56,"x_max":843,"o":"m 56 0 m 843 96 l 843 0 l 578 0 q 478 39 539 22 q 356 56 418 56 q 214 11 263 56 q 165 -132 165 -33 q 222 -290 165 -235 q 397 -344 279 -344 q 654 -314 497 -344 l 667 -399 q 375 -439 489 -439 q 137 -358 218 -439 q 56 -126 56 -278 q 340 151 56 151 q 479 134 415 151 q 578 96 543 117 l 578 472 q 542 577 578 542 q 433 613 506 613 q 186 590 371 613 l 147 586 l 143 665 q 457 708 353 708 q 685 471 685 708 l 685 96 l 843 96 m 393 -118 l 499 -118 l 499 -235 l 393 -235 l 393 -118 z "},"ﺠ":{"ha":822,"x_min":0,"x_max":822,"o":"m 0 0 m 822 96 l 822 0 l 0 0 l 0 96 l 557 96 l 557 472 q 521 577 557 542 q 413 613 485 613 q 165 590 350 613 l 126 586 l 122 665 q 436 708 332 708 q 664 471 664 708 l 664 96 l 822 96 m 358 -111 l 464 -111 l 464 -228 l 358 -228 l 358 -111 z "},"ﺟ":{"ha":747,"x_min":0,"x_max":664,"o":"m 0 0 m 436 708 q 664 471 664 708 l 664 0 l 0 0 l 0 96 l 557 96 l 557 472 q 521 577 557 542 q 413 613 485 613 q 165 590 350 613 l 126 586 l 122 665 q 436 708 332 708 m 335 -111 l 440 -111 l 440 -228 l 335 -228 l 335 -111 z "},"چ":{"ha":797,"x_min":56,"x_max":714,"o":"m 165 -132 q 222 -290 165 -235 q 397 -344 279 -344 l 413 -439 l 375 -439 q 137 -358 218 -439 q 56 -126 56 -278 q 340 151 56 151 q 578 96 471 151 l 578 472 q 542 577 578 542 q 433 613 506 613 q 186 590 371 613 l 147 586 l 143 665 q 457 708 353 708 q 685 471 685 708 l 685 0 l 578 0 q 478 38 539 21 q 356 56 417 56 q 214 11 263 56 q 165 -132 165 -33 m 389 -243 l 389 -111 l 503 -111 l 503 -243 l 389 -243 m 714 -111 l 714 -243 l 600 -243 l 600 -111 l 714 -111 m 499 -292 l 603 -292 l 603 -412 l 499 -412 l 499 -292 z "},"ﭻ":{"ha":843,"x_min":56,"x_max":843,"o":"m 375 -439 q 137 -358 218 -439 q 56 -126 56 -278 q 340 151 56 151 q 476 134 411 151 q 578 96 542 117 l 578 472 q 542 577 578 542 q 433 613 506 613 q 186 590 371 613 l 147 586 l 143 665 q 457 708 353 708 q 685 471 685 708 l 685 96 l 843 96 l 843 0 l 578 0 q 478 38 539 21 q 356 56 417 56 q 214 11 263 56 q 165 -132 165 -33 q 222 -290 165 -235 q 397 -344 279 -344 l 413 -439 l 375 -439 m 389 -111 l 503 -111 l 503 -243 l 389 -243 l 389 -111 m 600 -111 l 714 -111 l 714 -243 l 600 -243 l 600 -111 m 499 -292 l 603 -292 l 603 -412 l 499 -412 l 499 -292 z "},"ﭽ":{"ha":822,"x_min":0,"x_max":822,"o":"m 0 0 m 822 96 l 822 0 l 0 0 l 0 96 l 557 96 l 557 472 q 521 577 557 542 q 413 613 485 613 q 165 590 350 613 l 126 586 l 122 665 q 436 708 332 708 q 664 471 664 708 l 664 96 l 822 96 m 271 -111 l 376 -111 l 376 -228 l 271 -228 l 271 -111 m 444 -111 l 550 -111 l 550 -228 l 444 -228 l 444 -111 m 358 -285 l 463 -285 l 463 -397 l 358 -397 l 358 -285 z "},"ﭼ":{"ha":747,"x_min":0,"x_max":664,"o":"m 0 0 m 436 708 q 664 471 664 708 l 664 0 l 0 0 l 0 96 l 557 96 l 557 472 q 521 577 557 542 q 413 613 485 613 q 165 590 350 613 l 126 586 l 122 665 q 436 708 332 708 m 247 -111 l 353 -111 l 353 -228 l 247 -228 l 247 -111 m 421 -111 l 526 -111 l 526 -228 l 421 -228 l 421 -111 m 335 -285 l 439 -285 l 439 -397 l 335 -397 l 335 -285 z "},"ح":{"ha":768,"x_min":56,"x_max":685,"o":"m 356 56 q 214 11 263 56 q 165 -132 165 -33 q 222 -290 165 -235 q 397 -344 279 -344 q 654 -314 497 -344 l 667 -399 q 375 -439 489 -439 q 137 -358 218 -439 q 56 -126 56 -278 q 340 151 56 151 q 479 134 415 151 q 578 96 543 117 l 578 472 q 542 577 578 542 q 433 613 506 613 q 186 590 371 613 l 147 586 l 143 665 q 457 708 353 708 q 685 471 685 708 l 685 0 l 578 0 q 478 39 539 22 q 356 56 418 56 z "},"ﺢ":{"ha":843,"x_min":56,"x_max":843,"o":"m 843 96 l 843 0 l 578 0 q 478 39 539 22 q 356 56 418 56 q 214 11 263 56 q 165 -132 165 -33 q 222 -290 165 -235 q 397 -344 279 -344 q 654 -314 497 -344 l 667 -399 q 375 -439 489 -439 q 137 -358 218 -439 q 56 -126 56 -278 q 340 151 56 151 q 479 134 415 151 q 578 96 543 117 l 578 472 q 542 577 578 542 q 433 613 506 613 q 186 590 371 613 l 147 586 l 143 665 q 457 708 353 708 q 685 471 685 708 l 685 96 l 843 96 z "},"ﺤ":{"ha":822,"x_min":0,"x_max":822,"o":"m 822 96 l 822 0 l 0 0 l 0 96 l 557 96 l 557 472 q 521 577 557 542 q 413 613 485 613 q 165 590 350 613 l 126 586 l 122 665 q 436 708 332 708 q 664 471 664 708 l 664 96 l 822 96 z "},"ﺣ":{"ha":747,"x_min":0,"x_max":664,"o":"m 436 708 q 664 471 664 708 l 664 0 l 0 0 l 0 96 l 557 96 l 557 472 q 521 577 557 542 q 413 613 485 613 q 165 590 350 613 l 126 586 l 122 665 q 436 708 332 708 z "},"خ":{"ha":768,"x_min":56,"x_max":685,"o":"m 56 0 m 356 56 q 214 11 263 56 q 165 -132 165 -33 q 222 -290 165 -235 q 397 -344 279 -344 q 654 -314 497 -344 l 667 -399 q 375 -439 489 -439 q 137 -358 218 -439 q 56 -126 56 -278 q 340 151 56 151 q 479 134 415 151 q 578 96 543 117 l 578 472 q 542 577 578 542 q 433 613 506 613 q 186 590 371 613 l 147 586 l 143 665 q 457 708 353 708 q 685 471 685 708 l 685 0 l 578 0 q 478 39 539 22 q 356 56 418 56 m 332 940 l 438 940 l 438 824 l 332 824 l 332 940 z "},"ﺦ":{"ha":843,"x_min":56,"x_max":843,"o":"m 56 0 m 843 96 l 843 0 l 578 0 q 478 39 539 22 q 356 56 418 56 q 214 11 263 56 q 165 -132 165 -33 q 222 -290 165 -235 q 397 -344 279 -344 q 654 -314 497 -344 l 667 -399 q 375 -439 489 -439 q 137 -358 218 -439 q 56 -126 56 -278 q 340 151 56 151 q 479 134 415 151 q 578 96 543 117 l 578 472 q 542 577 578 542 q 433 613 506 613 q 186 590 371 613 l 147 586 l 143 665 q 457 708 353 708 q 685 471 685 708 l 685 96 l 843 96 m 332 940 l 438 940 l 438 824 l 332 824 l 332 940 z "},"ﺨ":{"ha":822,"x_min":0,"x_max":822,"o":"m 0 0 m 822 96 l 822 0 l 0 0 l 0 96 l 557 96 l 557 472 q 521 577 557 542 q 413 613 485 613 q 165 590 350 613 l 126 586 l 122 665 q 436 708 332 708 q 664 471 664 708 l 664 96 l 822 96 m 358 940 l 464 940 l 464 824 l 358 824 l 358 940 z "},"ﺧ":{"ha":747,"x_min":0,"x_max":664,"o":"m 0 0 m 436 708 q 664 471 664 708 l 664 0 l 0 0 l 0 96 l 557 96 l 557 472 q 521 577 557 542 q 413 613 485 613 q 165 590 350 613 l 126 586 l 122 665 q 436 708 332 708 m 335 940 l 440 940 l 440 824 l 335 824 l 335 940 z "},"د":{"ha":683,"x_min":56,"x_max":614,"o":"m 258 724 q 512 615 410 724 q 614 260 614 506 l 614 0 l 56 0 l 56 96 l 507 96 l 507 257 q 427 545 507 463 q 240 628 347 628 l 128 628 l 121 707 q 177 718 135 713 q 258 724 219 724 z "},"ﺪ":{"ha":744,"x_min":56,"x_max":744,"o":"m 744 96 l 744 0 l 56 0 l 56 96 l 507 96 l 507 257 q 427 545 507 463 q 240 628 347 628 l 128 628 l 121 707 q 177 718 135 713 q 258 724 219 724 q 512 615 410 724 q 614 260 614 506 l 614 96 l 744 96 z "},"ذ":{"ha":683,"x_min":56,"x_max":614,"o":"m 56 0 m 258 724 q 512 615 410 724 q 614 260 614 506 l 614 0 l 56 0 l 56 96 l 507 96 l 507 257 q 427 545 507 463 q 240 628 347 628 l 128 628 l 121 707 q 177 718 135 713 q 258 724 219 724 m 158 978 l 264 978 l 264 861 l 158 861 l 158 978 z "},"ﺬ":{"ha":744,"x_min":56,"x_max":744,"o":"m 56 0 m 744 96 l 744 0 l 56 0 l 56 96 l 507 96 l 507 257 q 427 545 507 463 q 240 628 347 628 l 128 628 l 121 707 q 177 718 135 713 q 258 724 219 724 q 512 615 410 724 q 614 260 614 506 l 614 96 l 744 96 m 131 978 l 236 978 l 236 861 l 131 861 l 131 978 z "},"ڈ":{"ha":683,"x_min":56,"x_max":614,"o":"m 56 0 m 258 724 q 512 615 410 724 q 614 260 614 506 l 614 0 l 56 0 l 56 96 l 507 96 l 507 257 q 427 545 507 463 q 240 628 347 628 l 128 628 l 121 707 q 177 718 135 713 q 258 724 219 724 m 253 1089 q 326 1061 296 1089 q 356 974 356 1033 l 356 861 l 67 861 l 67 921 l 88 921 l 88 1179 l 144 1179 l 144 1010 q 190 1069 165 1049 q 253 1089 214 1089 m 244 1028 q 173 996 201 1028 q 144 928 144 964 l 144 921 l 299 921 l 299 974 q 285 1013 299 999 q 244 1028 272 1028 z "},"ﮉ":{"ha":744,"x_min":39,"x_max":744,"o":"m 39 0 m 744 96 l 744 0 l 56 0 l 56 96 l 507 96 l 507 257 q 427 545 507 463 q 240 628 347 628 l 128 628 l 121 707 q 177 718 135 713 q 258 724 219 724 q 512 615 410 724 q 614 260 614 506 l 614 96 l 744 96 m 225 1089 q 298 1061 268 1089 q 328 974 328 1033 l 328 861 l 39 861 l 39 921 l 60 921 l 60 1179 l 117 1179 l 117 1010 q 162 1069 138 1049 q 225 1089 186 1089 m 217 1028 q 145 996 174 1028 q 117 928 117 964 l 117 921 l 271 921 l 271 974 q 258 1013 271 999 q 217 1028 244 1028 z "},"ر":{"ha":486,"x_min":56,"x_max":388,"o":"m 158 -346 q 117 -344 136 -346 q 85 -342 99 -343 l 56 -339 l 56 -244 q 143 -250 125 -250 q 247 -195 213 -250 q 281 -42 281 -140 l 281 693 l 388 693 l 388 -15 q 158 -346 388 -346 z "},"ﺮ":{"ha":561,"x_min":56,"x_max":561,"o":"m 561 0 l 388 0 l 388 -15 q 158 -346 388 -346 q 117 -344 136 -346 q 85 -342 99 -343 l 56 -339 l 56 -244 q 143 -250 125 -250 q 247 -195 213 -250 q 281 -42 281 -140 l 281 693 l 388 693 l 388 96 l 561 96 l 561 0 z "},"ز":{"ha":486,"x_min":56,"x_max":388,"o":"m 56 0 m 158 -346 q 117 -344 136 -346 q 85 -342 99 -343 l 56 -339 l 56 -244 q 143 -250 125 -250 q 247 -195 213 -250 q 281 -42 281 -140 l 281 693 l 388 693 l 388 -15 q 158 -346 388 -346 m 279 940 l 385 940 l 385 824 l 279 824 l 279 940 z "},"ﺰ":{"ha":561,"x_min":56,"x_max":561,"o":"m 56 0 m 561 0 l 388 0 l 388 -15 q 158 -346 388 -346 q 117 -344 136 -346 q 85 -342 99 -343 l 56 -339 l 56 -244 q 143 -250 125 -250 q 247 -195 213 -250 q 281 -42 281 -140 l 281 693 l 388 693 l 388 96 l 561 96 l 561 0 m 279 940 l 385 940 l 385 824 l 279 824 l 279 940 z "},"ڑ":{"ha":486,"x_min":56,"x_max":476,"o":"m 56 0 m 158 -346 q 117 -344 136 -346 q 85 -342 99 -343 l 56 -339 l 56 -244 q 143 -250 125 -250 q 247 -195 213 -250 q 281 -42 281 -140 l 281 693 l 388 693 l 388 -15 q 158 -346 388 -346 m 374 1051 q 447 1024 417 1051 q 476 936 476 996 l 476 824 l 188 824 l 188 883 l 208 883 l 208 1142 l 265 1142 l 265 972 q 310 1031 286 1011 q 374 1051 335 1051 m 365 990 q 294 958 322 990 q 265 890 265 926 l 265 883 l 419 883 l 419 936 q 406 976 419 961 q 365 990 393 990 z "},"ﮍ":{"ha":561,"x_min":56,"x_max":561,"o":"m 56 0 m 561 0 l 388 0 l 388 -15 q 158 -346 388 -346 q 117 -344 136 -346 q 85 -342 99 -343 l 56 -339 l 56 -244 q 143 -250 125 -250 q 247 -195 213 -250 q 281 -42 281 -140 l 281 693 l 388 693 l 388 96 l 561 96 l 561 0 m 374 1051 q 447 1024 417 1051 q 476 936 476 996 l 476 824 l 188 824 l 188 883 l 208 883 l 208 1142 l 265 1142 l 265 972 q 310 1031 286 1011 q 374 1051 335 1051 m 365 990 q 294 958 322 990 q 265 890 265 926 l 265 883 l 419 883 l 419 936 q 406 976 419 961 q 365 990 393 990 z "},"ژ":{"ha":486,"x_min":56,"x_max":471,"o":"m 56 0 m 158 -346 q 117 -344 136 -346 q 85 -342 99 -343 l 56 -339 l 56 -244 q 143 -250 125 -250 q 247 -195 213 -250 q 281 -42 281 -140 l 281 693 l 388 693 l 388 -15 q 158 -346 388 -346 m 279 1110 l 383 1110 l 383 997 l 279 997 l 279 1110 m 192 940 l 297 940 l 297 824 l 192 824 l 192 940 m 365 940 l 471 940 l 471 824 l 365 824 l 365 940 z "},"ﮋ":{"ha":561,"x_min":56,"x_max":561,"o":"m 56 0 m 561 0 l 388 0 l 388 -15 q 158 -346 388 -346 q 117 -344 136 -346 q 85 -342 99 -343 l 56 -339 l 56 -244 q 143 -250 125 -250 q 247 -195 213 -250 q 281 -42 281 -140 l 281 693 l 388 693 l 388 96 l 561 96 l 561 0 m 279 1110 l 383 1110 l 383 997 l 279 997 l 279 1110 m 192 940 l 297 940 l 297 824 l 192 824 l 192 940 m 365 940 l 471 940 l 471 824 l 365 824 l 365 940 z "},"س":{"ha":1583,"x_min":56,"x_max":1486,"o":"m 1442 694 q 1473 526 1460 615 q 1486 386 1486 438 l 1486 0 l 1228 0 q 1074 58 1143 0 q 942 0 1024 0 l 771 0 l 771 -56 q 723 -214 771 -149 q 595 -312 675 -279 q 421 -344 515 -344 q 236 -307 319 -344 q 104 -202 153 -269 q 56 -49 56 -135 q 72 128 56 4 q 111 379 89 251 l 214 374 q 178 135 193 251 q 163 -26 163 18 q 197 -142 163 -92 q 288 -221 231 -193 q 414 -249 346 -249 q 538 -222 481 -249 q 630 -148 596 -196 q 664 -40 664 -100 l 664 625 l 771 625 l 771 96 l 908 96 q 1001 151 972 96 q 1029 289 1029 206 l 1029 625 l 1136 625 l 1136 290 q 1117 143 1136 206 q 1169 110 1138 125 q 1233 96 1201 96 l 1379 96 l 1379 397 q 1372 530 1379 450 q 1354 690 1364 610 l 1442 694 z "},"ﺲ":{"ha":1644,"x_min":56,"x_max":1644,"o":"m 1644 96 l 1644 0 l 1228 0 q 1074 58 1143 0 q 942 0 1024 0 l 771 0 l 771 -56 q 723 -214 771 -149 q 595 -312 675 -279 q 421 -344 515 -344 q 236 -307 319 -344 q 104 -202 153 -269 q 56 -49 56 -135 q 72 128 56 4 q 111 379 89 251 l 214 374 q 178 135 193 251 q 163 -26 163 18 q 197 -142 163 -92 q 288 -221 231 -193 q 414 -249 346 -249 q 538 -222 481 -249 q 630 -148 596 -196 q 664 -40 664 -100 l 664 625 l 771 625 l 771 96 l 908 96 q 1001 151 972 96 q 1029 289 1029 206 l 1029 625 l 1136 625 l 1136 290 q 1117 143 1136 206 q 1169 110 1138 125 q 1233 96 1201 96 l 1379 96 l 1379 397 q 1372 530 1379 450 q 1354 690 1364 610 l 1442 694 q 1473 526 1460 615 q 1486 386 1486 438 l 1486 96 l 1644 96 z "},"ﺴ":{"ha":1178,"x_min":0,"x_max":1178,"o":"m 1178 96 l 1178 0 l 789 0 q 635 58 704 0 q 503 0 585 0 l 0 0 l 0 96 l 225 96 l 225 625 l 332 625 l 332 96 l 469 96 q 562 151 533 96 q 590 289 590 206 l 590 625 l 697 625 l 697 290 q 678 143 697 206 q 731 110 699 125 q 794 96 763 96 l 940 96 l 940 397 q 933 530 940 450 q 915 690 925 610 l 1003 694 q 1034 526 1021 615 q 1047 386 1047 438 l 1047 96 l 1178 96 z "},"ﺳ":{"ha":1144,"x_min":0,"x_max":1047,"o":"m 1003 694 q 1034 526 1021 615 q 1047 386 1047 438 l 1047 0 l 789 0 q 635 58 704 0 q 503 0 585 0 l 0 0 l 0 96 l 225 96 l 225 625 l 332 625 l 332 96 l 469 96 q 562 151 533 96 q 590 289 590 206 l 590 625 l 697 625 l 697 290 q 678 143 697 206 q 731 110 699 125 q 794 96 763 96 l 940 96 l 940 397 q 933 530 940 450 q 915 690 925 610 l 1003 694 z "},"ش":{"ha":1583,"x_min":56,"x_max":1486,"o":"m 56 0 m 1442 694 q 1473 526 1460 615 q 1486 386 1486 438 l 1486 0 l 1228 0 q 1074 58 1143 0 q 942 0 1024 0 l 771 0 l 771 -56 q 723 -214 771 -149 q 595 -312 675 -279 q 421 -344 515 -344 q 236 -307 319 -344 q 104 -202 153 -269 q 56 -49 56 -135 q 72 128 56 4 q 111 379 89 251 l 214 374 q 178 135 193 251 q 163 -26 163 18 q 197 -142 163 -92 q 288 -221 231 -193 q 414 -249 346 -249 q 538 -222 481 -249 q 630 -148 596 -196 q 664 -40 664 -100 l 664 625 l 771 625 l 771 96 l 908 96 q 1001 151 972 96 q 1029 289 1029 206 l 1029 625 l 1136 625 l 1136 290 q 1117 143 1136 206 q 1169 110 1138 125 q 1233 96 1201 96 l 1379 96 l 1379 397 q 1372 530 1379 450 q 1354 690 1364 610 l 1442 694 m 1029 1110 l 1133 1110 l 1133 997 l 1029 997 l 1029 1110 m 942 940 l 1047 940 l 1047 824 l 942 824 l 942 940 m 1115 940 l 1221 940 l 1221 824 l 1115 824 l 1115 940 z "},"ﺶ":{"ha":1644,"x_min":56,"x_max":1644,"o":"m 56 0 m 1644 96 l 1644 0 l 1228 0 q 1074 58 1143 0 q 942 0 1024 0 l 771 0 l 771 -56 q 723 -214 771 -149 q 595 -312 675 -279 q 421 -344 515 -344 q 236 -307 319 -344 q 104 -202 153 -269 q 56 -49 56 -135 q 72 128 56 4 q 111 379 89 251 l 214 374 q 178 135 193 251 q 163 -26 163 18 q 197 -142 163 -92 q 288 -221 231 -193 q 414 -249 346 -249 q 538 -222 481 -249 q 630 -148 596 -196 q 664 -40 664 -100 l 664 625 l 771 625 l 771 96 l 908 96 q 1001 151 972 96 q 1029 289 1029 206 l 1029 625 l 1136 625 l 1136 290 q 1117 143 1136 206 q 1169 110 1138 125 q 1233 96 1201 96 l 1379 96 l 1379 397 q 1372 530 1379 450 q 1354 690 1364 610 l 1442 694 q 1473 526 1460 615 q 1486 386 1486 438 l 1486 96 l 1644 96 m 1029 1110 l 1133 1110 l 1133 997 l 1029 997 l 1029 1110 m 942 940 l 1047 940 l 1047 824 l 942 824 l 942 940 m 1115 940 l 1221 940 l 1221 824 l 1115 824 l 1115 940 z "},"ﺸ":{"ha":1178,"x_min":0,"x_max":1178,"o":"m 0 0 m 1178 96 l 1178 0 l 789 0 q 635 58 704 0 q 503 0 585 0 l 0 0 l 0 96 l 225 96 l 225 625 l 332 625 l 332 96 l 469 96 q 562 151 533 96 q 590 289 590 206 l 590 625 l 697 625 l 697 290 q 678 143 697 206 q 731 110 699 125 q 794 96 763 96 l 940 96 l 940 397 q 933 530 940 450 q 915 690 925 610 l 1003 694 q 1034 526 1021 615 q 1047 386 1047 438 l 1047 96 l 1178 96 m 563 1110 l 667 1110 l 667 997 l 563 997 l 563 1110 m 475 940 l 581 940 l 581 824 l 475 824 l 475 940 m 649 940 l 754 940 l 754 824 l 649 824 l 649 940 z "},"ﺷ":{"ha":1144,"x_min":0,"x_max":1047,"o":"m 0 0 m 1003 694 q 1034 526 1021 615 q 1047 386 1047 438 l 1047 0 l 789 0 q 635 58 704 0 q 503 0 585 0 l 0 0 l 0 96 l 225 96 l 225 625 l 332 625 l 332 96 l 469 96 q 562 151 533 96 q 590 289 590 206 l 590 625 l 697 625 l 697 290 q 678 143 697 206 q 731 110 699 125 q 794 96 763 96 l 940 96 l 940 397 q 933 530 940 450 q 915 690 925 610 l 1003 694 m 590 1110 l 694 1110 l 694 997 l 590 997 l 590 1110 m 503 940 l 608 940 l 608 824 l 503 824 l 503 940 m 676 940 l 782 940 l 782 824 l 676 824 l 676 940 z "},"ص":{"ha":1564,"x_min":56,"x_max":1481,"o":"m 1481 0 l 771 0 l 771 -56 q 723 -214 771 -149 q 595 -312 675 -279 q 421 -344 515 -344 q 236 -307 319 -344 q 104 -202 153 -269 q 56 -49 56 -135 q 72 128 56 4 q 111 379 89 251 l 214 374 q 163 -25 163 47 q 197 -142 163 -90 q 288 -221 231 -193 q 414 -249 346 -249 q 538 -222 481 -249 q 629 -148 594 -196 q 664 -40 664 -100 l 664 694 l 771 694 l 771 472 q 884 599 833 550 q 1003 678 935 647 q 1160 708 1071 708 q 1408 601 1335 708 q 1481 349 1481 493 l 1481 0 m 1149 613 q 989 565 1063 613 q 869 465 915 518 q 771 338 824 411 l 771 96 l 1374 96 l 1374 333 q 1316 533 1374 453 q 1149 613 1258 613 z "},"ﺺ":{"ha":1644,"x_min":56,"x_max":1644,"o":"m 1644 96 l 1644 0 l 771 0 l 771 -56 q 723 -214 771 -149 q 595 -312 675 -279 q 421 -344 515 -344 q 236 -307 319 -344 q 104 -202 153 -269 q 56 -49 56 -135 q 72 128 56 4 q 111 379 89 251 l 214 374 q 163 -25 163 47 q 197 -142 163 -90 q 288 -221 231 -193 q 414 -249 346 -249 q 538 -222 481 -249 q 629 -148 594 -196 q 664 -40 664 -100 l 664 694 l 771 694 l 771 472 q 884 599 833 550 q 1003 678 935 647 q 1160 708 1071 708 q 1408 601 1335 708 q 1481 349 1481 493 l 1481 96 l 1644 96 m 1149 613 q 989 565 1063 613 q 869 465 915 518 q 771 338 824 411 l 771 96 l 1374 96 l 1374 333 q 1316 533 1374 453 q 1149 613 1258 613 z "},"ﺼ":{"ha":1150,"x_min":0,"x_max":1150,"o":"m 1150 96 l 1150 0 l 0 0 l 0 96 l 203 96 l 203 694 l 310 694 l 310 472 q 423 599 372 550 q 542 678 474 647 q 699 708 610 708 q 947 601 874 708 q 1019 349 1019 493 l 1019 96 l 1150 96 m 688 613 q 528 565 601 613 q 408 465 454 518 q 310 338 363 411 l 310 96 l 913 96 l 913 333 q 855 533 913 453 q 688 613 797 613 z "},"ﺻ":{"ha":1117,"x_min":0,"x_max":1019,"o":"m 699 708 q 947 601 874 708 q 1019 349 1019 493 l 1019 0 l 0 0 l 0 96 l 203 96 l 203 694 l 310 694 l 310 472 q 423 599 372 550 q 542 678 474 647 q 699 708 610 708 m 688 613 q 528 565 601 613 q 408 465 454 518 q 310 338 363 411 l 310 96 l 913 96 l 913 333 q 855 533 913 453 q 688 613 797 613 z "},"ض":{"ha":1564,"x_min":56,"x_max":1481,"o":"m 56 0 m 1481 0 l 771 0 l 771 -56 q 723 -214 771 -149 q 595 -312 675 -279 q 421 -344 515 -344 q 236 -307 319 -344 q 104 -202 153 -269 q 56 -49 56 -135 q 72 128 56 4 q 111 379 89 251 l 214 374 q 163 -25 163 47 q 197 -142 163 -90 q 288 -221 231 -193 q 414 -249 346 -249 q 538 -222 481 -249 q 629 -148 594 -196 q 664 -40 664 -100 l 664 694 l 771 694 l 771 472 q 884 599 833 550 q 1003 678 935 647 q 1160 708 1071 708 q 1408 601 1335 708 q 1481 349 1481 493 l 1481 0 m 1149 613 q 989 565 1063 613 q 869 465 915 518 q 771 338 824 411 l 771 96 l 1374 96 l 1374 333 q 1316 533 1374 453 q 1149 613 1258 613 m 1024 940 l 1129 940 l 1129 824 l 1024 824 l 1024 940 z "},"ﺾ":{"ha":1644,"x_min":56,"x_max":1644,"o":"m 56 0 m 1644 96 l 1644 0 l 771 0 l 771 -56 q 723 -214 771 -149 q 595 -312 675 -279 q 421 -344 515 -344 q 236 -307 319 -344 q 104 -202 153 -269 q 56 -49 56 -135 q 72 128 56 4 q 111 379 89 251 l 214 374 q 163 -25 163 47 q 197 -142 163 -90 q 288 -221 231 -193 q 414 -249 346 -249 q 538 -222 481 -249 q 629 -148 594 -196 q 664 -40 664 -100 l 664 694 l 771 694 l 771 472 q 884 599 833 550 q 1003 678 935 647 q 1160 708 1071 708 q 1408 601 1335 708 q 1481 349 1481 493 l 1481 96 l 1644 96 m 1149 613 q 989 565 1063 613 q 869 465 915 518 q 771 338 824 411 l 771 96 l 1374 96 l 1374 333 q 1316 533 1374 453 q 1149 613 1258 613 m 1029 940 l 1135 940 l 1135 824 l 1029 824 l 1029 940 z "},"ﻀ":{"ha":1150,"x_min":0,"x_max":1150,"o":"m 0 0 m 1150 96 l 1150 0 l 0 0 l 0 96 l 203 96 l 203 694 l 310 694 l 310 472 q 423 599 372 550 q 542 678 474 647 q 699 708 610 708 q 947 601 874 708 q 1019 349 1019 493 l 1019 96 l 1150 96 m 688 613 q 528 565 601 613 q 408 465 454 518 q 310 338 363 411 l 310 96 l 913 96 l 913 333 q 855 533 913 453 q 688 613 797 613 m 563 940 l 668 940 l 668 824 l 563 824 l 563 940 z "},"ﺿ":{"ha":1117,"x_min":0,"x_max":1019,"o":"m 0 0 m 699 708 q 947 601 874 708 q 1019 349 1019 493 l 1019 0 l 0 0 l 0 96 l 203 96 l 203 694 l 310 694 l 310 472 q 423 599 372 550 q 542 678 474 647 q 699 708 610 708 m 688 613 q 528 565 601 613 q 408 465 454 518 q 310 338 363 411 l 310 96 l 913 96 l 913 333 q 855 533 913 453 q 688 613 797 613 m 590 940 l 696 940 l 696 824 l 590 824 l 590 940 z "},"ط":{"ha":1008,"x_min":33,"x_max":925,"o":"m 604 708 q 852 601 779 708 q 925 349 925 493 l 925 0 l 33 0 l 33 96 l 108 96 l 108 997 l 215 997 l 215 472 q 328 599 278 550 q 447 678 379 647 q 604 708 515 708 m 593 613 q 433 565 507 613 q 314 465 360 518 q 215 338 268 411 l 215 96 l 818 96 l 818 333 q 760 533 818 453 q 593 613 703 613 z "},"ﻂ":{"ha":1083,"x_min":33,"x_max":1083,"o":"m 1083 96 l 1083 0 l 33 0 l 33 96 l 108 96 l 108 997 l 215 997 l 215 472 q 328 599 278 550 q 447 678 379 647 q 604 708 515 708 q 852 601 779 708 q 925 349 925 493 l 925 96 l 1083 96 m 593 613 q 433 565 507 613 q 314 465 360 518 q 215 338 268 411 l 215 96 l 818 96 l 818 333 q 760 533 818 453 q 593 613 703 613 z "},"ﻄ":{"ha":1083,"x_min":0,"x_max":1083,"o":"m 1083 96 l 1083 0 l 0 0 l 0 96 l 131 96 l 131 997 l 238 997 l 238 389 q 419 621 324 533 q 643 708 515 708 q 792 672 722 708 q 908 555 863 636 q 953 349 953 474 l 953 96 l 1083 96 m 622 613 q 435 528 524 613 q 292 331 347 444 q 238 147 238 218 l 238 96 l 846 96 l 846 350 q 812 501 846 442 q 726 586 778 560 q 622 613 675 613 z "},"ﻃ":{"ha":1036,"x_min":0,"x_max":953,"o":"m 643 708 q 792 672 722 708 q 908 555 863 636 q 953 349 953 474 l 953 0 l 0 0 l 0 96 l 131 96 l 131 997 l 238 997 l 238 389 q 419 621 324 533 q 643 708 515 708 m 622 613 q 435 528 524 613 q 292 331 347 444 q 238 147 238 218 l 238 96 l 846 96 l 846 350 q 812 501 846 442 q 726 586 778 560 q 622 613 675 613 z "},"ظ":{"ha":1008,"x_min":33,"x_max":925,"o":"m 33 0 m 604 708 q 852 601 779 708 q 925 349 925 493 l 925 0 l 33 0 l 33 96 l 108 96 l 108 997 l 215 997 l 215 472 q 328 599 278 550 q 447 678 379 647 q 604 708 515 708 m 593 613 q 433 565 507 613 q 314 465 360 518 q 215 338 268 411 l 215 96 l 818 96 l 818 333 q 760 533 818 453 q 593 613 703 613 m 451 940 l 557 940 l 557 824 l 451 824 l 451 940 z "},"ﻆ":{"ha":1083,"x_min":33,"x_max":1083,"o":"m 33 0 m 1083 96 l 1083 0 l 33 0 l 33 96 l 108 96 l 108 997 l 215 997 l 215 472 q 328 599 278 550 q 447 678 379 647 q 604 708 515 708 q 852 601 779 708 q 925 349 925 493 l 925 96 l 1083 96 m 593 613 q 433 565 507 613 q 314 465 360 518 q 215 338 268 411 l 215 96 l 818 96 l 818 333 q 760 533 818 453 q 593 613 703 613 m 475 940 l 581 940 l 581 824 l 475 824 l 475 940 z "},"ﻈ":{"ha":1083,"x_min":0,"x_max":1083,"o":"m 0 0 m 1083 96 l 1083 0 l 0 0 l 0 96 l 131 96 l 131 997 l 238 997 l 238 389 q 419 621 324 533 q 643 708 515 708 q 792 672 722 708 q 908 555 863 636 q 953 349 953 474 l 953 96 l 1083 96 m 622 613 q 435 528 524 613 q 292 331 347 444 q 238 147 238 218 l 238 96 l 846 96 l 846 350 q 812 501 846 442 q 726 586 778 560 q 622 613 675 613 m 475 940 l 581 940 l 581 824 l 475 824 l 475 940 z "},"ﻇ":{"ha":1036,"x_min":0,"x_max":953,"o":"m 0 0 m 643 708 q 792 672 722 708 q 908 555 863 636 q 953 349 953 474 l 953 0 l 0 0 l 0 96 l 131 96 l 131 997 l 238 997 l 238 389 q 419 621 324 533 q 643 708 515 708 m 622 613 q 435 528 524 613 q 292 331 347 444 q 238 147 238 218 l 238 96 l 846 96 l 846 350 q 812 501 846 442 q 726 586 778 560 q 622 613 675 613 m 479 940 l 585 940 l 585 824 l 479 824 l 479 940 z "},"ع":{"ha":708,"x_min":56,"x_max":667,"o":"m 397 -344 q 654 -314 497 -344 l 667 -399 q 520 -426 600 -414 q 375 -439 440 -439 q 137 -358 218 -439 q 56 -124 56 -276 q 213 132 56 79 q 162 248 179 182 q 144 382 144 314 q 178 549 144 475 q 277 665 211 622 q 438 708 343 708 q 553 694 492 708 q 667 653 615 679 l 663 558 q 574 593 640 574 q 450 613 507 613 q 305 551 356 613 q 254 375 254 490 q 336 151 254 236 l 343 151 q 480 135 419 151 q 578 96 540 118 l 578 0 q 477 38 539 21 q 353 56 415 56 q 163 -132 163 56 q 397 -344 163 -344 z "},"ﻊ":{"ha":819,"x_min":56,"x_max":819,"o":"m 382 56 q 248 8 293 53 q 203 -131 203 -36 q 433 -344 203 -344 q 692 -314 535 -344 l 704 -399 l 658 -408 q 413 -439 515 -439 q 174 -358 256 -439 q 93 -124 93 -276 q 140 56 93 -8 q 282 142 188 119 q 122 330 182 224 q 60 517 63 436 l 56 615 q 399 708 233 708 q 744 615 563 708 l 740 517 q 710 394 738 463 q 628 254 682 325 q 501 129 575 183 q 672 96 588 96 l 819 96 l 819 0 l 672 0 q 532 17 604 0 q 400 64 460 33 l 382 56 m 165 561 q 230 349 165 449 q 400 181 294 250 q 572 349 507 250 q 636 561 636 449 q 400 613 499 613 q 165 561 304 613 z "},"ﻌ":{"ha":851,"x_min":0,"x_max":851,"o":"m 851 96 l 851 0 l 706 0 q 564 17 636 0 q 432 64 492 33 q 302 17 372 35 q 164 0 232 0 l 0 0 l 0 96 l 160 96 q 329 128 244 96 q 158 321 222 210 q 92 517 94 432 l 88 615 q 431 708 265 708 q 776 615 594 708 l 772 517 q 742 394 769 463 q 660 254 714 325 q 535 129 607 183 q 704 96 618 96 l 851 96 m 197 561 q 261 348 197 447 q 432 181 325 249 q 603 349 538 249 q 668 561 668 449 q 432 613 531 613 q 197 561 336 613 z "},"ﻋ":{"ha":774,"x_min":0,"x_max":732,"o":"m 732 96 l 732 0 l 0 0 l 0 96 l 260 96 q 194 215 221 140 q 168 382 168 290 q 244 618 168 528 q 461 708 319 708 q 577 694 515 708 q 690 653 639 679 l 686 558 q 597 593 665 574 q 474 613 529 613 q 326 549 378 613 q 275 375 275 485 q 308 212 275 285 q 389 96 340 139 l 732 96 z "},"غ":{"ha":708,"x_min":56,"x_max":667,"o":"m 56 0 m 397 -344 q 654 -314 497 -344 l 667 -399 q 520 -426 600 -414 q 375 -439 440 -439 q 137 -358 218 -439 q 56 -124 56 -276 q 213 132 56 79 q 162 248 179 182 q 144 382 144 314 q 178 549 144 475 q 277 665 211 622 q 438 708 343 708 q 553 694 492 708 q 667 653 615 679 l 663 558 q 574 593 640 574 q 450 613 507 613 q 305 551 356 613 q 254 375 254 490 q 336 151 254 236 l 343 151 q 480 135 419 151 q 578 96 540 118 l 578 0 q 477 38 539 21 q 353 56 415 56 q 163 -132 163 56 q 397 -344 163 -344 m 371 940 l 476 940 l 476 824 l 371 824 l 371 940 z "},"ﻎ":{"ha":819,"x_min":56,"x_max":819,"o":"m 56 0 m 382 56 q 248 8 293 53 q 203 -131 203 -36 q 433 -344 203 -344 q 692 -314 535 -344 l 704 -399 l 658 -408 q 413 -439 515 -439 q 174 -358 256 -439 q 93 -124 93 -276 q 140 56 93 -8 q 282 142 188 119 q 122 330 182 224 q 60 517 63 436 l 56 615 q 399 708 233 708 q 744 615 563 708 l 740 517 q 710 394 738 463 q 628 254 682 325 q 501 129 575 183 q 672 96 588 96 l 819 96 l 819 0 l 672 0 q 532 17 604 0 q 400 64 460 33 l 382 56 m 165 561 q 230 349 165 449 q 400 181 294 250 q 572 349 507 250 q 636 561 636 449 q 400 613 499 613 q 165 561 304 613 m 343 940 l 449 940 l 449 824 l 343 824 l 343 940 z "},"ﻐ":{"ha":851,"x_min":0,"x_max":851,"o":"m 0 0 m 851 96 l 851 0 l 706 0 q 564 17 636 0 q 432 64 492 33 q 302 17 372 35 q 164 0 232 0 l 0 0 l 0 96 l 160 96 q 329 128 244 96 q 158 321 222 210 q 92 517 94 432 l 88 615 q 431 708 265 708 q 776 615 594 708 l 772 517 q 742 394 769 463 q 660 254 714 325 q 535 129 607 183 q 704 96 618 96 l 851 96 m 197 561 q 261 348 197 447 q 432 181 325 249 q 603 349 538 249 q 668 561 668 449 q 432 613 531 613 q 197 561 336 613 m 374 940 l 479 940 l 479 824 l 374 824 l 374 940 z "},"ﻏ":{"ha":774,"x_min":0,"x_max":732,"o":"m 0 0 m 732 96 l 732 0 l 0 0 l 0 96 l 260 96 q 194 215 221 140 q 168 382 168 290 q 244 618 168 528 q 461 708 319 708 q 577 694 515 708 q 690 653 639 679 l 686 558 q 597 593 665 574 q 474 613 529 613 q 326 549 378 613 q 275 375 275 485 q 308 212 275 285 q 389 96 340 139 l 732 96 m 392 940 l 497 940 l 497 824 l 392 824 l 392 940 z "},"ف":{"ha":1333,"x_min":56,"x_max":1250,"o":"m 56 0 m 1250 679 l 1250 0 l 415 0 q 204 22 282 0 q 91 93 126 44 q 56 226 56 142 q 69 372 56 283 q 100 542 82 461 l 183 538 q 174 468 182 528 q 151 251 151 306 q 176 158 151 192 q 256 110 200 125 q 414 96 313 96 l 728 96 q 690 331 690 169 q 720 551 690 474 q 820 661 750 629 q 1019 693 890 693 q 1211 683 1125 693 l 1250 679 m 796 333 q 847 96 796 157 l 1143 96 l 1143 594 q 1010 601 1049 601 q 876 575 922 601 q 813 492 831 549 q 796 333 796 435 m 965 940 l 1071 940 l 1071 824 l 965 824 l 965 940 z "},"ﻒ":{"ha":1372,"x_min":56,"x_max":1372,"o":"m 56 0 m 1372 96 l 1372 0 l 415 0 q 204 22 282 0 q 91 93 126 44 q 56 226 56 142 q 69 372 56 283 q 100 542 82 461 l 183 538 q 174 468 182 528 q 151 251 151 306 q 176 158 151 192 q 256 110 200 125 q 414 96 313 96 l 728 96 q 690 331 690 169 q 720 551 690 474 q 820 661 750 629 q 1019 693 890 693 q 1211 683 1125 693 l 1250 679 l 1250 96 l 1372 96 m 796 333 q 847 96 796 157 l 1143 96 l 1143 594 q 1010 601 1049 601 q 876 575 922 601 q 813 492 831 549 q 796 333 796 435 m 965 940 l 1071 940 l 1071 824 l 965 824 l 965 940 z "},"ﻔ":{"ha":842,"x_min":0,"x_max":842,"o":"m 0 0 m 842 96 l 842 0 l 0 0 l 0 96 l 197 96 q 160 331 160 169 q 190 551 160 474 q 290 661 219 629 q 489 693 360 693 q 681 683 594 693 l 719 679 l 719 96 l 842 96 m 265 333 q 317 96 265 157 l 613 96 l 613 594 q 479 601 518 601 q 346 575 392 601 q 283 492 300 549 q 265 333 265 435 m 385 940 l 490 940 l 490 824 l 385 824 l 385 940 z "},"ﻓ":{"ha":803,"x_min":0,"x_max":719,"o":"m 0 0 m 719 679 l 719 0 l 0 0 l 0 96 l 197 96 q 160 331 160 169 q 190 551 160 474 q 290 661 219 629 q 489 693 360 693 q 681 683 594 693 l 719 679 m 265 333 q 317 96 265 157 l 613 96 l 613 594 q 479 601 518 601 q 346 575 392 601 q 283 492 300 549 q 265 333 265 435 m 414 940 l 519 940 l 519 824 l 414 824 l 414 940 z "},"ڤ":{"ha":1333,"x_min":56,"x_max":1250,"o":"m 56 0 m 1250 679 l 1250 0 l 415 0 q 204 22 282 0 q 91 93 126 44 q 56 226 56 142 q 69 372 56 283 q 100 542 82 461 l 183 538 q 174 468 182 528 q 151 251 151 306 q 176 158 151 192 q 256 110 200 125 q 414 96 313 96 l 728 96 q 690 331 690 169 q 720 551 690 474 q 820 661 750 629 q 1019 693 890 693 q 1211 683 1125 693 l 1250 679 m 796 333 q 847 96 796 157 l 1143 96 l 1143 594 q 1010 601 1049 601 q 876 575 922 601 q 813 492 831 549 q 796 333 796 435 m 965 1110 l 1069 1110 l 1069 997 l 965 997 l 965 1110 m 878 940 l 983 940 l 983 824 l 878 824 l 878 940 m 1051 940 l 1157 940 l 1157 824 l 1051 824 l 1051 940 z "},"ﭫ":{"ha":1372,"x_min":56,"x_max":1372,"o":"m 56 0 m 1372 96 l 1372 0 l 415 0 q 204 22 282 0 q 91 93 126 44 q 56 226 56 142 q 69 372 56 283 q 100 542 82 461 l 183 538 q 174 468 182 528 q 151 251 151 306 q 176 158 151 192 q 256 110 200 125 q 414 96 313 96 l 728 96 q 690 331 690 169 q 720 551 690 474 q 820 661 750 629 q 1019 693 890 693 q 1211 683 1125 693 l 1250 679 l 1250 96 l 1372 96 m 796 333 q 847 96 796 157 l 1143 96 l 1143 594 q 1010 601 1049 601 q 876 575 922 601 q 813 492 831 549 q 796 333 796 435 m 965 1110 l 1069 1110 l 1069 997 l 965 997 l 965 1110 m 878 940 l 983 940 l 983 824 l 878 824 l 878 940 m 1051 940 l 1157 940 l 1157 824 l 1051 824 l 1051 940 z "},"ﭭ":{"ha":842,"x_min":0,"x_max":842,"o":"m 0 0 m 842 96 l 842 0 l 0 0 l 0 96 l 197 96 q 160 331 160 169 q 190 551 160 474 q 290 661 219 629 q 489 693 360 693 q 681 683 594 693 l 719 679 l 719 96 l 842 96 m 265 333 q 317 96 265 157 l 613 96 l 613 594 q 479 601 518 601 q 346 575 392 601 q 283 492 300 549 q 265 333 265 435 m 385 1110 l 489 1110 l 489 997 l 385 997 l 385 1110 m 297 940 l 403 940 l 403 824 l 297 824 l 297 940 m 471 940 l 576 940 l 576 824 l 471 824 l 471 940 z "},"ﭬ":{"ha":803,"x_min":0,"x_max":719,"o":"m 0 0 m 719 679 l 719 0 l 0 0 l 0 96 l 197 96 q 160 331 160 169 q 190 551 160 474 q 290 661 219 629 q 489 693 360 693 q 681 683 594 693 l 719 679 m 265 333 q 317 96 265 157 l 613 96 l 613 594 q 479 601 518 601 q 346 575 392 601 q 283 492 300 549 q 265 333 265 435 m 414 1110 l 518 1110 l 518 997 l 414 997 l 414 1110 m 326 940 l 432 940 l 432 824 l 326 824 l 326 940 m 500 940 l 606 940 l 606 824 l 500 824 l 500 940 z "},"ڡ":{"ha":1333,"x_min":56,"x_max":1250,"o":"m 1250 679 l 1250 0 l 415 0 q 204 22 282 0 q 91 93 126 44 q 56 226 56 142 q 69 372 56 283 q 100 542 82 461 l 183 538 q 174 468 182 528 q 151 251 151 306 q 176 158 151 192 q 256 110 200 125 q 414 96 313 96 l 728 96 q 690 331 690 169 q 720 551 690 474 q 820 661 750 629 q 1019 693 890 693 q 1211 683 1125 693 l 1250 679 m 796 333 q 847 96 796 157 l 1143 96 l 1143 594 q 1010 601 1049 601 q 876 575 922 601 q 813 492 831 549 q 796 333 796 435 z "},"ٯ":{"ha":1190,"x_min":56,"x_max":1093,"o":"m 1093 679 l 1093 -51 q 1007 -265 1093 -185 q 769 -346 921 -346 l 379 -346 q 142 -265 228 -346 q 56 -50 56 -185 q 106 343 56 51 l 207 326 q 173 99 183 175 q 163 -26 163 22 q 217 -190 163 -131 q 383 -250 272 -250 l 764 -250 q 931 -190 876 -250 q 986 -26 986 -131 l 986 0 l 785 0 q 635 28 689 0 q 558 125 582 56 q 533 324 533 194 q 561 537 533 457 q 656 656 589 617 q 843 694 722 694 q 949 691 885 694 q 1054 683 1013 688 l 1093 679 m 640 329 q 658 186 640 236 q 714 116 675 136 q 821 96 753 96 l 986 96 l 986 593 q 856 601 890 601 q 726 573 772 601 q 660 485 679 544 q 640 329 640 426 z "},"ق":{"ha":1190,"x_min":56,"x_max":1093,"o":"m 56 0 m 1093 679 l 1093 -51 q 1007 -265 1093 -185 q 769 -346 921 -346 l 379 -346 q 142 -265 228 -346 q 56 -50 56 -185 q 106 343 56 51 l 207 326 q 173 99 183 175 q 163 -26 163 22 q 217 -190 163 -131 q 383 -250 272 -250 l 764 -250 q 931 -190 876 -250 q 986 -26 986 -131 l 986 0 l 785 0 q 635 28 689 0 q 558 125 582 56 q 533 324 533 194 q 561 537 533 457 q 656 656 589 617 q 843 694 722 694 q 949 691 885 694 q 1054 683 1013 688 l 1093 679 m 640 329 q 658 186 640 236 q 714 116 675 136 q 821 96 753 96 l 986 96 l 986 593 q 856 601 890 601 q 726 573 772 601 q 660 485 679 544 q 640 329 640 426 m 722 940 l 828 940 l 828 824 l 722 824 l 722 940 m 896 940 l 1001 940 l 1001 824 l 896 824 l 896 940 z "},"ﻖ":{"ha":1250,"x_min":56,"x_max":1250,"o":"m 56 0 m 1250 0 l 1093 0 l 1093 -51 q 1007 -265 1093 -185 q 769 -346 921 -346 l 379 -346 q 142 -265 228 -346 q 56 -50 56 -185 q 106 343 56 51 l 207 326 q 173 99 183 175 q 163 -26 163 22 q 217 -190 163 -131 q 383 -250 272 -250 l 764 -250 q 931 -190 876 -250 q 986 -26 986 -131 l 986 0 l 785 0 q 635 28 689 0 q 558 125 582 56 q 533 324 533 194 q 561 537 533 457 q 656 656 589 617 q 843 694 722 694 q 949 691 885 694 q 1054 683 1013 688 l 1093 679 l 1093 96 l 1250 96 l 1250 0 m 640 329 q 658 186 640 236 q 714 116 675 136 q 821 96 753 96 l 986 96 l 986 593 q 856 601 890 601 q 726 573 772 601 q 660 485 679 544 q 640 329 640 426 m 721 940 l 826 940 l 826 824 l 721 824 l 721 940 m 894 940 l 1000 940 l 1000 824 l 894 824 l 894 940 z "},"ﻘ":{"ha":842,"x_min":0,"x_max":842,"o":"m 0 0 m 842 96 l 842 0 l 0 0 l 0 96 l 197 96 q 160 331 160 169 q 190 551 160 474 q 290 661 219 629 q 489 693 360 693 q 681 683 594 693 l 719 679 l 719 96 l 842 96 m 265 333 q 317 96 265 157 l 613 96 l 613 594 q 479 601 518 601 q 346 575 392 601 q 283 492 300 549 q 265 333 265 435 m 299 940 l 404 940 l 404 824 l 299 824 l 299 940 m 472 940 l 578 940 l 578 824 l 472 824 l 472 940 z "},"ﻗ":{"ha":803,"x_min":0,"x_max":719,"o":"m 0 0 m 719 679 l 719 0 l 0 0 l 0 96 l 197 96 q 160 331 160 169 q 190 551 160 474 q 290 661 219 629 q 489 693 360 693 q 681 683 594 693 l 719 679 m 265 333 q 317 96 265 157 l 613 96 l 613 594 q 479 601 518 601 q 346 575 392 601 q 283 492 300 549 q 265 333 265 435 m 328 940 l 433 940 l 433 824 l 328 824 l 328 940 m 501 940 l 607 940 l 607 824 l 501 824 l 501 940 z "},"ك":{"ha":1057,"x_min":69,"x_max":932,"o":"m 69 0 m 932 997 l 932 0 l 429 0 q 218 22 296 0 q 105 93 140 44 q 69 226 69 142 q 106 501 69 321 l 192 497 q 185 439 186 458 q 165 251 165 308 q 190 158 165 192 q 270 110 214 125 q 428 96 326 96 l 825 96 l 825 997 l 932 997 m 632 549 l 349 493 l 336 538 l 403 556 q 356 654 356 594 q 392 742 356 706 q 485 779 428 779 q 544 768 517 779 q 586 746 572 757 l 572 693 q 547 707 564 700 q 508 714 529 714 q 449 690 472 714 q 426 635 426 667 q 458 571 426 594 l 617 613 l 632 549 z "},"ﻚ":{"ha":1139,"x_min":69,"x_max":1139,"o":"m 69 0 m 1139 96 l 1139 0 l 429 0 q 218 22 296 0 q 105 93 140 44 q 69 226 69 142 q 106 501 69 321 l 192 497 q 185 439 186 458 q 165 251 165 308 q 190 158 165 192 q 270 110 214 125 q 428 96 326 96 l 825 96 l 825 997 l 932 997 l 932 96 l 1139 96 m 632 549 l 349 493 l 336 538 l 403 556 q 356 654 356 594 q 392 742 356 706 q 485 779 428 779 q 544 768 517 779 q 586 746 572 757 l 572 693 q 547 707 564 700 q 508 714 529 714 q 449 690 472 714 q 426 635 426 667 q 458 571 426 594 l 617 613 l 632 549 z "},"ﻜ":{"ha":929,"x_min":0,"x_max":929,"o":"m 929 96 l 929 0 l 0 0 l 0 96 l 624 96 l 624 297 q 592 442 624 381 q 489 504 561 503 l 113 504 l 42 600 l 114 742 q 190 863 139 792 q 292 997 240 935 l 368 954 q 272 806 304 858 q 214 703 240 754 l 161 600 l 497 600 q 674 515 618 600 q 731 296 731 431 l 731 96 l 929 96 z "},"ﻛ":{"ha":814,"x_min":0,"x_max":731,"o":"m 497 600 q 674 515 618 600 q 731 296 731 431 l 731 0 l 0 0 l 0 96 l 624 96 l 624 297 q 592 442 624 381 q 489 504 561 503 l 113 504 l 42 600 l 114 742 q 190 863 139 792 q 292 997 240 935 l 368 954 q 272 806 304 858 q 214 703 240 754 l 161 600 l 497 600 z "},"ک":{"ha":1108,"x_min":56,"x_max":1025,"o":"m 792 600 q 969 515 913 600 q 1025 296 1025 431 l 1025 0 l 415 0 q 204 22 282 0 q 91 93 126 44 q 56 226 56 142 q 92 501 56 321 l 178 497 q 171 439 172 458 q 151 251 151 308 q 176 158 151 192 q 256 110 200 125 q 414 96 313 96 l 918 96 l 918 297 q 887 442 918 381 q 783 504 856 503 l 407 504 l 336 600 l 408 742 q 484 863 433 792 q 586 997 535 935 l 663 954 q 567 806 599 858 q 508 703 535 754 l 456 600 l 792 600 z "},"ﮏ":{"ha":1182,"x_min":56,"x_max":1182,"o":"m 1182 96 l 1182 0 l 415 0 q 204 22 282 0 q 91 93 126 44 q 56 226 56 142 q 92 501 56 321 l 178 497 q 171 439 172 458 q 151 251 151 308 q 176 158 151 192 q 256 110 200 125 q 414 96 313 96 l 918 96 l 918 297 q 887 442 918 381 q 783 504 856 503 l 407 504 l 336 600 l 408 742 q 484 863 433 792 q 586 997 535 935 l 663 954 q 567 806 599 858 q 508 703 535 754 l 456 600 l 792 600 q 969 515 913 600 q 1025 296 1025 431 l 1025 96 l 1182 96 z "},"ﮑ":{"ha":929,"x_min":0,"x_max":929,"o":"m 0 0 m 929 96 l 929 0 l 0 0 l 0 96 l 624 96 l 624 297 q 592 442 624 381 q 489 504 561 503 l 113 504 l 42 600 l 114 742 q 190 863 139 792 q 292 997 240 935 l 368 954 q 272 806 304 858 q 214 703 240 754 l 161 600 l 497 600 q 674 515 618 600 q 731 296 731 431 l 731 96 l 929 96 z "},"ﮐ":{"ha":814,"x_min":0,"x_max":731,"o":"m 0 0 m 497 600 q 674 515 618 600 q 731 296 731 431 l 731 0 l 0 0 l 0 96 l 624 96 l 624 297 q 592 442 624 381 q 489 504 561 503 l 113 504 l 42 600 l 114 742 q 190 863 139 792 q 292 997 240 935 l 368 954 q 272 806 304 858 q 214 703 240 754 l 161 600 l 497 600 z "},"گ":{"ha":1108,"x_min":56,"x_max":1025,"o":"m 56 0 m 792 600 q 969 515 913 600 q 1025 296 1025 431 l 1025 0 l 415 0 q 204 22 282 0 q 91 93 126 44 q 56 226 56 142 q 92 501 56 321 l 178 497 q 171 439 172 458 q 151 251 151 308 q 176 158 151 192 q 256 110 200 125 q 414 96 313 96 l 918 96 l 918 297 q 887 442 918 381 q 783 504 856 503 l 407 504 l 336 600 l 408 742 q 484 863 433 792 q 586 997 535 935 l 663 954 q 567 806 599 858 q 508 703 535 754 l 456 600 l 792 600 m 258 711 l 301 796 q 377 915 325 840 q 479 1051 429 990 l 542 1017 q 430 869 490 956 q 349 740 369 783 l 304 650 l 258 711 z "},"ﮓ":{"ha":1182,"x_min":56,"x_max":1182,"o":"m 56 0 m 1182 96 l 1182 0 l 415 0 q 204 22 282 0 q 91 93 126 44 q 56 226 56 142 q 92 501 56 321 l 178 497 q 171 439 172 458 q 151 251 151 308 q 176 158 151 192 q 256 110 200 125 q 414 96 313 96 l 918 96 l 918 297 q 887 442 918 381 q 783 504 856 503 l 407 504 l 336 600 l 408 742 q 484 863 433 792 q 586 997 535 935 l 663 954 q 567 806 599 858 q 508 703 535 754 l 456 600 l 792 600 q 969 515 913 600 q 1025 296 1025 431 l 1025 96 l 1182 96 m 258 711 l 301 796 q 377 915 325 840 q 479 1051 429 990 l 542 1017 q 430 869 490 956 q 349 740 369 783 l 304 650 l 258 711 z "},"ﮕ":{"ha":929,"x_min":-39,"x_max":929,"o":"m 0 0 m 929 96 l 929 0 l 0 0 l 0 96 l 624 96 l 624 297 q 592 442 624 381 q 489 504 561 503 l 113 504 l 42 600 l 114 742 q 190 863 139 792 q 292 997 240 935 l 368 954 q 272 806 304 858 q 214 703 240 754 l 161 600 l 497 600 q 674 515 618 600 q 731 296 731 431 l 731 96 l 929 96 m -39 711 l 4 796 q 80 915 28 840 q 182 1051 132 990 l 244 1017 q 133 869 193 956 q 51 740 72 783 l 7 650 l -39 711 z "},"ﮔ":{"ha":814,"x_min":-39,"x_max":731,"o":"m 0 0 m 497 600 q 674 515 618 600 q 731 296 731 431 l 731 0 l 0 0 l 0 96 l 624 96 l 624 297 q 592 442 624 381 q 489 504 561 503 l 113 504 l 42 600 l 114 742 q 190 863 139 792 q 292 997 240 935 l 368 954 q 272 806 304 858 q 214 703 240 754 l 161 600 l 497 600 m -39 711 l 4 796 q 80 915 28 840 q 182 1051 132 990 l 244 1017 q 133 869 193 956 q 51 740 72 783 l 7 650 l -39 711 z "},"ل":{"ha":896,"x_min":56,"x_max":771,"o":"m 421 -344 q 236 -307 319 -344 q 104 -203 153 -269 q 56 -50 56 -136 q 72 128 56 3 q 111 379 89 253 l 214 374 q 178 117 193 238 q 163 -43 163 -3 q 197 -150 163 -103 q 289 -223 231 -197 q 418 -249 347 -249 q 592 -195 521 -249 q 664 -43 664 -142 l 664 997 l 771 997 l 771 -56 q 723 -214 771 -149 q 595 -312 675 -279 q 421 -344 515 -344 z "},"ﻞ":{"ha":931,"x_min":56,"x_max":931,"o":"m 931 0 l 771 0 l 771 -56 q 723 -214 771 -149 q 595 -312 675 -279 q 421 -344 515 -344 q 236 -307 319 -344 q 104 -203 153 -269 q 56 -50 56 -136 q 72 128 56 3 q 111 379 89 253 l 214 374 q 178 117 193 238 q 163 -43 163 -3 q 197 -150 163 -103 q 289 -223 231 -197 q 418 -249 347 -249 q 592 -195 521 -249 q 664 -43 664 -142 l 664 997 l 771 997 l 771 96 l 931 96 l 931 0 z "},"ﻠ":{"ha":454,"x_min":0,"x_max":454,"o":"m 454 96 l 454 0 l 0 0 l 0 96 l 171 96 l 171 997 l 278 997 l 278 96 l 454 96 z "},"ﻟ":{"ha":403,"x_min":0,"x_max":278,"o":"m 278 997 l 278 0 l 0 0 l 0 96 l 171 96 l 171 997 l 278 997 z "},"م":{"ha":838,"x_min":57,"x_max":754,"o":"m 424 708 q 674 625 593 708 q 754 347 754 542 l 754 0 l 307 0 q 153 -190 153 0 q 190 -451 153 -278 l 100 -454 q 57 -151 57 -254 q 91 5 57 -50 q 178 81 125 60 q 156 339 156 197 q 167 523 156 432 q 192 671 178 614 q 289 697 225 685 q 424 708 353 708 m 647 96 l 647 349 q 588 551 647 490 q 406 613 528 613 q 285 599 338 613 q 263 339 263 478 q 269 203 263 271 q 282 96 275 136 l 647 96 z "},"ﻢ":{"ha":911,"x_min":57,"x_max":911,"o":"m 911 96 l 911 0 l 867 0 q 811 15 842 0 q 754 56 781 31 l 754 0 l 307 0 q 153 -190 153 0 q 190 -451 153 -278 l 100 -454 q 57 -151 57 -254 q 91 5 57 -50 q 178 81 125 60 q 156 339 156 197 q 167 523 156 432 q 192 671 178 614 q 289 697 225 685 q 424 708 353 708 q 674 625 593 708 q 754 347 754 542 l 754 150 q 867 96 800 96 l 911 96 m 647 96 l 647 349 q 588 551 647 490 q 406 613 528 613 q 285 599 338 613 q 263 339 263 478 q 269 203 263 271 q 282 96 275 136 l 647 96 z "},"ﻤ":{"ha":964,"x_min":0,"x_max":964,"o":"m 964 96 l 964 0 l 919 0 q 863 15 893 0 q 808 54 833 29 l 808 0 l 0 0 l 0 96 l 229 96 q 210 339 210 215 q 221 523 210 432 q 246 671 232 614 q 343 697 279 685 q 478 708 407 708 q 728 625 647 708 q 808 347 808 542 l 808 149 q 919 96 853 96 l 964 96 m 317 339 q 323 203 317 271 q 336 96 329 136 l 701 96 l 701 349 q 642 551 701 490 q 460 613 582 613 q 339 599 392 613 q 317 339 317 478 z "},"ﻣ":{"ha":892,"x_min":0,"x_max":808,"o":"m 478 708 q 728 625 647 708 q 808 347 808 542 l 808 0 l 0 0 l 0 96 l 229 96 q 210 339 210 215 q 221 523 210 432 q 246 671 232 614 q 343 697 279 685 q 478 708 407 708 m 317 339 q 323 203 317 271 q 336 96 329 136 l 701 96 l 701 349 q 642 551 701 490 q 460 613 582 613 q 339 599 392 613 q 317 339 317 478 z "},"ن":{"ha":854,"x_min":56,"x_max":771,"o":"m 56 0 m 421 -344 q 236 -307 319 -344 q 104 -203 153 -269 q 56 -50 56 -136 q 72 128 56 3 q 111 379 89 253 l 214 374 q 178 117 193 238 q 163 -43 163 -3 q 197 -150 163 -103 q 289 -223 231 -197 q 418 -249 347 -249 q 592 -195 521 -249 q 664 -43 664 -142 l 664 694 l 771 694 l 771 -56 q 723 -214 771 -149 q 595 -312 675 -279 q 421 -344 515 -344 m 371 811 l 476 811 l 476 694 l 371 694 l 371 811 z "},"ﻦ":{"ha":929,"x_min":56,"x_max":929,"o":"m 56 0 m 929 0 l 771 0 l 771 -56 q 723 -214 771 -149 q 595 -312 675 -279 q 421 -344 515 -344 q 236 -307 319 -344 q 104 -203 153 -269 q 56 -50 56 -136 q 72 128 56 3 q 111 379 89 253 l 214 374 q 178 117 193 238 q 163 -43 163 -3 q 197 -150 163 -103 q 289 -223 231 -197 q 418 -249 347 -249 q 592 -195 521 -249 q 664 -43 664 -142 l 664 694 l 771 694 l 771 96 l 929 96 l 929 0 m 371 811 l 476 811 l 476 694 l 371 694 l 371 811 z "},"ﻨ":{"ha":521,"x_min":0,"x_max":521,"o":"m 0 0 m 521 96 l 521 0 l 0 0 l 0 96 l 207 96 l 207 694 l 314 694 l 314 96 l 521 96 m 207 940 l 313 940 l 313 824 l 207 824 l 207 940 z "},"ﻧ":{"ha":425,"x_min":0,"x_max":314,"o":"m 0 0 m 314 694 l 314 0 l 0 0 l 0 96 l 207 96 l 207 694 l 314 694 m 207 940 l 313 940 l 313 824 l 207 824 l 207 940 z "},"ں":{"ha":854,"x_min":56,"x_max":771,"o":"m 421 -344 q 236 -307 319 -344 q 104 -203 153 -269 q 56 -50 56 -136 q 72 128 56 3 q 111 379 89 253 l 214 374 q 178 117 193 238 q 163 -43 163 -3 q 197 -150 163 -103 q 289 -223 231 -197 q 418 -249 347 -249 q 592 -195 521 -249 q 664 -43 664 -142 l 664 694 l 771 694 l 771 -56 q 723 -214 771 -149 q 595 -312 675 -279 q 421 -344 515 -344 z "},"ﮟ":{"ha":929,"x_min":56,"x_max":929,"o":"m 929 0 l 771 0 l 771 -56 q 723 -214 771 -149 q 595 -312 675 -279 q 421 -344 515 -344 q 236 -307 319 -344 q 104 -203 153 -269 q 56 -50 56 -136 q 72 128 56 3 q 111 379 89 253 l 214 374 q 178 117 193 238 q 163 -43 163 -3 q 197 -150 163 -103 q 289 -223 231 -197 q 418 -249 347 -249 q 592 -195 521 -249 q 664 -43 664 -142 l 664 694 l 771 694 l 771 96 l 929 96 l 929 0 z "},"ه":{"ha":771,"x_min":56,"x_max":688,"o":"m 369 708 q 527 703 421 708 q 688 693 633 699 l 688 0 l 383 0 q 189 35 260 0 q 87 145 118 69 q 56 351 56 221 q 85 558 56 481 q 184 672 115 636 q 369 708 253 708 m 163 354 q 185 203 163 258 q 260 122 208 147 q 401 96 311 96 l 581 96 l 581 603 q 392 611 458 611 q 214 551 265 611 q 163 354 163 492 z "},"ﻪ":{"ha":846,"x_min":56,"x_max":846,"o":"m 846 96 l 846 0 l 383 0 q 189 35 260 0 q 87 145 118 69 q 56 351 56 221 q 85 558 56 481 q 184 672 115 636 q 369 708 253 708 q 527 703 421 708 q 688 693 633 699 l 688 96 l 846 96 m 163 354 q 185 203 163 258 q 260 122 208 147 q 401 96 311 96 l 581 96 l 581 603 q 392 611 458 611 q 214 551 265 611 q 163 354 163 492 z "},"ﻬ":{"ha":1110,"x_min":0,"x_max":1110,"o":"m 1110 96 l 1110 0 l 0 0 l 0 96 l 160 96 l 160 207 q 194 333 160 275 q 285 424 228 390 q 411 458 343 458 q 535 426 478 458 q 627 335 593 393 q 661 207 661 278 l 661 96 l 865 96 l 865 288 q 762 576 865 493 q 500 658 658 658 q 370 649 439 658 q 206 624 301 640 l 199 706 q 519 754 379 754 q 844 646 715 754 q 972 290 972 538 l 972 96 l 1110 96 m 411 363 q 308 321 350 363 q 267 219 267 279 l 267 96 l 554 96 l 554 219 q 513 321 554 279 q 411 363 472 363 z "},"ﻫ":{"ha":1056,"x_min":0,"x_max":972,"o":"m 519 754 q 844 646 715 754 q 972 290 972 538 l 972 0 l 0 0 l 0 96 l 160 96 l 160 207 q 194 333 160 275 q 285 424 228 390 q 411 458 343 458 q 535 426 478 458 q 627 335 593 393 q 661 207 661 278 l 661 96 l 865 96 l 865 288 q 762 576 865 493 q 500 658 658 658 q 370 649 439 658 q 206 624 301 640 l 199 706 q 519 754 379 754 m 411 363 q 308 321 350 363 q 267 219 267 279 l 267 96 l 554 96 l 554 219 q 513 321 554 279 q 411 363 472 363 z "},"ہ":{"ha":771,"x_min":56,"x_max":688,"o":"m 56 0 m 369 708 q 527 703 421 708 q 688 693 633 699 l 688 0 l 383 0 q 189 35 260 0 q 87 145 118 69 q 56 351 56 221 q 85 558 56 481 q 184 672 115 636 q 369 708 253 708 m 163 354 q 185 203 163 258 q 260 122 208 147 q 401 96 311 96 l 581 96 l 581 603 q 392 611 458 611 q 214 551 265 611 q 163 354 163 492 z "},"ﮧ":{"ha":846,"x_min":56,"x_max":846,"o":"m 846 96 l 846 0 l 581 0 l 581 606 q 472 610 528 608 q 379 613 417 613 q 249 587 296 613 q 182 506 201 561 q 163 354 163 450 l 163 0 l 56 0 l 56 357 q 86 560 56 483 q 185 672 117 636 q 369 708 253 708 q 519 705 428 708 q 649 697 611 701 l 688 693 l 688 96 l 846 96 z "},"ﮩ":{"ha":754,"x_min":0,"x_max":754,"o":"m 754 0 l 596 0 l 596 -431 l 557 -435 q 486 -439 554 -435 q 297 -403 364 -439 q 197 -273 229 -367 q 160 0 164 -179 l 0 0 l 0 96 l 264 96 l 264 38 q 283 -205 264 -124 q 350 -316 303 -286 q 489 -346 397 -346 l 489 96 l 754 96 l 754 0 z "},"ﮨ":{"ha":425,"x_min":0,"x_max":314,"o":"m 0 0 m 314 694 l 314 0 l 0 0 l 0 96 l 207 96 l 207 694 l 314 694 m 172 -83 l 258 -83 l 194 -403 l 79 -403 l 172 -83 z "},"ۂ":{"ha":771,"x_min":56,"x_max":688,"o":"m 56 0 m 369 708 q 527 703 421 708 q 688 693 633 699 l 688 0 l 383 0 q 189 35 260 0 q 87 145 118 69 q 56 351 56 221 q 85 558 56 481 q 184 672 115 636 q 369 708 253 708 m 163 354 q 185 203 163 258 q 260 122 208 147 q 401 96 311 96 l 581 96 l 581 603 q 392 611 458 611 q 214 551 265 611 q 163 354 163 492 m 529 886 l 246 831 l 233 875 l 300 893 q 253 992 253 932 q 289 1080 253 1043 q 382 1117 325 1117 q 442 1106 414 1117 q 483 1083 469 1094 l 469 1031 q 444 1044 461 1038 q 406 1051 426 1051 q 347 1028 369 1051 q 324 972 324 1004 q 356 908 324 932 l 514 950 l 529 886 z "},"ھ":{"ha":1028,"x_min":56,"x_max":944,"o":"m 492 754 q 816 646 688 754 q 944 290 944 538 l 944 0 l 56 0 l 56 96 l 132 96 l 132 207 q 166 333 132 275 q 258 424 200 390 q 383 458 315 458 q 508 426 450 458 q 599 335 565 393 q 633 207 633 278 l 633 96 l 838 96 l 838 288 q 734 576 838 493 q 472 658 631 658 q 342 649 411 658 q 178 624 274 640 l 171 706 q 492 754 351 754 m 383 363 q 281 321 322 363 q 239 219 239 279 l 239 96 l 526 96 l 526 219 q 485 321 526 279 q 383 363 444 363 z "},"ﮫ":{"ha":1082,"x_min":56,"x_max":1082,"o":"m 1082 96 l 1082 0 l 56 0 l 56 96 l 132 96 l 132 207 q 166 333 132 275 q 258 424 200 390 q 383 458 315 458 q 508 426 450 458 q 599 335 565 393 q 633 207 633 278 l 633 96 l 838 96 l 838 288 q 734 576 838 493 q 472 658 631 658 q 342 649 411 658 q 178 624 274 640 l 171 706 q 492 754 351 754 q 816 646 688 754 q 944 290 944 538 l 944 96 l 1082 96 m 383 363 q 281 321 322 363 q 239 219 239 279 l 239 96 l 526 96 l 526 219 q 485 321 526 279 q 383 363 444 363 z "},"ﮭ":{"ha":1110,"x_min":0,"x_max":1110,"o":"m 0 0 m 1110 96 l 1110 0 l 0 0 l 0 96 l 160 96 l 160 207 q 194 333 160 275 q 285 424 228 390 q 411 458 343 458 q 535 426 478 458 q 627 335 593 393 q 661 207 661 278 l 661 96 l 865 96 l 865 288 q 762 576 865 493 q 500 658 658 658 q 370 649 439 658 q 206 624 301 640 l 199 706 q 519 754 379 754 q 844 646 715 754 q 972 290 972 538 l 972 96 l 1110 96 m 411 363 q 308 321 350 363 q 267 219 267 279 l 267 96 l 554 96 l 554 219 q 513 321 554 279 q 411 363 472 363 z "},"ﮬ":{"ha":1056,"x_min":0,"x_max":972,"o":"m 0 0 m 519 754 q 844 646 715 754 q 972 290 972 538 l 972 0 l 0 0 l 0 96 l 160 96 l 160 207 q 194 333 160 275 q 285 424 228 390 q 411 458 343 458 q 535 426 478 458 q 627 335 593 393 q 661 207 661 278 l 661 96 l 865 96 l 865 288 q 762 576 865 493 q 500 658 658 658 q 370 649 439 658 q 206 624 301 640 l 199 706 q 519 754 379 754 m 411 363 q 308 321 350 363 q 267 219 267 279 l 267 96 l 554 96 l 554 219 q 513 321 554 279 q 411 363 472 363 z "},"ة":{"ha":771,"x_min":56,"x_max":688,"o":"m 56 0 m 369 708 q 527 703 421 708 q 688 693 633 699 l 688 0 l 383 0 q 189 35 260 0 q 87 145 118 69 q 56 351 56 221 q 85 558 56 481 q 184 672 115 636 q 369 708 253 708 m 163 354 q 185 203 163 258 q 260 122 208 147 q 401 96 311 96 l 581 96 l 581 603 q 392 611 458 611 q 214 551 265 611 q 163 354 163 492 m 247 940 l 353 940 l 353 824 l 247 824 l 247 940 m 421 940 l 526 940 l 526 824 l 421 824 l 421 940 z "},"ﺔ":{"ha":846,"x_min":56,"x_max":846,"o":"m 56 0 m 846 96 l 846 0 l 383 0 q 189 35 260 0 q 87 145 118 69 q 56 351 56 221 q 85 558 56 481 q 184 672 115 636 q 369 708 253 708 q 527 703 421 708 q 688 693 633 699 l 688 96 l 846 96 m 163 354 q 185 203 163 258 q 260 122 208 147 q 401 96 311 96 l 581 96 l 581 603 q 392 611 458 611 q 214 551 265 611 q 163 354 163 492 m 271 940 l 376 940 l 376 824 l 271 824 l 271 940 m 444 940 l 550 940 l 550 824 l 444 824 l 444 940 z "},"ۃ":{"ha":771,"x_min":56,"x_max":688,"o":"m 56 0 m 369 708 q 527 703 421 708 q 688 693 633 699 l 688 0 l 383 0 q 189 35 260 0 q 87 145 118 69 q 56 351 56 221 q 85 558 56 481 q 184 672 115 636 q 369 708 253 708 m 163 354 q 185 203 163 258 q 260 122 208 147 q 401 96 311 96 l 581 96 l 581 603 q 392 611 458 611 q 214 551 265 611 q 163 354 163 492 m 247 940 l 353 940 l 353 824 l 247 824 l 247 940 m 421 940 l 526 940 l 526 824 l 421 824 l 421 940 z "},"و":{"ha":700,"x_min":56,"x_max":617,"o":"m 353 721 q 487 713 408 721 q 617 694 565 704 l 617 86 q 562 -240 617 -135 q 372 -344 507 -344 q 163 -324 308 -344 l 163 -229 q 365 -249 292 -249 q 444 -231 414 -249 q 492 -160 474 -214 q 510 0 510 -106 l 306 0 q 105 96 154 0 q 56 344 56 192 q 81 555 56 474 q 171 678 106 636 q 353 721 236 721 m 163 347 q 199 166 163 236 q 346 96 235 96 l 510 96 l 510 615 q 379 625 435 625 q 247 594 294 625 q 181 502 200 563 q 163 347 163 442 z "},"ﻮ":{"ha":788,"x_min":56,"x_max":788,"o":"m 788 0 l 614 0 q 549 -260 606 -175 q 372 -344 493 -344 q 163 -324 308 -344 l 163 -229 q 365 -249 292 -249 q 444 -231 414 -249 q 492 -160 474 -214 q 510 0 510 -106 l 306 0 q 105 96 154 0 q 56 344 56 192 q 81 555 56 474 q 171 678 106 636 q 353 721 236 721 q 487 713 408 721 q 617 694 565 704 l 617 96 l 788 96 l 788 0 m 163 347 q 199 166 163 236 q 346 96 235 96 l 510 96 l 510 615 q 379 625 435 625 q 247 594 294 625 q 181 502 200 563 q 163 347 163 442 z "},"ؤ":{"ha":700,"x_min":56,"x_max":617,"o":"m 56 0 m 353 721 q 487 713 408 721 q 617 694 565 704 l 617 86 q 562 -240 617 -135 q 372 -344 507 -344 q 163 -324 308 -344 l 163 -229 q 365 -249 292 -249 q 444 -231 414 -249 q 492 -160 474 -214 q 510 0 510 -106 l 306 0 q 105 96 154 0 q 56 344 56 192 q 81 555 56 474 q 171 678 106 636 q 353 721 236 721 m 163 347 q 199 166 163 236 q 346 96 235 96 l 510 96 l 510 615 q 379 625 435 625 q 247 594 294 625 q 181 502 200 563 q 163 347 163 442 m 493 886 l 210 831 l 197 875 l 264 893 q 217 992 217 932 q 253 1080 217 1043 q 346 1117 289 1117 q 406 1106 378 1117 q 447 1083 433 1094 l 433 1031 q 408 1044 425 1038 q 369 1051 390 1051 q 310 1028 333 1051 q 288 972 288 1004 q 319 908 288 932 l 478 950 l 493 886 z "}}}
